<?xml version="1.0" standalone="no"?>
<!DOCTYPE svg PUBLIC "-//W3C//DTD SVG 1.1//EN" "http://www.w3.org/Graphics/SVG/1.1/DTD/svg11.dtd" >
<svg xmlns="http://www.w3.org/2000/svg" xmlns:xlink="http://www.w3.org/1999/xlink" version="1.1">
<metadata></metadata>
<defs>
<font id="droid_serifitalic" horiz-adv-x="1145" >
<font-face units-per-em="2048" ascent="1638" descent="-410" />
<missing-glyph horiz-adv-x="532" />
<glyph unicode="&#xd;" horiz-adv-x="1044" />
<glyph unicode=" "  horiz-adv-x="532" />
<glyph unicode="&#x09;" horiz-adv-x="532" />
<glyph unicode="&#xa0;" horiz-adv-x="532" />
<glyph unicode="!" horiz-adv-x="682" d="M123 109q0 71 36.5 114t98.5 43q127 0 127 -125q0 -73 -36.5 -115t-98.5 -42q-127 0 -127 125zM258 412l152 1050h237l-295 -1050h-94z" />
<glyph unicode="&#x22;" horiz-adv-x="836" d="M268 981l41 481h217l-164 -481h-94zM653 981l41 481h217l-163 -481h-95z" />
<glyph unicode="#" d="M68 416l14 121h190l119 401h-244l13 121h266l117 403h125l-119 -403h285l118 403h123l-119 -403h160l-12 -121h-182l-117 -401h233l-14 -121h-258l-121 -416h-123l121 416h-285l-120 -416h-123l121 416h-168zM397 537h285l117 401h-285z" />
<glyph unicode="$" d="M49 352q0 77 50.5 122.5t107.5 45.5q0 -135 60.5 -227.5t164.5 -114.5l107 502q-271 135 -271 350q0 167 111.5 264t314.5 107l33 155h102l-32 -155q295 -26 295 -205q0 -141 -166 -141q0 220 -150 254l-104 -492l22 -12q185 -101 235 -174t50 -162q0 -168 -123.5 -275 t-343.5 -120l-49 -236h-103l52 238q-170 12 -266.5 88t-96.5 188zM459 1059q0 -119 121 -195l94 447q-215 -36 -215 -252zM535 174q116 10 182.5 79t66.5 171q0 132 -151 211z" />
<glyph unicode="%" horiz-adv-x="1835" d="M135 901q0 216 118 398t312 182q273 0 273 -326q0 -207 -120.5 -393.5t-318.5 -186.5q-125 0 -194.5 83.5t-69.5 242.5zM297 870q0 -211 111 -211t185.5 177.5t74.5 351.5q0 211 -111 211t-185.5 -177t-74.5 -352zM342 0l1028 1462h143l-1019 -1462h-152zM1040 309 q0 216 118 398t312 182q273 0 273 -326q0 -207 -120.5 -393t-317.5 -186q-265 0 -265 325zM1202 279q0 -211 111 -211t185.5 176.5t74.5 351.5q0 211 -111 211t-185.5 -176.5t-74.5 -351.5z" />
<glyph unicode="&#x26;" horiz-adv-x="1520" d="M72 362q0 159 96 269t334 198q-99 167 -99 301q0 170 111.5 261.5t325.5 91.5q166 0 256 -72t90 -194q0 -133 -75 -215t-372 -189l287 -393q87 164 129 362l16 80h369l-18 -86h-19q-102 0 -148 -30.5t-66.5 -59t-102.5 -199.5q-39 -81 -90 -161l112 -154q63 -86 201 -86 h18l-18 -86h-313l-123 170q-185 -190 -453 -190q-211 0 -329.5 104.5t-118.5 277.5zM274 367q0 -119 71.5 -196t195.5 -77q212 0 368 164l-348 483q-160 -73 -223.5 -155.5t-63.5 -218.5zM600 1145q0 -114 82 -250q173 65 245 130.5t72 176.5q0 81 -47.5 130.5t-126.5 49.5 q-225 0 -225 -237z" />
<glyph unicode="'" horiz-adv-x="451" d="M260 981l41 481h217l-164 -481h-94z" />
<glyph unicode="(" horiz-adv-x="709" d="M86 381q0 413 198.5 746t551.5 429l-21 -92q-283 -154 -409.5 -517.5t-126.5 -661.5q0 -321 190 -453l-20 -94q-363 159 -363 643z" />
<glyph unicode=")" horiz-adv-x="709" d="M-100 -279l20 93q284 153 410.5 519.5t126.5 659.5q0 320 -191 453l21 94q362 -158 362 -643q0 -415 -200 -748.5t-549 -427.5z" />
<glyph unicode="*" horiz-adv-x="1024" d="M238 1153l358 29l-315 172l104 143l266 -260l17 330l174 -37l-123 -305l350 123l37 -172l-361 -27l318 -170l-102 -139l-271 252l-12 -328l-174 37l119 305l-349 -125z" />
<glyph unicode="+" d="M150 672v121h376v378h123v-378h379v-121h-379v-379h-123v379h-376z" />
<glyph unicode="," horiz-adv-x="512" d="M-57 -299l8 86q209 47 209 172q0 36 -66 78q-67 42 -67 104q0 55 35 88t92 33q69 0 114 -45.5t45 -122.5q0 -150 -95 -253.5t-275 -139.5z" />
<glyph unicode="-" horiz-adv-x="635" d="M29 481l32 154h533l-33 -154h-532z" />
<glyph unicode="." horiz-adv-x="586" d="M90 109q0 71 36.5 114t98.5 43q127 0 127 -125q0 -72 -36.5 -114.5t-98.5 -42.5q-127 0 -127 125z" />
<glyph unicode="/" horiz-adv-x="590" d="M-190 -248l841 1804h129l-841 -1804h-129z" />
<glyph unicode="0" d="M82 473q0 394 170 703t444 309q180 0 284.5 -123t104.5 -346q0 -394 -167 -716.5t-441 -322.5q-183 0 -289 131t-106 365zM281 414q0 -324 213 -324q178 0 285.5 295.5t107.5 669.5q0 319 -211 319q-179 0 -287 -297t-108 -663z" />
<glyph unicode="1" d="M78 0l16 86h109q97 0 141 36.5t59 110.5l160 754q35 164 76 322h-8q-129 -127 -192 -170t-117 -43q-82 0 -82 110q140 34 335 158l166 106h131l-264 -1245q-8 -38 -8 -57q0 -82 148 -82h110l-18 -86h-762z" />
<glyph unicode="2" d="M-35 0l43 166l481 434q191 172 268 298t77 276q0 95 -51 150.5t-138 55.5q-236 0 -291 -309q-145 0 -145 131q0 114 123.5 197.5t322.5 83.5q185 0 286 -78t101 -221q0 -122 -87 -251.5t-339 -354.5l-460 -414h475q67 0 114.5 30.5t88.5 122.5l14 33h86l-82 -350h-887z " />
<glyph unicode="3" d="M-6 195q0 68 43 109.5t113 41.5q0 -112 67 -183t189 -71q146 0 239.5 93t93.5 253q0 127 -75.5 197t-212.5 70h-89l21 104h66q174 0 286.5 107t112.5 278q0 186 -174 186q-228 0 -291 -305q-152 0 -152 131q0 119 127.5 198t323.5 79q174 0 275.5 -79t101.5 -214 q0 -156 -110.5 -271t-301.5 -149q147 -15 227 -98.5t80 -210.5q0 -231 -159.5 -356t-403.5 -125q-197 0 -297 58.5t-100 156.5z" />
<glyph unicode="4" d="M-29 401l19 84l839 977h197l-203 -946h254l-24 -115h-254l-35 -176q-8 -40 -8 -57q0 -82 147 -82h47l-18 -86h-670l17 86h90q97 0 141 36.5t59 110.5l33 168h-631zM162 516h465l80 383q49 232 100 397q-85 -129 -180 -235z" />
<glyph unicode="5" d="M16 184q0 127 154 127q7 -219 223 -219q165 0 257.5 103t92.5 288q0 132 -71.5 205.5t-190.5 73.5q-110 0 -223 -45l-70 14l220 731h684l-56 -309h-86q6 78 6 96q0 49 -94 49h-397l-135 -456q99 32 196 32q202 0 316 -100t114 -276q0 -228 -159.5 -373t-421.5 -145 q-359 0 -359 204z" />
<glyph unicode="6" d="M123 475q0 413 198.5 710.5t501.5 297.5q146 0 230 -53t84 -132q0 -153 -179 -153q0 139 -35 189t-104 50q-308 0 -459 -602q152 107 302 107q162 0 254 -97.5t92 -261.5q0 -238 -134.5 -394t-365.5 -156q-173 0 -279 131.5t-106 363.5zM309 399q0 -307 211 -307 q124 0 204.5 120t80.5 306q0 266 -184 266q-137 0 -283 -118q-29 -164 -29 -267z" />
<glyph unicode="7" d="M184 1092l88 370h916l-12 -59l-801 -1403h-154l758 1298h-539q-112 0 -141 -104l-29 -102h-86z" />
<glyph unicode="8" d="M20 332q0 142 90 238t316 178q-201 144 -201 339q0 187 126.5 291.5t363.5 104.5q174 0 275.5 -82.5t101.5 -216.5q0 -132 -80.5 -227.5t-276.5 -176.5q260 -151 260 -366q0 -209 -145 -321.5t-395 -112.5q-198 0 -316.5 98t-118.5 254zM217 328q0 -115 71 -181.5 t193 -66.5q144 0 232 76t88 209q0 106 -68 181.5t-213 147.5q-303 -111 -303 -366zM422 1110q0 -165 215 -281q272 116 272 340q0 100 -56 155.5t-155 55.5q-125 0 -200.5 -74t-75.5 -196z" />
<glyph unicode="9" d="M72 164q0 51 32 85t89 34q4 -93 52.5 -148t129.5 -55q142 0 243.5 145.5t190.5 476.5q-134 -139 -313 -139q-159 0 -252.5 93t-93.5 247q0 250 157.5 415t382.5 165q173 0 274 -106t101 -298q0 -394 -188 -746.5t-519 -352.5q-286 0 -286 184zM354 897q0 -109 52.5 -165 t140.5 -56q164 0 295 174q32 133 32 242q0 278 -190 278q-135 0 -232.5 -144t-97.5 -329z" />
<glyph unicode=":" horiz-adv-x="588" d="M66 109q0 71 36.5 114t98.5 43q60 0 93.5 -34t33.5 -91q0 -73 -36.5 -115t-98.5 -42q-127 0 -127 125zM250 950q0 71 36.5 114.5t98.5 43.5q127 0 127 -125q0 -74 -36.5 -116t-98.5 -42q-127 0 -127 125z" />
<glyph unicode=";" horiz-adv-x="586" d="M37 -299l8 86q209 47 209 172q0 36 -66 78q-67 42 -67 104q0 55 35 88t92 33q69 0 114.5 -46.5t45.5 -121.5q0 -151 -96.5 -254t-274.5 -139zM254 950q0 71 36.5 114.5t98.5 43.5q127 0 127 -125q0 -74 -36.5 -116t-98.5 -42q-127 0 -127 125z" />
<glyph unicode="&#x3c;" d="M150 696v72l878 473v-137l-688 -373l688 -369v-137z" />
<glyph unicode="=" d="M150 469v121h878v-121h-878zM150 872v121h878v-121h-878z" />
<glyph unicode="&#x3e;" d="M150 225v137l688 369l-688 373v137l878 -473v-72z" />
<glyph unicode="?" horiz-adv-x="1024" d="M268 1212q0 114 114.5 192.5t299.5 78.5q387 0 387 -340q0 -311 -504 -494l-51 -237h-125l64 303q415 154 415 444q0 100 -54 160.5t-144 60.5q-211 0 -254 -290q-148 0 -148 122zM279 109q0 71 36.5 114t98.5 43q60 0 93.5 -34t33.5 -91q0 -73 -36.5 -115t-98.5 -42 q-127 0 -127 125z" />
<glyph unicode="@" horiz-adv-x="1886" d="M133 446q0 439 270 727.5t682 288.5q322 0 507.5 -179.5t185.5 -479.5q0 -278 -124.5 -461.5t-277.5 -183.5q-178 0 -241 186h-11q-97 -186 -276 -186q-139 0 -225 93t-86 257q0 218 141 396.5t381 178.5q114 0 192 -61l82 43h49l-104 -522q-14 -70 -14 -137 q0 -63 33.5 -101.5t91.5 -38.5q101 0 182.5 152.5t81.5 390.5q0 255 -156 402t-424 147q-318 0 -548 -255.5t-230 -651.5q0 -305 163 -470t447 -165q282 0 520 170l48 -74q-275 -203 -588 -203q-352 0 -552 194.5t-200 542.5zM727 479q0 -108 43.5 -160.5t112.5 -52.5 q172 0 221 256l78 416q-29 61 -115 61q-154 0 -247 -168t-93 -352z" />
<glyph unicode="A" horiz-adv-x="1444" d="M-115 0l17 86h39q55 0 92 28.5t98 131.5l713 1216h160l194 -1267q10 -64 35 -86.5t86 -22.5h27l-17 -86h-557l16 86h48q147 0 147 104q0 42 -4 70l-33 229h-538l-123 -215q-39 -68 -39 -114q0 -74 114 -74h48l-17 -86h-506zM469 592h463l-51 358q-31 218 -33 324 q-47 -111 -160 -305z" />
<glyph unicode="B" horiz-adv-x="1339" d="M-43 0l16 86h27q170 0 201 147l213 1004q8 38 8 57q0 82 -148 82h-26l18 86h531q479 0 479 -307q0 -303 -334 -381l-2 -8q250 -50 250 -299q0 -225 -151 -346t-439 -121h-643zM379 102h199q391 0 391 379q0 234 -287 234h-172zM530 817h158q365 0 365 311q0 232 -283 232 h-123z" />
<glyph unicode="C" horiz-adv-x="1284" d="M106 528q0 388 242 671.5t602 283.5q179 0 279 -61.5t100 -166.5q0 -73 -55 -116t-146 -43q0 278 -204 278q-253 0 -423.5 -275.5t-170.5 -602.5q0 -383 364 -383q237 0 379 186q27 -19 27 -68q0 -98 -114 -174.5t-314 -76.5q-267 0 -416.5 143t-149.5 405z" />
<glyph unicode="D" horiz-adv-x="1485" d="M-43 0l16 86h27q170 0 201 147l213 1004q8 38 8 57q0 82 -148 82h-26l18 86h574q279 0 430 -144.5t151 -412.5q0 -392 -223 -648.5t-596 -256.5h-645zM379 104h178q296 0 468.5 227t172.5 597q0 432 -389 432h-162z" />
<glyph unicode="E" horiz-adv-x="1276" d="M-43 0l16 86h27q104 0 144.5 36.5t54.5 100.5l213 1006q6 28 6 49q0 48 -28 73t-116 25h-26l18 86h1032l-65 -358h-107l6 63q5 48 5 56q0 137 -146 137h-344l-117 -545h494l-20 -100h-494l-131 -613h395q173 0 232 168l32 88h107l-90 -358h-1098z" />
<glyph unicode="F" horiz-adv-x="1208" d="M-43 0l16 86h27q96 0 138 33t61 104l215 1014q8 38 8 57q0 82 -148 82h-26l18 86h1032l-65 -358h-107l4 36q1 19 3 36q4 34 4 47q0 137 -154 137h-336l-127 -592h494l-21 -100h-493l-92 -435q-7 -33 -7 -51q0 -96 142 -96h67l-16 -86h-637z" />
<glyph unicode="G" horiz-adv-x="1462" d="M106 528q0 407 250 681t631 274q204 0 318 -62t114 -159q0 -76 -61 -119t-156 -43q0 132 -67 203t-191 71q-253 0 -433.5 -261.5t-180.5 -616.5q0 -400 395 -400q115 0 231 29l68 326q8 38 8 57q0 82 -147 82h-19l19 86h545l-19 -86h-8q-82 0 -120 -36.5t-54 -111.5 l-78 -368q-217 -94 -463 -94q-280 0 -431 143.5t-151 404.5z" />
<glyph unicode="H" horiz-adv-x="1624" d="M-43 0l16 86h27q99 0 142 37.5t59 109.5l213 1004q8 38 8 57q0 82 -148 82h-26l18 86h596l-18 -86h-27q-98 0 -141 -37t-58 -110l-88 -414h666l90 422q8 38 8 57q0 82 -147 82h-27l19 86h596l-19 -86h-26q-98 0 -141 -37.5t-58 -109.5l-213 -1004q-8 -38 -8 -57 q0 -82 147 -82h27l-19 -86h-596l17 86h26q98 0 142 36.5t59 110.5l101 480h-666l-102 -488q-9 -43 -9 -57q0 -82 148 -82h26l-18 -86h-596z" />
<glyph unicode="I" horiz-adv-x="752" d="M-43 0l16 86h27q170 0 201 147l213 1004q8 38 8 57q0 82 -148 82h-26l18 86h596l-18 -86h-27q-98 0 -141 -37t-58 -110l-212 -1004q-9 -43 -9 -57q0 -82 148 -82h26l-18 -86h-596z" />
<glyph unicode="J" horiz-adv-x="731" d="M-317 -469l28 92q51 -18 133 -18q119 0 185 89t108 288l266 1255q9 42 9 57q0 82 -148 82h-26l18 86h596l-18 -86h-27q-98 0 -141 -37t-58 -110l-266 -1245q-54 -251 -171.5 -363.5t-320.5 -112.5q-91 0 -167 23z" />
<glyph unicode="K" horiz-adv-x="1434" d="M-43 0l16 86h27q99 0 142 37.5t59 109.5l213 1004q8 38 8 57q0 82 -148 82h-26l18 86h596l-18 -86h-27q-98 0 -141 -37t-58 -110l-88 -414l-36 -151l528 485q154 141 154 184q0 45 -91 45l17 84h452l-16 -84q-53 0 -118 -35.5t-197 -156.5l-373 -338l248 -598 q68 -164 194 -164h6l-18 -86h-29q-162 0 -241 33.5t-127 156.5l-199 506l-211 -147l-67 -324q-9 -44 -9 -57q0 -82 148 -82h26l-18 -86h-596z" />
<glyph unicode="L" horiz-adv-x="1276" d="M-41 0l18 86h27q96 0 138 37.5t59 109.5l213 1004q8 38 8 57q0 82 -148 82h-26l18 86h596l-18 -86h-27q-97 0 -139 -34.5t-57 -104.5l-242 -1135h403q157 0 219 185l54 153h106l-106 -440h-1096z" />
<glyph unicode="M" horiz-adv-x="1921" d="M-41 0l18 86h27q102 0 141.5 36t53.5 101l215 1014q8 38 8 57q0 82 -148 82h-26l18 86h465l174 -1167l670 1167h457l-19 -86h-26q-98 0 -141 -37.5t-58 -109.5l-213 -1004q-8 -38 -8 -57q0 -82 147 -82h27l-19 -86h-544l18 86h6q87 0 122 32.5t52 96.5l234 1094 l-748 -1309h-110l-199 1309l-229 -1084q-9 -43 -9 -57q0 -82 148 -82h26l-18 -86h-512z" />
<glyph unicode="N" horiz-adv-x="1563" d="M-41 0l18 86h27q96 0 138 37.5t59 109.5l213 1004q8 38 8 57q0 82 -148 82h-26l18 86h373l496 -1130l192 905q8 38 8 57q0 82 -147 82h-27l19 86h514l-19 -86h-26q-98 0 -140.5 -37.5t-58.5 -109.5l-260 -1229h-133l-527 1200l-206 -975q-9 -43 -9 -57q0 -82 148 -82h26 l-18 -86h-512z" />
<glyph unicode="O" horiz-adv-x="1520" d="M106 545q0 352 230 646t590 294q238 0 384 -148t146 -415q0 -351 -228 -648t-585 -297q-243 0 -390 153.5t-147 414.5zM330 487q0 -192 87 -294.5t238 -102.5q255 0 415.5 282.5t160.5 604.5q0 191 -84.5 294t-237.5 103q-256 0 -417.5 -283.5t-161.5 -603.5z" />
<glyph unicode="P" horiz-adv-x="1270" d="M-41 0l18 86h27q96 0 139 37t58 110l213 1004q8 38 8 57q0 82 -148 82h-26l18 86h525q222 0 344 -103t122 -292q0 -233 -156.5 -365.5t-469.5 -132.5h-152l-73 -344q-9 -42 -9 -57q0 -82 148 -82h67l-18 -86h-635zM500 666h108q432 0 432 399q0 299 -299 299h-94z" />
<glyph unicode="Q" horiz-adv-x="1520" d="M106 545q0 352 230 646t590 294q238 0 384 -148t146 -415q0 -311 -191 -598.5t-513 -337.5q9 -183 61.5 -265.5t159.5 -82.5q74 0 139 18l14 -86q-103 -33 -202 -33q-377 0 -394 451q-199 34 -311.5 183t-112.5 374zM330 487q0 -192 87 -294.5t238 -102.5 q255 0 415.5 282.5t160.5 604.5q0 191 -84.5 294t-237.5 103q-256 0 -417.5 -283.5t-161.5 -603.5z" />
<glyph unicode="R" horiz-adv-x="1325" d="M-76 0l19 86h26q102 0 141.5 36t53.5 101l215 1014q8 38 8 57q0 82 -147 82h-27l18 86h537q469 0 469 -348q0 -338 -379 -428l148 -438q36 -105 73 -133.5t95 -28.5h16l-16 -86h-27q-176 0 -249 46.5t-116 193.5l-118 405h-203l-90 -420q-9 -42 -9 -57q0 -82 148 -82h68 l-19 -86h-635zM481 741h158q183 0 282 93.5t99 267.5q0 136 -60.5 199t-207.5 63h-140z" />
<glyph unicode="S" horiz-adv-x="1114" d="M14 272q0 71 44.5 113.5t113.5 42.5q0 -157 83 -252.5t228 -95.5q143 0 227.5 71t84.5 193q0 97 -48.5 164t-209.5 158q-164 95 -227.5 195t-63.5 226q0 177 134 286.5t363 109.5q178 0 284 -62t106 -159q0 -142 -181 -142q0 120 -57 190t-168 70q-122 0 -200 -70 t-78 -188q0 -87 41.5 -150.5t211.5 -162.5q161 -94 232.5 -187t71.5 -212q0 -203 -142 -316.5t-395 -113.5q-209 0 -332 82.5t-123 209.5z" />
<glyph unicode="T" horiz-adv-x="1255" d="M156 1104l86 358h1153l-66 -358h-106q10 80 10 125q0 131 -135 131h-199l-242 -1135q-8 -38 -8 -57q0 -82 148 -82h47l-19 -86h-637l19 86h47q103 0 143 35.5t54 101.5l241 1137h-196q-146 0 -205 -168l-29 -88h-106z" />
<glyph unicode="U" horiz-adv-x="1495" d="M197 334q0 83 22 182l152 721q8 38 8 57q0 82 -148 82h-26l18 86h596l-16 -86h-27q-96 0 -140 -36.5t-61 -110.5l-153 -723q-25 -118 -25 -191q0 -213 295 -213q166 0 263 74t135 246l174 815q8 37 8 57q0 82 -148 82h-26l18 86h514l-16 -86h-27q-96 0 -140 -36.5 t-61 -110.5l-172 -811q-93 -438 -552 -438q-226 0 -345.5 92t-119.5 262z" />
<glyph unicode="V" horiz-adv-x="1382" d="M168 1376l18 86h557l-16 -86h-47q-66 0 -107 -27.5t-41 -76.5q0 -35 5 -70l81 -665q21 -172 21 -336q76 177 166 336l364 651q39 70 39 115q0 73 -114 73h-47l16 86h506l-19 -86h-39q-69 0 -103.5 -35t-84.5 -124l-682 -1217h-149l-175 1268q-8 61 -33.5 84.5t-88.5 23.5 h-27z" />
<glyph unicode="W" horiz-adv-x="2140" d="M182 1376l19 86h557l-19 -86h-47q-147 0 -147 -104q0 -42 4 -70l49 -655q14 -187 14 -346q86 202 168 368l430 879h148l67 -887q12 -159 12 -291q0 -35 -1 -69q90 209 153 336l326 651q39 78 39 115q0 73 -115 73h-49l16 86h500l-18 -86h-39q-66 0 -103.5 -32t-85.5 -127 l-604 -1217h-188l-92 1135l-551 -1135h-187l-106 1268q-5 55 -30 81.5t-93 26.5h-27z" />
<glyph unicode="X" horiz-adv-x="1352" d="M-100 0l18 86h8q67 0 119.5 35t122.5 112l453 494l-220 545q-42 104 -159 104h-27l18 86h555l-18 -86h-47q-96 0 -96 -57q0 -29 37 -123l116 -299l256 295q78 90 78 133q0 51 -98 51h-6l18 86h449l-19 -86h-18q-56 0 -100.5 -30t-131.5 -123l-387 -428l246 -600 q45 -109 141 -109h27l-18 -86h-553l18 86h23q61 0 96 20.5t35 51.5q0 42 -39 141l-133 326l-306 -340q-82 -91 -82 -144q0 -55 121 -55h6l-18 -86h-485z" />
<glyph unicode="Y" horiz-adv-x="1280" d="M158 1376l18 86h553l-18 -86h-103q-84 0 -84 -55q0 -40 27 -119l92 -274q49 -146 55 -246q20 38 154 215l195 260q75 100 75 166q0 53 -98 53h-76l19 86h506l-19 -86h-39q-39 0 -77.5 -31.5t-108.5 -123.5l-477 -625l-80 -371q-8 -37 -8 -57q0 -82 147 -82h47l-18 -86 h-637l18 86h47q103 0 143 35.5t54 101.5l80 377l-238 668q-23 65 -45.5 86.5t-77.5 21.5h-26z" />
<glyph unicode="Z" horiz-adv-x="1239" d="M-35 0l17 82l1030 1278h-477q-151 0 -205 -168l-29 -88h-106l86 358h1011l-16 -84l-1032 -1276h547q152 0 206 168l29 88h107l-86 -358h-1082z" />
<glyph unicode="[" horiz-adv-x="735" d="M10 -262l387 1818h457l-18 -86h-88q-96 0 -139.5 -36t-59.5 -111l-291 -1360q-8 -37 -8 -57q0 -82 147 -82h88l-18 -86h-457z" />
<glyph unicode="\" horiz-adv-x="590" d="M231 1556h119l88 -1804h-121z" />
<glyph unicode="]" horiz-adv-x="737" d="M-96 -262l18 86h88q96 0 139 37t58 110l291 1360q8 37 8 58q0 81 -148 81h-88l19 86h456l-387 -1818h-454z" />
<glyph unicode="^" d="M121 545l431 917h72l431 -917h-137l-330 729l-330 -729h-137z" />
<glyph unicode="_" horiz-adv-x="940" d="M-186 -291l26 121h959l-27 -121h-958z" />
<glyph unicode="`" horiz-adv-x="1182" d="M565 1548l6 21h205q60 -155 137 -301l-6 -27h-78q-154 150 -264 307z" />
<glyph unicode="a" horiz-adv-x="1186" d="M88 354q0 282 175.5 523t434.5 241q139 0 240 -74l90 52h66l-140 -656q-30 -141 -30 -227q0 -104 67 -104q58 0 148 53l37 -60q-147 -122 -289 -122q-160 0 -160 170q0 65 21 159h-13q-147 -329 -383 -329q-125 0 -194.5 98.5t-69.5 275.5zM297 346q0 -237 129 -237 q102 0 214 151t148 330l76 362q-47 74 -155 74q-175 0 -293.5 -222.5t-118.5 -457.5z" />
<glyph unicode="b" horiz-adv-x="1151" d="M55 -6l271 1272q18 84 18 108q0 96 -143 96h-17l19 86h387l-98 -460q-21 -99 -74 -271h10q151 293 375 293q122 0 191 -94t69 -276q0 -285 -176 -526.5t-434 -241.5q-147 0 -240 73l-92 -59h-66zM285 145q62 -73 159 -73q178 0 294 227t116 451q0 239 -129 239 q-112 0 -218.5 -155.5t-133.5 -282.5z" />
<glyph unicode="c" horiz-adv-x="997" d="M88 403q0 268 173 491.5t437 223.5q141 0 220 -56t79 -140q0 -62 -49.5 -103t-132.5 -41q0 109 -42 175.5t-116 66.5q-143 0 -249.5 -214t-106.5 -419q0 -278 225 -278q179 0 295 147q21 -13 21 -51q0 -82 -96.5 -153.5t-258.5 -71.5q-179 0 -289 113t-110 310z" />
<glyph unicode="d" horiz-adv-x="1186" d="M88 354q0 282 175.5 523t434.5 241q115 0 201 -49q16 94 23 115l20 98q14 69 14 92q0 96 -143 96h-16l18 86h377l-238 -1116q-30 -141 -30 -227q0 -104 67 -104q58 0 148 53l37 -60q-147 -122 -289 -122q-160 0 -160 170q0 65 21 159h-13q-147 -329 -383 -329 q-125 0 -194.5 98.5t-69.5 275.5zM297 346q0 -237 129 -237q102 0 214 151t148 330l76 362q-47 74 -155 74q-175 0 -293.5 -222.5t-118.5 -457.5z" />
<glyph unicode="e" horiz-adv-x="1010" d="M88 403q0 268 173 491.5t437 223.5q130 0 201.5 -62t71.5 -173q0 -166 -172.5 -289t-421.5 -123h-35q-18 0 -37 2q-4 -28 -4 -86q0 -278 225 -278q175 0 295 147q21 -13 21 -51q0 -82 -96.5 -153.5t-258.5 -71.5q-179 0 -289 113t-110 310zM324 567h20q181 0 298.5 88 t117.5 228q0 137 -119 137q-99 0 -185 -124.5t-132 -328.5z" />
<glyph unicode="f" horiz-adv-x="651" d="M-287 -475l19 94q51 -14 94 -14q99 0 156 85t102 292l215 999h-186l12 74l197 43l22 112q72 367 389 367q131 0 197.5 -41.5t66.5 -110.5q0 -133 -170 -133q0 191 -104 191q-75 0 -116.5 -62t-65.5 -192l-27 -131h227l-22 -117h-230l-213 -997q-53 -247 -155 -361.5 t-289 -114.5q-58 0 -119 17z" />
<glyph unicode="g" horiz-adv-x="1139" d="M-72 -225q0 110 89.5 187.5t244.5 107.5q-98 48 -98 141q0 63 40.5 107t153.5 102q-143 67 -143 242q0 173 130.5 314.5t344.5 141.5q131 0 211 -65q97 145 221 145q103 0 103 -94q0 -127 -121 -127q0 74 -57 74q-40 0 -101 -47q45 -64 45 -158q0 -172 -129 -315.5 t-340 -143.5q-47 0 -65 4q-146 -59 -146 -129q0 -51 105 -61l196 -21q318 -34 318 -268q0 -191 -144 -297.5t-411 -106.5q-447 0 -447 267zM94 -213q0 -178 289 -178q180 0 274.5 66.5t94.5 179.5q0 134 -191 151l-199 19h-1q-17 0 -87 -20q-74 -21 -127 -78t-53 -140z M403 653q0 -168 142 -168q117 0 188.5 116.5t71.5 254.5q0 168 -141 168q-120 0 -190.5 -117.5t-70.5 -253.5z" />
<glyph unicode="h" horiz-adv-x="1227" d="M90 0l266 1266q19 90 19 108q0 96 -144 96h-16l18 86h377l-80 -376q-36 -168 -81 -340h22q170 276 379 276q219 0 219 -227q0 -65 -37 -225l-53 -242q-27 -123 -27 -215q0 -98 72 -98q59 0 131 47l37 -60q-134 -116 -250 -116q-85 0 -135.5 55t-50.5 149t39 277l47 212 q30 124 30 191q0 121 -94 121q-114 0 -234.5 -155.5t-152.5 -305.5l-110 -524h-191z" />
<glyph unicode="i" horiz-adv-x="623" d="M127 1012l18 86h367l-139 -658q-31 -147 -31 -227q0 -104 68 -104q59 0 147 53l37 -60q-142 -122 -277 -122q-76 0 -123 55t-47 139q0 92 46 322l79 376q7 33 7 54q0 86 -125 86h-27zM344 1415q0 65 33.5 104.5t89.5 39.5q115 0 115 -113q0 -70 -34.5 -106.5t-88.5 -36.5 q-115 0 -115 112z" />
<glyph unicode="j" horiz-adv-x="596" d="M-287 -475l19 94q51 -14 94 -14q103 0 161.5 91.5t98.5 287.5l188 888q7 33 7 54q0 86 -125 86h-27l18 86h367l-235 -1114q-52 -244 -155.5 -360t-291.5 -116q-58 0 -119 17zM346 1415q0 65 33.5 104.5t89.5 39.5q115 0 115 -113q0 -70 -34.5 -106.5t-88.5 -36.5 q-115 0 -115 112z" />
<glyph unicode="k" horiz-adv-x="1165" d="M90 0l266 1266q19 90 19 108q0 96 -144 96h-16l18 86h377l-80 -376q-110 -517 -159 -674l323 280q151 131 151 193q0 31 -91 31l18 86h453l-19 -86q-119 0 -329 -191l-185 -170l187 -405q79 -172 208 -172l-18 -86q-170 0 -250 39.5t-135 171.5l-133 327l-186 -118 l-84 -406h-191z" />
<glyph unicode="l" horiz-adv-x="623" d="M150 174q0 97 45 322l167 786q13 61 13 92q0 96 -144 96h-24l18 86h387l-237 -1116q-31 -146 -31 -227q0 -104 68 -104q59 0 147 53l37 -60q-142 -122 -277 -122q-74 0 -121.5 54t-47.5 140z" />
<glyph unicode="m" horiz-adv-x="1835" d="M90 0l172 823q12 57 12 92q0 97 -143 97h-16l18 86h379l-55 -258h20q166 276 373 276q219 0 219 -227q0 -25 -4 -49h20q167 276 373 276q219 0 219 -227q0 -65 -37 -225l-53 -242q-26 -119 -26 -215q0 -98 71 -98q59 0 131 47l37 -60q-130 -116 -250 -116q-84 0 -135 55 t-51 149t39 277l35 160q43 197 43 243q0 121 -95 121q-105 0 -217 -134.5t-157 -281.5l-33 -147q-13 -56 -36 -219t-23 -203h-195q0 46 26 212.5t44 248.5l47 212q30 124 30 191q0 121 -94 121q-114 0 -234.5 -155.5t-152.5 -305.5l-110 -524h-191z" />
<glyph unicode="n" horiz-adv-x="1227" d="M90 0l172 823q12 57 12 92q0 97 -143 97h-16l18 86h379l-55 -258h20q166 276 373 276q219 0 219 -227q0 -65 -37 -225l-53 -242q-27 -123 -27 -215q0 -98 72 -98q59 0 131 47l37 -60q-134 -116 -250 -116q-85 0 -135.5 55t-50.5 149t39 277l47 212q30 124 30 191 q0 121 -94 121q-114 0 -233.5 -154t-153.5 -307l-110 -524h-191z" />
<glyph unicode="o" horiz-adv-x="1176" d="M88 403q0 276 168.5 495.5t441.5 219.5q181 0 285 -109t104 -315q0 -273 -167 -493.5t-439 -220.5q-185 0 -289 112t-104 311zM301 362q0 -282 203 -282q169 0 269.5 200.5t100.5 444.5q0 285 -200 285q-167 0 -270 -201t-103 -447z" />
<glyph unicode="p" horiz-adv-x="1182" d="M-14 -492l272 1299q18 86 18 108q0 97 -143 97h-16l18 86h363l-49 -273h10q148 293 375 293q125 0 192.5 -95t67.5 -275q0 -275 -171.5 -521.5t-439.5 -246.5q-117 0 -200 47q-9 -66 -17 -99l-28 -125q-19 -85 -19 -114q0 -95 143 -95h27l-18 -86h-385zM315 145 q66 -73 162 -73q171 0 289.5 223.5t118.5 454.5q0 239 -129 239q-106 0 -214 -147.5t-143 -306.5z" />
<glyph unicode="q" horiz-adv-x="1147" d="M88 354q0 282 175.5 523t434.5 241q128 0 228 -55l50 28q48 27 52 27h72l-283 -1335q-12 -57 -12 -92q0 -97 141 -97h17l-19 -86h-373l86 410q8 39 91 391h-13q-149 -329 -383 -329q-124 0 -194 98.5t-70 275.5zM297 344q0 -235 129 -235q101 0 212 148.5t150 332.5 l76 362q-45 74 -155 74q-177 0 -294.5 -226t-117.5 -456z" />
<glyph unicode="r" horiz-adv-x="958" d="M90 0l172 823q12 57 12 92q0 97 -163 97h-17l19 86h362l-43 -295h21q82 183 162 249t186 66q168 0 168 -141q0 -156 -170 -156q0 162 -82 162q-95 0 -201.5 -187t-157.5 -423l-77 -373h-191z" />
<glyph unicode="s" horiz-adv-x="950" d="M51 211q0 66 36.5 100.5t92.5 34.5q0 -127 61.5 -197.5t172.5 -70.5q221 0 221 190q0 73 -47 123.5t-160 102.5q-147 70 -197.5 144.5t-50.5 172.5q0 134 109.5 219.5t285.5 85.5q151 0 235.5 -56t84.5 -138q0 -127 -154 -127q0 103 -48.5 165t-135.5 62 q-92 0 -145.5 -49.5t-53.5 -126.5q0 -68 51 -116t158 -95q246 -110 246 -318q0 -151 -116 -244t-308 -93q-155 0 -246.5 62.5t-91.5 168.5z" />
<glyph unicode="t" horiz-adv-x="754" d="M141 981l19 82q200 0 313 287h94l-53 -252h248l-25 -117h-248l-124 -584q-25 -118 -25 -176q0 -112 109 -112q83 0 167 45l35 -76q-138 -98 -276 -98q-223 0 -223 239q0 77 20 172l125 590h-156z" />
<glyph unicode="u" horiz-adv-x="1227" d="M117 1012l18 86h381l-135 -613q-41 -186 -41 -247q0 -125 100 -125q105 0 226.5 151.5t158.5 323.5l107 510h198l-141 -658q-31 -145 -31 -227q0 -104 68 -104q58 0 131 45l37 -60q-130 -114 -260 -114q-77 0 -124.5 55t-47.5 139q0 53 10 121h-16q-111 -183 -198.5 -248 t-197.5 -65q-219 0 -219 227q0 65 37 225l80 359q18 81 18 122q0 97 -143 97h-16z" />
<glyph unicode="v" horiz-adv-x="1102" d="M35 1012l16 86h307l95 -606q36 -232 47 -363h6q153 147 265 343.5t112 315.5q0 72 -35 114t-92 42q0 74 40 119t99 45q139 0 139 -190q0 -186 -141.5 -435.5t-368.5 -480.5l-184 -20l-143 921q-17 109 -142 109h-20z" />
<glyph unicode="w" horiz-adv-x="1677" d="M76 1012l28 86h308q6 -432 6 -934h8q267 469 457 915l170 8q43 -539 43 -937h14q167 205 276 405.5t109 318.5q0 94 -88 123q18 121 121 121q108 0 108 -153q0 -295 -514 -963l-202 -22l-31 886q-93 -221 -432 -860l-211 -24l-15 882q-1 72 -28.5 110t-106.5 38h-20z" />
<glyph unicode="x" horiz-adv-x="1118" d="M-41 0l23 86h26q56 0 97.5 25.5t115.5 115.5l262 318l-133 319q-39 95 -64.5 121.5t-82.5 26.5h-27l17 86h272l156 -414l272 414h262l-33 -86h-26q-60 0 -100.5 -29t-112.5 -119l-215 -276l141 -355q36 -92 61.5 -119.5t85.5 -27.5h27l-16 -86h-275l-166 451l-307 -451 h-260z" />
<glyph unicode="y" horiz-adv-x="1081" d="M-332 -455l31 103q72 -23 160 -23q293 0 575 373l-270 905q-18 60 -49 84.5t-92 24.5h-21l16 86h299l160 -553q74 -257 86 -371h6q277 421 277 680q0 111 -101 111q0 69 40 110t94 41q139 0 139 -172q0 -247 -276 -694.5t-442.5 -594.5t-438.5 -147q-108 0 -193 37z" />
<glyph unicode="z" horiz-adv-x="1047" d="M-2 0l16 82l697 899h-260q-71 0 -109.5 -34t-83.5 -132l-4 -8h-86l82 291h717l-17 -84l-698 -897h364q49 0 89.5 31t85.5 137l20 47h86l-80 -332h-819z" />
<glyph unicode="{" horiz-adv-x="877" d="M139 606v86q242 5 242 215v357q0 292 295 292h135v-88h-61q-168 0 -168 -215v-350q0 -214 -228 -252v-2q228 -39 228 -254v-354q0 -215 168 -215h61v-88h-135q-139 0 -217 77t-78 218v356q0 210 -242 217z" />
<glyph unicode="|" d="M526 -492v2048h123v-2048h-123z" />
<glyph unicode="}" horiz-adv-x="877" d="M129 -174h61q168 0 168 215v354q0 215 228 254v2q-228 38 -228 252v350q0 215 -168 215h-61v88h135q295 0 295 -292v-357q0 -210 242 -215v-86q-242 -7 -242 -217v-356q0 -141 -78 -218t-217 -77h-135v88z" />
<glyph unicode="~" horiz-adv-x="1149" d="M129 551q28 358 258 358q94 0 248 -135q107 -102 168 -102q57 0 84 62t41 175h123q-39 -358 -258 -358q-97 0 -238 129q-118 108 -176 108q-60 0 -89 -58.5t-40 -178.5h-121z" />
<glyph unicode="&#xa1;" horiz-adv-x="682" d="M23 -367l294 1051h95l-152 -1051h-237zM285 954q0 74 36.5 116t98.5 42q127 0 127 -125q0 -71 -36.5 -114.5t-98.5 -43.5q-127 0 -127 125z" />
<glyph unicode="&#xa2;" d="M172 600q0 249 155 468.5t406 244.5l33 149h102l-32 -151q116 -11 180.5 -64.5t64.5 -128.5q0 -62 -49.5 -102.5t-132.5 -40.5q0 166 -88 221l-188 -891q169 6 282 148q21 -15 21 -52q0 -79 -88 -149t-242 -76l-37 -176h-102l39 182q-156 26 -240 136t-84 282zM385 584 q0 -214 139 -265l189 893q-138 -25 -233 -232t-95 -396z" />
<glyph unicode="&#xa3;" d="M-2 80l72 41q295 168 295 442q0 50 -15 127h-227l22 103h189q-27 126 -27 206q0 226 135.5 355t364.5 129q155 0 247.5 -56t92.5 -145q0 -162 -170 -162q0 260 -201 260q-139 0 -214 -96.5t-75 -271.5q0 -80 29 -219h348l-22 -103h-312q7 -44 7 -108q0 -237 -258 -389 l2 -9q84 37 157 37q60 0 179 -39q118 -39 159 -39q114 0 205 93l55 -68q-185 -188 -348 -188q-65 0 -189 46t-198 46q-114 0 -238 -60l-28 -14z" />
<glyph unicode="&#xa4;" d="M147 379l134 135q-68 99 -68 219q0 124 70 219l-136 135l86 87l134 -136q99 72 221 72q116 0 217 -72l137 138l86 -89l-135 -135q72 -99 72 -219t-72 -219l135 -135l-84 -86l-137 135q-104 -70 -219 -70q-124 0 -219 70l-136 -135zM328 733q0 -107 76.5 -184.5 t183.5 -77.5q108 0 185 77.5t77 184.5q0 110 -76 187t-186 77q-108 0 -184 -77t-76 -187z" />
<glyph unicode="&#xa5;" horiz-adv-x="1104" d="M121 0l18 86h47q104 0 144 36t53 101l29 139h-287l20 97h287l31 143h-287l21 96h247l-157 570q-16 58 -39 83t-84 25h-6l18 86h479l-18 -86h-4q-69 0 -105 -13t-36 -56t24 -131l53 -220q35 -146 43 -249q22 39 107 167l170 250q92 135 92 193q0 59 -111 59h-6l19 86h417 l-18 -86h-18q-46 0 -78 -23.5t-111 -135.5l-360 -519h254l-21 -96h-286l-31 -143h287l-21 -97h-287l-28 -137q-9 -44 -9 -57q0 -82 148 -82h47l-18 -86h-629z" />
<glyph unicode="&#xa6;" d="M526 328h123v-820h-123v820zM526 737v819h123v-819h-123z" />
<glyph unicode="&#xa7;" horiz-adv-x="1114" d="M41 -4q0 65 36.5 100t92.5 35q0 -120 67 -193t183 -73q125 0 202.5 66.5t77.5 174.5q0 65 -51.5 125t-240.5 162q-228 124 -228 330q0 166 180 278q-49 83 -49 185q0 168 123 269t314 101q143 0 233 -60t90 -144q0 -74 -37 -108t-129 -34q0 115 -49.5 182.5t-144.5 67.5 q-100 0 -171 -56t-71 -153q0 -80 41.5 -133.5t228.5 -154.5q250 -134 250 -318q0 -172 -178 -309q41 -76 41 -152q0 -183 -127 -301.5t-336 -118.5q-157 0 -252.5 63.5t-95.5 168.5zM324 799q0 -76 50 -130t187 -130q121 -67 199 -138q76 83 76 156q0 123 -211 238 q-145 79 -219 149q-82 -60 -82 -145z" />
<glyph unicode="&#xa8;" horiz-adv-x="1182" d="M412 1397q0 129 110 129q103 0 103 -103q0 -129 -111 -129q-102 0 -102 103zM801 1397q0 129 110 129q103 0 103 -103q0 -129 -111 -129q-102 0 -102 103z" />
<glyph unicode="&#xa9;" horiz-adv-x="1731" d="M129 731q0 311 221 532.5t531 221.5q309 0 531 -221.5t222 -532.5q0 -309 -221 -530t-532 -221q-312 0 -532 221t-220 530zM242 731q0 -262 187 -450.5t452 -188.5q264 0 452.5 188t188.5 451q0 264 -188.5 452.5t-452.5 188.5q-265 0 -452 -189t-187 -452zM481 733 q0 210 117 331.5t322 121.5q132 0 206 -40t74 -106q0 -43 -39 -69.5t-100 -26.5q0 156 -146 156q-266 0 -266 -367q0 -177 69 -272.5t200 -95.5q170 0 251 139q29 -21 29 -64q0 -64 -83.5 -114t-223.5 -50q-194 0 -302 120t-108 337z" />
<glyph unicode="&#xaa;" horiz-adv-x="805" d="M123 1008q0 166 119.5 312t300.5 146q98 0 164 -43l63 29h45l-96 -379q-21 -83 -21 -131q0 -61 41 -61q35 0 88 32l23 -39q-93 -92 -178 -92q-113 0 -113 103q0 57 14 110h-8q-107 -213 -262 -213q-86 0 -133 60t-47 166zM301 1012q0 -133 70 -133q54 0 115.5 85.5 t88.5 182.5l54 203q-29 41 -90 41q-102 0 -170 -125.5t-68 -253.5z" />
<glyph unicode="&#xab;" horiz-adv-x="1053" d="M125 520l14 66l389 356h103l-295 -399l129 -379h-103zM496 520l14 66l389 356h102l-294 -399l129 -379h-103z" />
<glyph unicode="&#xac;" d="M150 672v121h878v-541h-123v420h-755z" />
<glyph unicode="&#xad;" horiz-adv-x="635" d="M29 481l32 154h533l-33 -154h-532z" />
<glyph unicode="&#xae;" horiz-adv-x="1731" d="M129 731q0 311 221 532.5t531 221.5q309 0 531 -221.5t222 -532.5q0 -309 -221 -530t-532 -221q-312 0 -532 221t-220 530zM242 731q0 -262 187 -450.5t452 -188.5q264 0 452.5 188t188.5 451q0 264 -188.5 452.5t-452.5 188.5q-265 0 -452 -189t-187 -452zM494 289v69 h26q101 0 101 72v600q0 72 -101 72h-26v72h368q352 0 352 -244q0 -164 -186 -225l182 -293q20 -33 40.5 -43.5t74.5 -10.5v-69h-217l-225 381h-109v-240q0 -72 100 -72h29v-69h-409zM774 748h86q103 0 148 40t45 140q0 91 -46 128.5t-153 37.5h-80v-346z" />
<glyph unicode="&#xaf;" horiz-adv-x="940" d="M-10 1556v121h960v-121h-960z" />
<glyph unicode="&#xb0;" horiz-adv-x="819" d="M172 1151q0 130 91.5 220.5t217.5 90.5q128 0 220 -91t92 -220q0 -127 -91 -218t-221 -91q-128 0 -218.5 90.5t-90.5 218.5zM295 1151q0 -78 55.5 -133t130.5 -55q79 0 134 55t55 133q0 80 -55.5 135t-133.5 55q-75 0 -130.5 -54.5t-55.5 -135.5z" />
<glyph unicode="&#xb1;" d="M150 0v121h878v-121h-878zM150 672v121h376v378h123v-378h379v-121h-379v-379h-123v379h-376z" />
<glyph unicode="&#xb2;" horiz-adv-x="819" d="M41 586l10 61l318 262q111 91 166 175.5t55 197.5q0 119 -103 119q-62 0 -107.5 -53.5t-57.5 -141.5q-62 0 -97 27.5t-35 71.5q0 77 84.5 127.5t227.5 50.5q124 0 196 -54t72 -141q0 -97 -62.5 -181t-220.5 -210l-245 -195h282q77 0 109 84l16 43h70l-57 -243h-621z" />
<glyph unicode="&#xb3;" horiz-adv-x="819" d="M80 731q0 111 117 111q0 -75 45 -125.5t120 -50.5q195 0 195 182q0 69 -49 111t-137 42h-68l16 84h68q97 0 162 62t65 158t-94 96q-136 0 -172 -178q-135 0 -135 86q0 73 84.5 123.5t228.5 50.5q131 0 204 -51t73 -136q0 -189 -262 -241l-2 -11q206 -27 206 -188 q0 -133 -107.5 -208t-289.5 -75q-130 0 -199 43t-69 115z" />
<glyph unicode="&#xb4;" horiz-adv-x="1182" d="M502 1241l6 27q117 135 219 301h219l-6 -21q-157 -183 -356 -307h-82z" />
<glyph unicode="&#xb5;" horiz-adv-x="1237" d="M-4 -344q0 91 61 310q87 314 125 495l135 637h193l-135 -641q-23 -109 -23 -189q0 -157 150 -157q106 0 188 90t113 241l139 656h193l-164 -766q-25 -117 -25 -158q0 -65 60 -65q44 0 112 34l35 -69q-136 -94 -238 -94q-145 0 -153 196h-10q-133 -196 -297 -196 q-169 0 -232 120q-33 -170 -33 -247q0 -149 113 -166q-19 -179 -174 -179q-133 0 -133 148z" />
<glyph unicode="&#xb6;" horiz-adv-x="1264" d="M98 1192q0 364 318 364h780v-86h-27q-98 0 -133 -37.5t-35 -109.5v-1317q0 -72 35 -109.5t133 -37.5h27v-86h-319v1679h-195v-1679h-320v86h27q99 0 133.5 38t34.5 109v785h-145q-314 0 -314 401z" />
<glyph unicode="&#xb7;" horiz-adv-x="586" d="M188 713q0 71 36.5 114t98.5 43q127 0 127 -125q0 -73 -36.5 -115t-98.5 -42q-127 0 -127 125z" />
<glyph unicode="&#xb8;" horiz-adv-x="682" d="M72 -469l22 104q70 -16 137 -16q152 0 152 125q0 102 -131 115l78 159h96l-39 -88q74 -10 119 -58t45 -112q0 -119 -86.5 -185.5t-239.5 -66.5q-79 0 -153 23z" />
<glyph unicode="&#xb9;" horiz-adv-x="819" d="M135 588l15 69h94q85 0 100 78l125 590h-190l14 70h102q143 0 187 78h102l-143 -678q-15 -71 -15 -86q0 -52 72 -52h94l-14 -69h-543z" />
<glyph unicode="&#xba;" horiz-adv-x="813" d="M137 1036q0 162 117 297t303 135q130 0 204.5 -66.5t74.5 -184.5q0 -164 -115 -300.5t-301 -136.5q-133 0 -208 68.5t-75 187.5zM317 1014q0 -152 103 -152q99 0 161 118.5t62 260.5q0 145 -100 145q-98 0 -162 -119t-64 -253z" />
<glyph unicode="&#xbb;" horiz-adv-x="1053" d="M49 164l299 399l-133 379h102l238 -356l-14 -66l-389 -356h-103zM420 164l299 399l-133 379h102l238 -356l-15 -66l-389 -356h-102z" />
<glyph unicode="&#xbc;" horiz-adv-x="1720" d="M27 588l15 69h94q85 0 100 78l125 590h-190l14 70h102q143 0 187 78h102l-143 -678q-15 -71 -15 -86q0 -52 72 -52h94l-14 -69h-543zM277 0l1032 1462h139l-1028 -1462h-143zM892 261l11 70l501 555h164l-112 -537h196l-18 -88h-197l-18 -84q-8 -37 -8 -55q0 -52 71 -52 h41l-14 -69h-451l15 69h57q85 0 100 78l25 113h-363zM1030 349h243l50 223q25 113 41 160l-43 -59z" />
<glyph unicode="&#xbd;" horiz-adv-x="1720" d="M27 588l15 69h94q85 0 100 78l125 590h-190l14 70h102q143 0 187 78h102l-143 -678q-15 -71 -15 -86q0 -52 72 -52h94l-14 -69h-543zM256 0l1032 1462h139l-1028 -1462h-143zM922 1l10 61l318 262q111 91 166 175.5t55 197.5q0 119 -103 119q-62 0 -107.5 -53.5 t-57.5 -141.5q-62 0 -97 27.5t-35 71.5q0 77 84.5 127.5t227.5 50.5q124 0 196 -54t72 -141q0 -97 -62.5 -181t-220.5 -210l-245 -195h282q77 0 109 84l16 43h70l-57 -243h-621z" />
<glyph unicode="&#xbe;" horiz-adv-x="1720" d="M38 731q0 111 117 111q0 -75 45 -125.5t120 -50.5q195 0 195 182q0 69 -49 111t-137 42h-68l16 84h68q97 0 162 62t65 158t-94 96q-136 0 -172 -178q-135 0 -135 86q0 73 84.5 123.5t228.5 50.5q131 0 204 -51t73 -136q0 -189 -262 -241l-2 -11q206 -27 206 -188 q0 -133 -107.5 -208t-289.5 -75q-130 0 -199 43t-69 115zM332 0l1032 1462h139l-1028 -1462h-143zM913 261l11 70l501 555h164l-112 -537h196l-18 -88h-197l-18 -84q-8 -37 -8 -55q0 -52 71 -52h41l-14 -69h-451l15 69h57q85 0 100 78l25 113h-363zM1051 349h243l50 223 q25 113 41 160l-43 -59z" />
<glyph unicode="&#xbf;" horiz-adv-x="1024" d="M2 -49q0 311 504 493l51 238h125l-64 -303q-415 -152 -415 -445q0 -100 54 -160.5t144 -60.5q212 0 254 291q148 0 148 -123q0 -113 -114.5 -191.5t-299.5 -78.5q-387 0 -387 340zM530 952q0 75 37 116.5t99 41.5q127 0 127 -125q0 -71 -37 -114.5t-99 -43.5 q-60 0 -93.5 34.5t-33.5 90.5z" />
<glyph unicode="&#xc0;" horiz-adv-x="1444" d="M-115 0l17 86h39q55 0 92 28.5t98 131.5l713 1216h160l194 -1267q10 -64 35 -86.5t86 -22.5h27l-17 -86h-557l16 86h48q147 0 147 104q0 42 -4 70l-33 229h-538l-123 -215q-39 -68 -39 -114q0 -74 114 -74h48l-17 -86h-506zM469 592h463l-51 358q-31 218 -33 324 q-47 -111 -160 -305zM659 1886l6 21h205q60 -155 137 -301l-6 -27h-78q-154 150 -264 307z" />
<glyph unicode="&#xc1;" horiz-adv-x="1444" d="M-115 0l17 86h39q55 0 92 28.5t98 131.5l713 1216h160l194 -1267q10 -64 35 -86.5t86 -22.5h27l-17 -86h-557l16 86h48q147 0 147 104q0 42 -4 70l-33 229h-538l-123 -215q-39 -68 -39 -114q0 -74 114 -74h48l-17 -86h-506zM469 592h463l-51 358q-31 218 -33 324 q-47 -111 -160 -305zM832 1579l6 27q117 135 219 301h219l-6 -21q-157 -183 -356 -307h-82z" />
<glyph unicode="&#xc2;" horiz-adv-x="1444" d="M-115 0l17 86h39q55 0 92 28.5t98 131.5l713 1216h160l194 -1267q10 -64 35 -86.5t86 -22.5h27l-17 -86h-557l16 86h48q147 0 147 104q0 42 -4 70l-33 229h-538l-123 -215q-39 -68 -39 -114q0 -74 114 -74h48l-17 -86h-506zM469 592h463l-51 358q-31 218 -33 324 q-47 -111 -160 -305zM611 1579l6 27q186 183 270 301h195q29 -117 139 -301l-6 -27h-72q-95 65 -182 184q-150 -127 -262 -184h-88z" />
<glyph unicode="&#xc3;" horiz-adv-x="1444" d="M-115 0l17 86h39q55 0 92 28.5t98 131.5l713 1216h160l194 -1267q10 -64 35 -86.5t86 -22.5h27l-17 -86h-557l16 86h48q147 0 147 104q0 42 -4 70l-33 229h-538l-123 -215q-39 -68 -39 -114q0 -74 114 -74h48l-17 -86h-506zM469 592h463l-51 358q-31 218 -33 324 q-47 -111 -160 -305zM545 1600q72 241 268 241q82 0 169 -64q87 -65 124 -65q89 0 123 109h92q-72 -242 -266 -242q-81 0 -169 65q-89 64 -126 64q-88 0 -123 -108h-92z" />
<glyph unicode="&#xc4;" horiz-adv-x="1444" d="M-115 0l17 86h39q55 0 92 28.5t98 131.5l713 1216h160l194 -1267q10 -64 35 -86.5t86 -22.5h27l-17 -86h-557l16 86h48q147 0 147 104q0 42 -4 70l-33 229h-538l-123 -215q-39 -68 -39 -114q0 -74 114 -74h48l-17 -86h-506zM469 592h463l-51 358q-31 218 -33 324 q-47 -111 -160 -305zM654 1735q0 129 110 129q103 0 103 -103q0 -129 -111 -129q-102 0 -102 103zM1043 1735q0 129 110 129q103 0 103 -103q0 -129 -111 -129q-102 0 -102 103z" />
<glyph unicode="&#xc5;" horiz-adv-x="1444" d="M-115 0l17 86h39q55 0 92 28.5t98 131.5l713 1216h160l194 -1267q10 -64 35 -86.5t86 -22.5h27l-17 -86h-557l16 86h48q147 0 147 104q0 42 -4 70l-33 229h-538l-123 -215q-39 -68 -39 -114q0 -74 114 -74h48l-17 -86h-506zM469 592h463l-51 358q-31 218 -33 324 q-47 -111 -160 -305zM668 1585q0 104 69 163.5t177 59.5t177 -59.5t69 -163.5q0 -105 -69.5 -164t-176.5 -59t-176.5 59t-69.5 164zM779 1585q0 -123 135 -123t135 123t-135 123t-135 -123z" />
<glyph unicode="&#xc6;" horiz-adv-x="1948" d="M-127 0l29 86h39q54 0 94.5 28t116.5 132l815 1118l-174 12l18 86h1159l-65 -358h-107q10 70 10 119q0 137 -145 137h-344l-117 -545h494l-21 -100h-493l-131 -613h395q172 0 231 168l33 88h107l-91 -358h-1097l16 86h27q103 0 144 35.5t54 101.5l56 266h-463l-154 -215 q-55 -77 -55 -120q0 -68 104 -68h48l-29 -86h-504zM539 592h409l162 768h-39q-97 -168 -260 -391z" />
<glyph unicode="&#xc7;" horiz-adv-x="1284" d="M106 528q0 388 242 671.5t602 283.5q179 0 279 -61.5t100 -166.5q0 -73 -55 -116t-146 -43q0 278 -204 278q-253 0 -423.5 -275.5t-170.5 -602.5q0 -383 364 -383q237 0 379 186q27 -19 27 -68q0 -98 -114 -174.5t-314 -76.5q-267 0 -416.5 143t-149.5 405zM334 -469 l22 104q70 -16 137 -16q152 0 152 125q0 102 -131 115l78 159h96l-39 -88q74 -10 119 -58t45 -112q0 -119 -86.5 -185.5t-239.5 -66.5q-79 0 -153 23z" />
<glyph unicode="&#xc8;" horiz-adv-x="1276" d="M-43 0l16 86h27q104 0 144.5 36.5t54.5 100.5l213 1006q6 28 6 49q0 48 -28 73t-116 25h-26l18 86h1032l-65 -358h-107l6 63q5 48 5 56q0 137 -146 137h-344l-117 -545h494l-20 -100h-494l-131 -613h395q173 0 232 168l32 88h107l-90 -358h-1098zM585 1886l6 21h205 q60 -155 137 -301l-6 -27h-78q-154 150 -264 307z" />
<glyph unicode="&#xc9;" horiz-adv-x="1276" d="M-43 0l16 86h27q104 0 144.5 36.5t54.5 100.5l213 1006q6 28 6 49q0 48 -28 73t-116 25h-26l18 86h1032l-65 -358h-107l6 63q5 48 5 56q0 137 -146 137h-344l-117 -545h494l-20 -100h-494l-131 -613h395q173 0 232 168l32 88h107l-90 -358h-1098zM719 1579l6 27 q117 135 219 301h219l-6 -21q-157 -183 -356 -307h-82z" />
<glyph unicode="&#xca;" horiz-adv-x="1276" d="M-43 0l16 86h27q104 0 144.5 36.5t54.5 100.5l213 1006q6 28 6 49q0 48 -28 73t-116 25h-26l18 86h1032l-65 -358h-107l6 63q5 48 5 56q0 137 -146 137h-344l-117 -545h494l-20 -100h-494l-131 -613h395q173 0 232 168l32 88h107l-90 -358h-1098zM545 1579l6 27 q186 183 270 301h195q29 -117 139 -301l-6 -27h-72q-95 65 -182 184q-150 -127 -262 -184h-88z" />
<glyph unicode="&#xcb;" horiz-adv-x="1276" d="M-43 0l16 86h27q104 0 144.5 36.5t54.5 100.5l213 1006q6 28 6 49q0 48 -28 73t-116 25h-26l18 86h1032l-65 -358h-107l6 63q5 48 5 56q0 137 -146 137h-344l-117 -545h494l-20 -100h-494l-131 -613h395q173 0 232 168l32 88h107l-90 -358h-1098zM541 1735q0 129 110 129 q103 0 103 -103q0 -129 -111 -129q-102 0 -102 103zM930 1735q0 129 110 129q103 0 103 -103q0 -129 -111 -129q-102 0 -102 103z" />
<glyph unicode="&#xcc;" horiz-adv-x="752" d="M-43 0l16 86h27q170 0 201 147l213 1004q8 38 8 57q0 82 -148 82h-26l18 86h596l-18 -86h-27q-98 0 -141 -37t-58 -110l-212 -1004q-9 -43 -9 -57q0 -82 148 -82h26l-18 -86h-596zM343 1886l6 21h205q60 -155 137 -301l-6 -27h-78q-154 150 -264 307z" />
<glyph unicode="&#xcd;" horiz-adv-x="752" d="M-43 0l16 86h27q170 0 201 147l213 1004q8 38 8 57q0 82 -148 82h-26l18 86h596l-18 -86h-27q-98 0 -141 -37t-58 -110l-212 -1004q-9 -43 -9 -57q0 -82 148 -82h26l-18 -86h-596zM470 1579l6 27q117 135 219 301h219l-6 -21q-157 -183 -356 -307h-82z" />
<glyph unicode="&#xce;" horiz-adv-x="752" d="M-43 0l16 86h27q170 0 201 147l213 1004q8 38 8 57q0 82 -148 82h-26l18 86h596l-18 -86h-27q-98 0 -141 -37t-58 -110l-212 -1004q-9 -43 -9 -57q0 -82 148 -82h26l-18 -86h-596zM274 1579l6 27q186 183 270 301h195q29 -117 139 -301l-6 -27h-72q-95 65 -182 184 q-150 -127 -262 -184h-88z" />
<glyph unicode="&#xcf;" horiz-adv-x="752" d="M-43 0l16 86h27q170 0 201 147l213 1004q8 38 8 57q0 82 -148 82h-26l18 86h596l-18 -86h-27q-98 0 -141 -37t-58 -110l-212 -1004q-9 -43 -9 -57q0 -82 148 -82h26l-18 -86h-596zM302 1735q0 129 110 129q103 0 103 -103q0 -129 -111 -129q-102 0 -102 103zM691 1735 q0 129 110 129q103 0 103 -103q0 -129 -111 -129q-102 0 -102 103z" />
<glyph unicode="&#xd0;" horiz-adv-x="1530" d="M-43 0l16 86h27q170 0 201 147l102 482h-199l23 100h197l90 422q8 38 8 57q0 82 -148 82h-26l18 86h615q279 0 430 -144.5t151 -412.5q0 -392 -223 -648.5t-596 -256.5h-686zM379 104h219q294 0 467.5 226t173.5 598q0 432 -389 432h-203l-117 -545h388l-23 -100h-387z " />
<glyph unicode="&#xd1;" horiz-adv-x="1563" d="M-41 0l18 86h27q96 0 138 37.5t59 109.5l213 1004q8 38 8 57q0 82 -148 82h-26l18 86h373l496 -1130l192 905q8 38 8 57q0 82 -147 82h-27l19 86h514l-19 -86h-26q-98 0 -140.5 -37.5t-58.5 -109.5l-260 -1229h-133l-527 1200l-206 -975q-9 -43 -9 -57q0 -82 148 -82h26 l-18 -86h-512zM663 1600q72 241 268 241q82 0 169 -64q87 -65 124 -65q89 0 123 109h92q-72 -242 -266 -242q-81 0 -169 65q-89 64 -126 64q-88 0 -123 -108h-92z" />
<glyph unicode="&#xd2;" horiz-adv-x="1520" d="M106 545q0 352 230 646t590 294q238 0 384 -148t146 -415q0 -351 -228 -648t-585 -297q-243 0 -390 153.5t-147 414.5zM330 487q0 -192 87 -294.5t238 -102.5q255 0 415.5 282.5t160.5 604.5q0 191 -84.5 294t-237.5 103q-256 0 -417.5 -283.5t-161.5 -603.5zM758 1886 l6 21h205q60 -155 137 -301l-6 -27h-78q-154 150 -264 307z" />
<glyph unicode="&#xd3;" horiz-adv-x="1520" d="M106 545q0 352 230 646t590 294q238 0 384 -148t146 -415q0 -351 -228 -648t-585 -297q-243 0 -390 153.5t-147 414.5zM330 487q0 -192 87 -294.5t238 -102.5q255 0 415.5 282.5t160.5 604.5q0 191 -84.5 294t-237.5 103q-256 0 -417.5 -283.5t-161.5 -603.5zM821 1579 l6 27q117 135 219 301h219l-6 -21q-157 -183 -356 -307h-82z" />
<glyph unicode="&#xd4;" horiz-adv-x="1520" d="M106 545q0 352 230 646t590 294q238 0 384 -148t146 -415q0 -351 -228 -648t-585 -297q-243 0 -390 153.5t-147 414.5zM330 487q0 -192 87 -294.5t238 -102.5q255 0 415.5 282.5t160.5 604.5q0 191 -84.5 294t-237.5 103q-256 0 -417.5 -283.5t-161.5 -603.5zM633 1579 l6 27q186 183 270 301h195q29 -117 139 -301l-6 -27h-72q-95 65 -182 184q-150 -127 -262 -184h-88z" />
<glyph unicode="&#xd5;" horiz-adv-x="1520" d="M106 545q0 352 230 646t590 294q238 0 384 -148t146 -415q0 -351 -228 -648t-585 -297q-243 0 -390 153.5t-147 414.5zM330 487q0 -192 87 -294.5t238 -102.5q255 0 415.5 282.5t160.5 604.5q0 191 -84.5 294t-237.5 103q-256 0 -417.5 -283.5t-161.5 -603.5zM588 1600 q72 241 268 241q82 0 169 -64q87 -65 124 -65q89 0 123 109h92q-72 -242 -266 -242q-81 0 -169 65q-89 64 -126 64q-88 0 -123 -108h-92z" />
<glyph unicode="&#xd6;" horiz-adv-x="1520" d="M106 545q0 352 230 646t590 294q238 0 384 -148t146 -415q0 -351 -228 -648t-585 -297q-243 0 -390 153.5t-147 414.5zM330 487q0 -192 87 -294.5t238 -102.5q255 0 415.5 282.5t160.5 604.5q0 191 -84.5 294t-237.5 103q-256 0 -417.5 -283.5t-161.5 -603.5zM678 1735 q0 129 110 129q103 0 103 -103q0 -129 -111 -129q-102 0 -102 103zM1067 1735q0 129 110 129q103 0 103 -103q0 -129 -111 -129q-102 0 -102 103z" />
<glyph unicode="&#xd7;" d="M145 395l340 340l-340 338l86 86l340 -340l340 342l86 -88l-340 -340l340 -340l-86 -86l-340 340l-340 -340z" />
<glyph unicode="&#xd8;" horiz-adv-x="1520" d="M106 545q0 352 230 646t590 294q165 0 291 -76l106 137h119l-150 -194q164 -152 164 -430q0 -351 -228 -648t-585 -297q-165 0 -289 74l-96 -133h-121l137 191q-168 156 -168 436zM330 487q0 -139 49 -237l751 1038q-84 86 -221 86q-256 0 -417.5 -283.5t-161.5 -603.5z M438 168q86 -78 217 -78q255 0 415.5 282.5t160.5 604.5q0 129 -43 227z" />
<glyph unicode="&#xd9;" horiz-adv-x="1495" d="M197 334q0 83 22 182l152 721q8 38 8 57q0 82 -148 82h-26l18 86h596l-16 -86h-27q-96 0 -140 -36.5t-61 -110.5l-153 -723q-25 -118 -25 -191q0 -213 295 -213q166 0 263 74t135 246l174 815q8 37 8 57q0 82 -148 82h-26l18 86h514l-16 -86h-27q-96 0 -140 -36.5 t-61 -110.5l-172 -811q-93 -438 -552 -438q-226 0 -345.5 92t-119.5 262zM717 1886l6 21h205q60 -155 137 -301l-6 -27h-78q-154 150 -264 307z" />
<glyph unicode="&#xda;" horiz-adv-x="1495" d="M197 334q0 83 22 182l152 721q8 38 8 57q0 82 -148 82h-26l18 86h596l-16 -86h-27q-96 0 -140 -36.5t-61 -110.5l-153 -723q-25 -118 -25 -191q0 -213 295 -213q166 0 263 74t135 246l174 815q8 37 8 57q0 82 -148 82h-26l18 86h514l-16 -86h-27q-96 0 -140 -36.5 t-61 -110.5l-172 -811q-93 -438 -552 -438q-226 0 -345.5 92t-119.5 262zM858 1579l6 27q117 135 219 301h219l-6 -21q-157 -183 -356 -307h-82z" />
<glyph unicode="&#xdb;" horiz-adv-x="1495" d="M197 334q0 83 22 182l152 721q8 38 8 57q0 82 -148 82h-26l18 86h596l-16 -86h-27q-96 0 -140 -36.5t-61 -110.5l-153 -723q-25 -118 -25 -191q0 -213 295 -213q166 0 263 74t135 246l174 815q8 37 8 57q0 82 -148 82h-26l18 86h514l-16 -86h-27q-96 0 -140 -36.5 t-61 -110.5l-172 -811q-93 -438 -552 -438q-226 0 -345.5 92t-119.5 262zM674 1579l6 27q186 183 270 301h195q29 -117 139 -301l-6 -27h-72q-95 65 -182 184q-150 -127 -262 -184h-88z" />
<glyph unicode="&#xdc;" horiz-adv-x="1495" d="M197 334q0 83 22 182l152 721q8 38 8 57q0 82 -148 82h-26l18 86h596l-16 -86h-27q-96 0 -140 -36.5t-61 -110.5l-153 -723q-25 -118 -25 -191q0 -213 295 -213q166 0 263 74t135 246l174 815q8 37 8 57q0 82 -148 82h-26l18 86h514l-16 -86h-27q-96 0 -140 -36.5 t-61 -110.5l-172 -811q-93 -438 -552 -438q-226 0 -345.5 92t-119.5 262zM672 1735q0 129 110 129q103 0 103 -103q0 -129 -111 -129q-102 0 -102 103zM1061 1735q0 129 110 129q103 0 103 -103q0 -129 -111 -129q-102 0 -102 103z" />
<glyph unicode="&#xdd;" horiz-adv-x="1280" d="M158 1376l18 86h553l-18 -86h-103q-84 0 -84 -55q0 -40 27 -119l92 -274q49 -146 55 -246q20 38 154 215l195 260q75 100 75 166q0 53 -98 53h-76l19 86h506l-19 -86h-39q-39 0 -77.5 -31.5t-108.5 -123.5l-477 -625l-80 -371q-8 -37 -8 -57q0 -82 147 -82h47l-18 -86 h-637l18 86h47q103 0 143 35.5t54 101.5l80 377l-238 668q-23 65 -45.5 86.5t-77.5 21.5h-26zM764 1579l6 27q117 135 219 301h219l-6 -21q-157 -183 -356 -307h-82z" />
<glyph unicode="&#xde;" horiz-adv-x="1237" d="M-41 0l18 86h27q96 0 139 37t58 110l213 1004q8 38 8 57q0 82 -148 82h-26l18 86h617l-19 -86h-47q-103 0 -144 -38.5t-55 -108.5l-4 -21h121q222 0 344.5 -103t122.5 -292q0 -233 -157.5 -365.5t-469.5 -132.5h-151l-18 -90q-9 -45 -9 -57q0 -82 148 -82h47l-19 -86 h-614zM444 412h109q432 0 432 399q0 299 -299 299h-94z" />
<glyph unicode="&#xdf;" horiz-adv-x="1284" d="M-279 -475l19 94q51 -14 94 -14q102 0 159 87.5t99 289.5l217 1019h-166l21 97h166l14 61q94 408 512 408q373 0 373 -314q0 -109 -29 -247h-176q-225 0 -225 -168q0 -70 44.5 -117t125.5 -94q192 -113 192 -308q0 -162 -101.5 -250.5t-293.5 -88.5q-145 0 -228 55.5 t-83 152.5q0 60 43.5 97t109.5 37q0 -244 172 -244q91 0 146 52.5t55 141.5q0 138 -156 230q-204 126 -204 293q0 307 407 307q23 103 23 170q0 203 -201 203q-243 0 -307 -287l-258 -1204q-54 -250 -156.5 -363t-288.5 -113q-58 0 -119 17z" />
<glyph unicode="&#xe0;" horiz-adv-x="1186" d="M88 354q0 282 175.5 523t434.5 241q139 0 240 -74l90 52h66l-140 -656q-30 -141 -30 -227q0 -104 67 -104q58 0 148 53l37 -60q-147 -122 -289 -122q-160 0 -160 170q0 65 21 159h-13q-147 -329 -383 -329q-125 0 -194.5 98.5t-69.5 275.5zM297 346q0 -237 129 -237 q102 0 214 151t148 330l76 362q-47 74 -155 74q-175 0 -293.5 -222.5t-118.5 -457.5zM441 1548l6 21h205q60 -155 137 -301l-6 -27h-78q-154 150 -264 307z" />
<glyph unicode="&#xe1;" horiz-adv-x="1186" d="M88 354q0 282 175.5 523t434.5 241q139 0 240 -74l90 52h66l-140 -656q-30 -141 -30 -227q0 -104 67 -104q58 0 148 53l37 -60q-147 -122 -289 -122q-160 0 -160 170q0 65 21 159h-13q-147 -329 -383 -329q-125 0 -194.5 98.5t-69.5 275.5zM297 346q0 -237 129 -237 q102 0 214 151t148 330l76 362q-47 74 -155 74q-175 0 -293.5 -222.5t-118.5 -457.5zM631 1241l6 27q117 135 219 301h219l-6 -21q-157 -183 -356 -307h-82z" />
<glyph unicode="&#xe2;" horiz-adv-x="1186" d="M88 354q0 282 175.5 523t434.5 241q139 0 240 -74l90 52h66l-140 -656q-30 -141 -30 -227q0 -104 67 -104q58 0 148 53l37 -60q-147 -122 -289 -122q-160 0 -160 170q0 65 21 159h-13q-147 -329 -383 -329q-125 0 -194.5 98.5t-69.5 275.5zM297 346q0 -237 129 -237 q102 0 214 151t148 330l76 362q-47 74 -155 74q-175 0 -293.5 -222.5t-118.5 -457.5zM404 1241l6 27q186 183 270 301h195q29 -117 139 -301l-6 -27h-72q-95 65 -182 184q-150 -127 -262 -184h-88z" />
<glyph unicode="&#xe3;" horiz-adv-x="1186" d="M88 354q0 282 175.5 523t434.5 241q139 0 240 -74l90 52h66l-140 -656q-30 -141 -30 -227q0 -104 67 -104q58 0 148 53l37 -60q-147 -122 -289 -122q-160 0 -160 170q0 65 21 159h-13q-147 -329 -383 -329q-125 0 -194.5 98.5t-69.5 275.5zM297 346q0 -237 129 -237 q102 0 214 151t148 330l76 362q-47 74 -155 74q-175 0 -293.5 -222.5t-118.5 -457.5zM341 1262q72 241 268 241q82 0 169 -64q87 -65 124 -65q89 0 123 109h92q-72 -242 -266 -242q-81 0 -169 65q-89 64 -126 64q-88 0 -123 -108h-92z" />
<glyph unicode="&#xe4;" horiz-adv-x="1186" d="M88 354q0 282 175.5 523t434.5 241q139 0 240 -74l90 52h66l-140 -656q-30 -141 -30 -227q0 -104 67 -104q58 0 148 53l37 -60q-147 -122 -289 -122q-160 0 -160 170q0 65 21 159h-13q-147 -329 -383 -329q-125 0 -194.5 98.5t-69.5 275.5zM297 346q0 -237 129 -237 q102 0 214 151t148 330l76 362q-47 74 -155 74q-175 0 -293.5 -222.5t-118.5 -457.5zM403 1397q0 129 110 129q103 0 103 -103q0 -129 -111 -129q-102 0 -102 103zM792 1397q0 129 110 129q103 0 103 -103q0 -129 -111 -129q-102 0 -102 103z" />
<glyph unicode="&#xe5;" horiz-adv-x="1186" d="M88 354q0 282 175.5 523t434.5 241q139 0 240 -74l90 52h66l-140 -656q-30 -141 -30 -227q0 -104 67 -104q58 0 148 53l37 -60q-147 -122 -289 -122q-160 0 -160 170q0 65 21 159h-13q-147 -329 -383 -329q-125 0 -194.5 98.5t-69.5 275.5zM297 346q0 -237 129 -237 q102 0 214 151t148 330l76 362q-47 74 -155 74q-175 0 -293.5 -222.5t-118.5 -457.5zM491 1444q0 104 69 163.5t177 59.5t177 -59.5t69 -163.5q0 -105 -69.5 -164t-176.5 -59t-176.5 59t-69.5 164zM602 1444q0 -123 135 -123t135 123t-135 123t-135 -123z" />
<glyph unicode="&#xe6;" horiz-adv-x="1665" d="M88 387q0 278 164.5 504.5t433.5 226.5q161 0 313 -127q153 127 355 127q130 0 201 -62t71 -173q0 -166 -172.5 -289t-421.5 -123h-35q-18 0 -36 2q-5 -25 -5 -86q0 -278 226 -278q171 0 295 147q20 -14 20 -51q0 -84 -96.5 -154.5t-257.5 -70.5q-141 0 -243 75t-136 219 q-116 -294 -367 -294q-140 0 -224.5 108t-84.5 299zM297 365q0 -122 45.5 -189t126.5 -67q102 0 177 99t104 267q38 233 155 418q-97 133 -209 133q-173 0 -286 -217t-113 -444zM979 567h20q181 0 298.5 88t117.5 228q0 137 -119 137q-100 0 -186.5 -127.5t-130.5 -325.5z " />
<glyph unicode="&#xe7;" horiz-adv-x="997" d="M88 403q0 268 173 491.5t437 223.5q141 0 220 -56t79 -140q0 -62 -49.5 -103t-132.5 -41q0 109 -42 175.5t-116 66.5q-143 0 -249.5 -214t-106.5 -419q0 -278 225 -278q179 0 295 147q21 -13 21 -51q0 -82 -96.5 -153.5t-258.5 -71.5q-179 0 -289 113t-110 310zM172 -469 l22 104q70 -16 137 -16q152 0 152 125q0 102 -131 115l78 159h96l-39 -88q74 -10 119 -58t45 -112q0 -119 -86.5 -185.5t-239.5 -66.5q-79 0 -153 23z" />
<glyph unicode="&#xe8;" horiz-adv-x="1010" d="M88 403q0 268 173 491.5t437 223.5q130 0 201.5 -62t71.5 -173q0 -166 -172.5 -289t-421.5 -123h-35q-18 0 -37 2q-4 -28 -4 -86q0 -278 225 -278q175 0 295 147q21 -13 21 -51q0 -82 -96.5 -153.5t-258.5 -71.5q-179 0 -289 113t-110 310zM324 567h20q181 0 298.5 88 t117.5 228q0 137 -119 137q-99 0 -185 -124.5t-132 -328.5zM457 1548l6 21h205q60 -155 137 -301l-6 -27h-78q-154 150 -264 307z" />
<glyph unicode="&#xe9;" horiz-adv-x="1010" d="M88 403q0 268 173 491.5t437 223.5q130 0 201.5 -62t71.5 -173q0 -166 -172.5 -289t-421.5 -123h-35q-18 0 -37 2q-4 -28 -4 -86q0 -278 225 -278q175 0 295 147q21 -13 21 -51q0 -82 -96.5 -153.5t-258.5 -71.5q-179 0 -289 113t-110 310zM324 567h20q181 0 298.5 88 t117.5 228q0 137 -119 137q-99 0 -185 -124.5t-132 -328.5zM608 1241l6 27q117 135 219 301h219l-6 -21q-157 -183 -356 -307h-82z" />
<glyph unicode="&#xea;" horiz-adv-x="1010" d="M88 403q0 268 173 491.5t437 223.5q130 0 201.5 -62t71.5 -173q0 -166 -172.5 -289t-421.5 -123h-35q-18 0 -37 2q-4 -28 -4 -86q0 -278 225 -278q175 0 295 147q21 -13 21 -51q0 -82 -96.5 -153.5t-258.5 -71.5q-179 0 -289 113t-110 310zM324 567h20q181 0 298.5 88 t117.5 228q0 137 -119 137q-99 0 -185 -124.5t-132 -328.5zM381 1241l6 27q186 183 270 301h195q29 -117 139 -301l-6 -27h-72q-95 65 -182 184q-150 -127 -262 -184h-88z" />
<glyph unicode="&#xeb;" horiz-adv-x="1010" d="M88 403q0 268 173 491.5t437 223.5q130 0 201.5 -62t71.5 -173q0 -166 -172.5 -289t-421.5 -123h-35q-18 0 -37 2q-4 -28 -4 -86q0 -278 225 -278q175 0 295 147q21 -13 21 -51q0 -82 -96.5 -153.5t-258.5 -71.5q-179 0 -289 113t-110 310zM324 567h20q181 0 298.5 88 t117.5 228q0 137 -119 137q-99 0 -185 -124.5t-132 -328.5zM407 1397q0 129 110 129q103 0 103 -103q0 -129 -111 -129q-102 0 -102 103zM796 1397q0 129 110 129q103 0 103 -103q0 -129 -111 -129q-102 0 -102 103z" />
<glyph unicode="&#xec;" horiz-adv-x="623" d="M127 1012l18 86h367l-139 -658q-31 -147 -31 -227q0 -104 68 -104q59 0 147 53l37 -60q-142 -122 -277 -122q-76 0 -123 55t-47 139q0 92 46 322l79 376q7 33 7 54q0 86 -125 86h-27zM191 1548l6 21h205q60 -155 137 -301l-6 -27h-78q-154 150 -264 307z" />
<glyph unicode="&#xed;" horiz-adv-x="623" d="M127 1012l18 86h367l-139 -658q-31 -147 -31 -227q0 -104 68 -104q59 0 147 53l37 -60q-142 -122 -277 -122q-76 0 -123 55t-47 139q0 92 46 322l79 376q7 33 7 54q0 86 -125 86h-27zM327 1241l6 27q117 135 219 301h219l-6 -21q-157 -183 -356 -307h-82z" />
<glyph unicode="&#xee;" horiz-adv-x="623" d="M73 1241l6 27q186 183 270 301h195q29 -117 139 -301l-6 -27h-72q-95 65 -182 184q-150 -127 -262 -184h-88zM127 1012l18 86h367l-139 -658q-31 -147 -31 -227q0 -104 68 -104q59 0 147 53l37 -60q-142 -122 -277 -122q-76 0 -123 55t-47 139q0 92 46 322l79 376 q7 33 7 54q0 86 -125 86h-27z" />
<glyph unicode="&#xef;" horiz-adv-x="623" d="M106 1397q0 129 110 129q103 0 103 -103q0 -129 -111 -129q-102 0 -102 103zM127 1012l18 86h367l-139 -658q-31 -147 -31 -227q0 -104 68 -104q59 0 147 53l37 -60q-142 -122 -277 -122q-76 0 -123 55t-47 139q0 92 46 322l79 376q7 33 7 54q0 86 -125 86h-27zM495 1397 q0 129 110 129q103 0 103 -103q0 -129 -111 -129q-102 0 -102 103z" />
<glyph unicode="&#xf0;" horiz-adv-x="1182" d="M88 369q0 254 168 461.5t442 207.5q109 0 179 -55q-45 185 -144 291l-293 -150l25 115l199 102q-89 68 -226 115l35 103q184 -47 324 -152l297 154l-27 -117l-201 -103q102 -101 161.5 -262t59.5 -338q0 -348 -161.5 -561t-444.5 -213q-180 0 -286.5 106.5t-106.5 295.5z M301 336q0 -268 203 -268q169 0 269.5 186.5t100.5 409.5q0 268 -200 268q-168 0 -270.5 -186.5t-102.5 -409.5z" />
<glyph unicode="&#xf1;" horiz-adv-x="1227" d="M90 0l172 823q12 57 12 92q0 97 -143 97h-16l18 86h379l-55 -258h20q166 276 373 276q219 0 219 -227q0 -65 -37 -225l-53 -242q-27 -123 -27 -215q0 -98 72 -98q59 0 131 47l37 -60q-134 -116 -250 -116q-85 0 -135.5 55t-50.5 149t39 277l47 212q30 124 30 191 q0 121 -94 121q-114 0 -233.5 -154t-153.5 -307l-110 -524h-191zM362 1262q72 241 268 241q82 0 169 -64q87 -65 124 -65q89 0 123 109h92q-72 -242 -266 -242q-81 0 -169 65q-89 64 -126 64q-88 0 -123 -108h-92z" />
<glyph unicode="&#xf2;" horiz-adv-x="1176" d="M88 403q0 276 168.5 495.5t441.5 219.5q181 0 285 -109t104 -315q0 -273 -167 -493.5t-439 -220.5q-185 0 -289 112t-104 311zM301 362q0 -282 203 -282q169 0 269.5 200.5t100.5 444.5q0 285 -200 285q-167 0 -270 -201t-103 -447zM470 1548l6 21h205q60 -155 137 -301 l-6 -27h-78q-154 150 -264 307z" />
<glyph unicode="&#xf3;" horiz-adv-x="1176" d="M88 403q0 276 168.5 495.5t441.5 219.5q181 0 285 -109t104 -315q0 -273 -167 -493.5t-439 -220.5q-185 0 -289 112t-104 311zM301 362q0 -282 203 -282q169 0 269.5 200.5t100.5 444.5q0 285 -200 285q-167 0 -270 -201t-103 -447zM623 1241l6 27q117 135 219 301h219 l-6 -21q-157 -183 -356 -307h-82z" />
<glyph unicode="&#xf4;" horiz-adv-x="1176" d="M88 403q0 276 168.5 495.5t441.5 219.5q181 0 285 -109t104 -315q0 -273 -167 -493.5t-439 -220.5q-185 0 -289 112t-104 311zM301 362q0 -282 203 -282q169 0 269.5 200.5t100.5 444.5q0 285 -200 285q-167 0 -270 -201t-103 -447zM393 1241l6 27q186 183 270 301h195 q29 -117 139 -301l-6 -27h-72q-95 65 -182 184q-150 -127 -262 -184h-88z" />
<glyph unicode="&#xf5;" horiz-adv-x="1176" d="M88 403q0 276 168.5 495.5t441.5 219.5q181 0 285 -109t104 -315q0 -273 -167 -493.5t-439 -220.5q-185 0 -289 112t-104 311zM301 362q0 -282 203 -282q169 0 269.5 200.5t100.5 444.5q0 285 -200 285q-167 0 -270 -201t-103 -447zM339 1262q72 241 268 241 q82 0 169 -64q87 -65 124 -65q89 0 123 109h92q-72 -242 -266 -242q-81 0 -169 65q-89 64 -126 64q-88 0 -123 -108h-92z" />
<glyph unicode="&#xf6;" horiz-adv-x="1176" d="M88 403q0 276 168.5 495.5t441.5 219.5q181 0 285 -109t104 -315q0 -273 -167 -493.5t-439 -220.5q-185 0 -289 112t-104 311zM301 362q0 -282 203 -282q169 0 269.5 200.5t100.5 444.5q0 285 -200 285q-167 0 -270 -201t-103 -447zM416 1397q0 129 110 129 q103 0 103 -103q0 -129 -111 -129q-102 0 -102 103zM805 1397q0 129 110 129q103 0 103 -103q0 -129 -111 -129q-102 0 -102 103z" />
<glyph unicode="&#xf7;" d="M150 672v121h878v-121h-878zM485 344q0 113 105 113q104 0 104 -113t-104 -113q-105 0 -105 113zM485 1120q0 113 105 113q104 0 104 -113q0 -112 -104 -112q-105 0 -105 112z" />
<glyph unicode="&#xf8;" horiz-adv-x="1182" d="M10 -82l162 195q-84 110 -84 290q0 276 168.5 495.5t441.5 219.5q149 0 244 -74l115 136h119l-166 -203q77 -106 77 -283q0 -275 -167 -497t-439 -222q-141 0 -243 72l-107 -129h-121zM301 362q0 -65 4 -88l533 644q-49 92 -164 92q-167 0 -270 -201t-103 -447zM338 168 q46 -92 166 -92q168 0 269 201.5t101 447.5q0 44 -6 84z" />
<glyph unicode="&#xf9;" horiz-adv-x="1227" d="M117 1012l18 86h381l-135 -613q-41 -186 -41 -247q0 -125 100 -125q105 0 226.5 151.5t158.5 323.5l107 510h198l-141 -658q-31 -145 -31 -227q0 -104 68 -104q58 0 131 45l37 -60q-130 -114 -260 -114q-77 0 -124.5 55t-47.5 139q0 53 10 121h-16q-111 -183 -198.5 -248 t-197.5 -65q-219 0 -219 227q0 65 37 225l80 359q18 81 18 122q0 97 -143 97h-16zM486 1548l6 21h205q60 -155 137 -301l-6 -27h-78q-154 150 -264 307z" />
<glyph unicode="&#xfa;" horiz-adv-x="1227" d="M117 1012l18 86h381l-135 -613q-41 -186 -41 -247q0 -125 100 -125q105 0 226.5 151.5t158.5 323.5l107 510h198l-141 -658q-31 -145 -31 -227q0 -104 68 -104q58 0 131 45l37 -60q-130 -114 -260 -114q-77 0 -124.5 55t-47.5 139q0 53 10 121h-16q-111 -183 -198.5 -248 t-197.5 -65q-219 0 -219 227q0 65 37 225l80 359q18 81 18 122q0 97 -143 97h-16zM641 1241l6 27q117 135 219 301h219l-6 -21q-157 -183 -356 -307h-82z" />
<glyph unicode="&#xfb;" horiz-adv-x="1227" d="M117 1012l18 86h381l-135 -613q-41 -186 -41 -247q0 -125 100 -125q105 0 226.5 151.5t158.5 323.5l107 510h198l-141 -658q-31 -145 -31 -227q0 -104 68 -104q58 0 131 45l37 -60q-130 -114 -260 -114q-77 0 -124.5 55t-47.5 139q0 53 10 121h-16q-111 -183 -198.5 -248 t-197.5 -65q-219 0 -219 227q0 65 37 225l80 359q18 81 18 122q0 97 -143 97h-16zM428 1241l6 27q186 183 270 301h195q29 -117 139 -301l-6 -27h-72q-95 65 -182 184q-150 -127 -262 -184h-88z" />
<glyph unicode="&#xfc;" horiz-adv-x="1227" d="M117 1012l18 86h381l-135 -613q-41 -186 -41 -247q0 -125 100 -125q105 0 226.5 151.5t158.5 323.5l107 510h198l-141 -658q-31 -145 -31 -227q0 -104 68 -104q58 0 131 45l37 -60q-130 -114 -260 -114q-77 0 -124.5 55t-47.5 139q0 53 10 121h-16q-111 -183 -198.5 -248 t-197.5 -65q-219 0 -219 227q0 65 37 225l80 359q18 81 18 122q0 97 -143 97h-16zM469 1397q0 129 110 129q103 0 103 -103q0 -129 -111 -129q-102 0 -102 103zM858 1397q0 129 110 129q103 0 103 -103q0 -129 -111 -129q-102 0 -102 103z" />
<glyph unicode="&#xfd;" horiz-adv-x="1081" d="M-332 -455l31 103q72 -23 160 -23q293 0 575 373l-270 905q-18 60 -49 84.5t-92 24.5h-21l16 86h299l160 -553q74 -257 86 -371h6q277 421 277 680q0 111 -101 111q0 69 40 110t94 41q139 0 139 -172q0 -247 -276 -694.5t-442.5 -594.5t-438.5 -147q-108 0 -193 37z M529 1241l6 27q117 135 219 301h219l-6 -21q-157 -183 -356 -307h-82z" />
<glyph unicode="&#xfe;" horiz-adv-x="1151" d="M-49 -492l373 1758q18 85 18 108q0 96 -143 96h-17l19 86h377l-105 -491q-17 -79 -61 -240h12q148 293 375 293q125 0 194.5 -95t69.5 -275q0 -275 -173 -521.5t-439 -246.5q-120 0 -203 47q-9 -78 -15 -99l-31 -151q-14 -58 -14 -94q0 -89 144 -89h26l-18 -86h-389z M281 145q65 -73 163 -73q171 0 290.5 223t119.5 455q0 113 -35.5 176t-97.5 63q-107 0 -216 -150.5t-140 -303.5z" />
<glyph unicode="&#xff;" horiz-adv-x="1081" d="M-332 -455l31 103q72 -23 160 -23q293 0 575 373l-270 905q-18 60 -49 84.5t-92 24.5h-21l16 86h299l160 -553q74 -257 86 -371h6q277 421 277 680q0 111 -101 111q0 69 40 110t94 41q139 0 139 -172q0 -247 -276 -694.5t-442.5 -594.5t-438.5 -147q-108 0 -193 37z M311 1397q0 129 110 129q103 0 103 -103q0 -129 -111 -129q-102 0 -102 103zM700 1397q0 129 110 129q103 0 103 -103q0 -129 -111 -129q-102 0 -102 103z" />
<glyph unicode="&#x100;" horiz-adv-x="1444" d="M-115 0l17 86h39q55 0 92 28.5t98 131.5l713 1216h160l194 -1267q10 -64 35 -86.5t86 -22.5h27l-17 -86h-557l16 86h48q147 0 147 104q0 42 -4 70l-33 229h-538l-123 -215q-39 -68 -39 -114q0 -74 114 -74h48l-17 -86h-506zM469 592h463l-51 358q-31 218 -33 324 q-47 -111 -160 -305zM637 1579l26 121h594l-27 -121h-593z" />
<glyph unicode="&#x101;" horiz-adv-x="1186" d="M88 354q0 282 175.5 523t434.5 241q139 0 240 -74l90 52h66l-140 -656q-30 -141 -30 -227q0 -104 67 -104q58 0 148 53l37 -60q-147 -122 -289 -122q-160 0 -160 170q0 65 21 159h-13q-147 -329 -383 -329q-125 0 -194.5 98.5t-69.5 275.5zM297 346q0 -237 129 -237 q102 0 214 151t148 330l76 362q-47 74 -155 74q-175 0 -293.5 -222.5t-118.5 -457.5zM431 1241l26 121h594l-27 -121h-593z" />
<glyph unicode="&#x102;" horiz-adv-x="1444" d="M-115 0l17 86h39q55 0 92 28.5t98 131.5l713 1216h160l194 -1267q10 -64 35 -86.5t86 -22.5h27l-17 -86h-557l16 86h48q147 0 147 104q0 42 -4 70l-33 229h-538l-123 -215q-39 -68 -39 -114q0 -74 114 -74h48l-17 -86h-506zM469 592h463l-51 358q-31 218 -33 324 q-47 -111 -160 -305zM677 1860h95q16 -140 178 -140q163 0 221 140h94q-33 -132 -121.5 -206.5t-208.5 -74.5q-241 0 -258 281z" />
<glyph unicode="&#x103;" horiz-adv-x="1186" d="M88 354q0 282 175.5 523t434.5 241q139 0 240 -74l90 52h66l-140 -656q-30 -141 -30 -227q0 -104 67 -104q58 0 148 53l37 -60q-147 -122 -289 -122q-160 0 -160 170q0 65 21 159h-13q-147 -329 -383 -329q-125 0 -194.5 98.5t-69.5 275.5zM297 346q0 -237 129 -237 q102 0 214 151t148 330l76 362q-47 74 -155 74q-175 0 -293.5 -222.5t-118.5 -457.5zM485 1522h95q16 -140 178 -140q163 0 221 140h94q-33 -132 -121.5 -206.5t-208.5 -74.5q-241 0 -258 281z" />
<glyph unicode="&#x104;" horiz-adv-x="1444" d="M-115 0l17 86h39q55 0 92 28.5t98 131.5l713 1216h160l194 -1267q10 -64 35 -86.5t86 -22.5h27l-17 -86h-557l16 86h48q147 0 147 104q0 42 -4 70l-33 229h-538l-123 -215q-39 -68 -39 -114q0 -74 114 -74h48l-17 -86h-506zM469 592h463l-51 358q-31 218 -33 324 q-47 -111 -160 -305zM834 -283q0 102 79.5 176t225.5 107h117q-109 -36 -176.5 -104t-67.5 -150q0 -51 32 -81t85 -30q52 0 133 17l-25 -111q-78 -33 -163 -33q-240 0 -240 209z" />
<glyph unicode="&#x105;" horiz-adv-x="1186" d="M88 354q0 282 175.5 523t434.5 241q139 0 240 -74l90 52h66l-140 -656q-30 -141 -30 -227q0 -104 67 -104q58 0 148 53l37 -60q-147 -122 -289 -122q-160 0 -160 170q0 65 21 159h-13q-147 -329 -383 -329q-125 0 -194.5 98.5t-69.5 275.5zM297 346q0 -237 129 -237 q102 0 214 151t148 330l76 362q-47 74 -155 74q-175 0 -293.5 -222.5t-118.5 -457.5zM559 -283q0 102 79.5 176t225.5 107h117q-109 -36 -176.5 -104t-67.5 -150q0 -51 32 -81t85 -30q52 0 133 17l-25 -111q-78 -33 -163 -33q-240 0 -240 209z" />
<glyph unicode="&#x106;" horiz-adv-x="1284" d="M106 528q0 388 242 671.5t602 283.5q179 0 279 -61.5t100 -166.5q0 -73 -55 -116t-146 -43q0 278 -204 278q-253 0 -423.5 -275.5t-170.5 -602.5q0 -383 364 -383q237 0 379 186q27 -19 27 -68q0 -98 -114 -174.5t-314 -76.5q-267 0 -416.5 143t-149.5 405zM895 1579 l6 27q117 135 219 301h219l-6 -21q-157 -183 -356 -307h-82z" />
<glyph unicode="&#x107;" horiz-adv-x="997" d="M88 403q0 268 173 491.5t437 223.5q141 0 220 -56t79 -140q0 -62 -49.5 -103t-132.5 -41q0 109 -42 175.5t-116 66.5q-143 0 -249.5 -214t-106.5 -419q0 -278 225 -278q179 0 295 147q21 -13 21 -51q0 -82 -96.5 -153.5t-258.5 -71.5q-179 0 -289 113t-110 310zM631 1241 l6 27q117 135 219 301h219l-6 -21q-157 -183 -356 -307h-82z" />
<glyph unicode="&#x108;" horiz-adv-x="1284" d="M106 528q0 388 242 671.5t602 283.5q179 0 279 -61.5t100 -166.5q0 -73 -55 -116t-146 -43q0 278 -204 278q-253 0 -423.5 -275.5t-170.5 -602.5q0 -383 364 -383q237 0 379 186q27 -19 27 -68q0 -98 -114 -174.5t-314 -76.5q-267 0 -416.5 143t-149.5 405zM664 1579 l6 27q186 183 270 301h195q29 -117 139 -301l-6 -27h-72q-95 65 -182 184q-150 -127 -262 -184h-88z" />
<glyph unicode="&#x109;" horiz-adv-x="997" d="M88 403q0 268 173 491.5t437 223.5q141 0 220 -56t79 -140q0 -62 -49.5 -103t-132.5 -41q0 109 -42 175.5t-116 66.5q-143 0 -249.5 -214t-106.5 -419q0 -278 225 -278q179 0 295 147q21 -13 21 -51q0 -82 -96.5 -153.5t-258.5 -71.5q-179 0 -289 113t-110 310zM426 1241 l6 27q186 183 270 301h195q29 -117 139 -301l-6 -27h-72q-95 65 -182 184q-150 -127 -262 -184h-88z" />
<glyph unicode="&#x10a;" horiz-adv-x="1284" d="M106 528q0 388 242 671.5t602 283.5q179 0 279 -61.5t100 -166.5q0 -73 -55 -116t-146 -43q0 278 -204 278q-253 0 -423.5 -275.5t-170.5 -602.5q0 -383 364 -383q237 0 379 186q27 -19 27 -68q0 -98 -114 -174.5t-314 -76.5q-267 0 -416.5 143t-149.5 405zM915 1753 q0 65 33.5 104.5t89.5 39.5q115 0 115 -113q0 -70 -34.5 -106.5t-88.5 -36.5q-115 0 -115 112z" />
<glyph unicode="&#x10b;" horiz-adv-x="997" d="M88 403q0 268 173 491.5t437 223.5q141 0 220 -56t79 -140q0 -62 -49.5 -103t-132.5 -41q0 109 -42 175.5t-116 66.5q-143 0 -249.5 -214t-106.5 -419q0 -278 225 -278q179 0 295 147q21 -13 21 -51q0 -82 -96.5 -153.5t-258.5 -71.5q-179 0 -289 113t-110 310zM647 1415 q0 65 33.5 104.5t89.5 39.5q115 0 115 -113q0 -70 -34.5 -106.5t-88.5 -36.5q-115 0 -115 112z" />
<glyph unicode="&#x10c;" horiz-adv-x="1284" d="M106 528q0 388 242 671.5t602 283.5q179 0 279 -61.5t100 -166.5q0 -73 -55 -116t-146 -43q0 278 -204 278q-253 0 -423.5 -275.5t-170.5 -602.5q0 -383 364 -383q237 0 379 186q27 -19 27 -68q0 -98 -114 -174.5t-314 -76.5q-267 0 -416.5 143t-149.5 405zM757 1880 l6 27h74q95 -75 174 -187q129 110 271 187h86l-7 -27q-153 -150 -270 -301h-194q-50 152 -140 301z" />
<glyph unicode="&#x10d;" horiz-adv-x="997" d="M88 403q0 268 173 491.5t437 223.5q141 0 220 -56t79 -140q0 -62 -49.5 -103t-132.5 -41q0 109 -42 175.5t-116 66.5q-143 0 -249.5 -214t-106.5 -419q0 -278 225 -278q179 0 295 147q21 -13 21 -51q0 -82 -96.5 -153.5t-258.5 -71.5q-179 0 -289 113t-110 310zM466 1542 l6 27h74q95 -75 174 -187q129 110 271 187h86l-7 -27q-153 -150 -270 -301h-194q-50 152 -140 301z" />
<glyph unicode="&#x10e;" horiz-adv-x="1485" d="M-43 0l16 86h27q170 0 201 147l213 1004q8 38 8 57q0 82 -148 82h-26l18 86h574q279 0 430 -144.5t151 -412.5q0 -392 -223 -648.5t-596 -256.5h-645zM379 104h178q296 0 468.5 227t172.5 597q0 432 -389 432h-162zM612 1880l6 27h74q95 -75 174 -187q129 110 271 187h86 l-7 -27q-153 -150 -270 -301h-194q-50 152 -140 301z" />
<glyph unicode="&#x10f;" horiz-adv-x="1186" d="M88 354q0 282 175.5 523t434.5 241q115 0 201 -49q16 94 23 115l20 98q14 69 14 92q0 96 -143 96h-16l18 86h377l-238 -1116q-30 -141 -30 -227q0 -104 67 -104q58 0 148 53l37 -60q-147 -122 -289 -122q-160 0 -160 170q0 65 21 159h-13q-147 -329 -383 -329 q-125 0 -194.5 98.5t-69.5 275.5zM297 346q0 -237 129 -237q102 0 214 151t148 330l76 362q-47 74 -155 74q-175 0 -293.5 -222.5t-118.5 -457.5zM1215 1229l4 26l121 301h178l-4 -20q-92 -146 -230 -307h-69z" />
<glyph unicode="&#x110;" horiz-adv-x="1530" d="M-43 0l16 86h27q170 0 201 147l102 482h-199l23 100h197l90 422q8 38 8 57q0 82 -148 82h-26l18 86h615q279 0 430 -144.5t151 -412.5q0 -392 -223 -648.5t-596 -256.5h-686zM379 104h219q294 0 467.5 226t173.5 598q0 432 -389 432h-203l-117 -545h388l-23 -100h-387z " />
<glyph unicode="&#x111;" horiz-adv-x="1182" d="M88 373q0 265 162 484.5t426 219.5q102 0 192 -47q3 17 8 37l8 40q6 30 15 69l8 38h-350l18 97h353l4 20q5 24 5 43q0 96 -144 96h-17l19 86h376l-53 -245h187l-19 -97h-188l-164 -774q-31 -146 -31 -227q0 -104 68 -104q66 0 147 53l37 -60q-142 -122 -276 -122 q-146 0 -156 210h-10q-79 -130 -149 -170t-167 -40q-142 0 -225.5 105.5t-83.5 287.5zM297 352q0 -243 172 -243q101 0 172 86.5t98 220.5l103 504q-57 65 -156 65q-168 0 -278.5 -210.5t-110.5 -422.5z" />
<glyph unicode="&#x112;" horiz-adv-x="1276" d="M-43 0l16 86h27q104 0 144.5 36.5t54.5 100.5l213 1006q6 28 6 49q0 48 -28 73t-116 25h-26l18 86h1032l-65 -358h-107l6 63q5 48 5 56q0 137 -146 137h-344l-117 -545h494l-20 -100h-494l-131 -613h395q173 0 232 168l32 88h107l-90 -358h-1098zM539 1579l26 121h594 l-27 -121h-593z" />
<glyph unicode="&#x113;" horiz-adv-x="1010" d="M88 403q0 268 173 491.5t437 223.5q130 0 201.5 -62t71.5 -173q0 -166 -172.5 -289t-421.5 -123h-35q-18 0 -37 2q-4 -28 -4 -86q0 -278 225 -278q175 0 295 147q21 -13 21 -51q0 -82 -96.5 -153.5t-258.5 -71.5q-179 0 -289 113t-110 310zM324 567h20q181 0 298.5 88 t117.5 228q0 137 -119 137q-99 0 -185 -124.5t-132 -328.5zM412 1241l26 121h594l-27 -121h-593z" />
<glyph unicode="&#x114;" horiz-adv-x="1276" d="M-43 0l16 86h27q104 0 144.5 36.5t54.5 100.5l213 1006q6 28 6 49q0 48 -28 73t-116 25h-26l18 86h1032l-65 -358h-107l6 63q5 48 5 56q0 137 -146 137h-344l-117 -545h494l-20 -100h-494l-131 -613h395q173 0 232 168l32 88h107l-90 -358h-1098zM565 1860h95 q16 -140 178 -140q163 0 221 140h94q-33 -132 -121.5 -206.5t-208.5 -74.5q-241 0 -258 281z" />
<glyph unicode="&#x115;" horiz-adv-x="1010" d="M88 403q0 268 173 491.5t437 223.5q130 0 201.5 -62t71.5 -173q0 -166 -172.5 -289t-421.5 -123h-35q-18 0 -37 2q-4 -28 -4 -86q0 -278 225 -278q175 0 295 147q21 -13 21 -51q0 -82 -96.5 -153.5t-258.5 -71.5q-179 0 -289 113t-110 310zM324 567h20q181 0 298.5 88 t117.5 228q0 137 -119 137q-99 0 -185 -124.5t-132 -328.5zM434 1522h95q16 -140 178 -140q163 0 221 140h94q-33 -132 -121.5 -206.5t-208.5 -74.5q-241 0 -258 281z" />
<glyph unicode="&#x116;" horiz-adv-x="1276" d="M-43 0l16 86h27q104 0 144.5 36.5t54.5 100.5l213 1006q6 28 6 49q0 48 -28 73t-116 25h-26l18 86h1032l-65 -358h-107l6 63q5 48 5 56q0 137 -146 137h-344l-117 -545h494l-20 -100h-494l-131 -613h395q173 0 232 168l32 88h107l-90 -358h-1098zM727 1724 q0 65 33.5 104.5t89.5 39.5q115 0 115 -113q0 -70 -34.5 -106.5t-88.5 -36.5q-115 0 -115 112z" />
<glyph unicode="&#x117;" horiz-adv-x="1010" d="M88 403q0 268 173 491.5t437 223.5q130 0 201.5 -62t71.5 -173q0 -166 -172.5 -289t-421.5 -123h-35q-18 0 -37 2q-4 -28 -4 -86q0 -278 225 -278q175 0 295 147q21 -13 21 -51q0 -82 -96.5 -153.5t-258.5 -71.5q-179 0 -289 113t-110 310zM324 567h20q181 0 298.5 88 t117.5 228q0 137 -119 137q-99 0 -185 -124.5t-132 -328.5zM608 1415q0 65 33.5 104.5t89.5 39.5q115 0 115 -113q0 -70 -34.5 -106.5t-88.5 -36.5q-115 0 -115 112z" />
<glyph unicode="&#x118;" horiz-adv-x="1276" d="M-43 0l16 86h27q104 0 144.5 36.5t54.5 100.5l213 1006q6 28 6 49q0 48 -28 73t-116 25h-26l18 86h1032l-65 -358h-107l6 63q5 48 5 56q0 137 -146 137h-344l-117 -545h494l-20 -100h-494l-131 -613h395q173 0 232 168l32 88h107l-90 -358h-1098zM530 -283 q0 102 79.5 176t225.5 107h117q-109 -36 -176.5 -104t-67.5 -150q0 -51 32 -81t85 -30q52 0 133 17l-25 -111q-78 -33 -163 -33q-240 0 -240 209z" />
<glyph unicode="&#x119;" horiz-adv-x="1010" d="M88 403q0 268 173 491.5t437 223.5q130 0 201.5 -62t71.5 -173q0 -166 -172.5 -289t-421.5 -123h-35q-18 0 -37 2q-4 -28 -4 -86q0 -278 225 -278q175 0 295 147q21 -13 21 -51q0 -82 -96.5 -153.5t-258.5 -71.5q-179 0 -289 113t-110 310zM290 -252q0 102 79.5 176 t225.5 107h117q-109 -36 -176.5 -104t-67.5 -150q0 -51 32 -81t85 -30q52 0 133 17l-25 -111q-78 -33 -163 -33q-240 0 -240 209zM324 567h20q181 0 298.5 88t117.5 228q0 137 -119 137q-99 0 -185 -124.5t-132 -328.5z" />
<glyph unicode="&#x11a;" horiz-adv-x="1276" d="M-43 0l16 86h27q104 0 144.5 36.5t54.5 100.5l213 1006q6 28 6 49q0 48 -28 73t-116 25h-26l18 86h1032l-65 -358h-107l6 63q5 48 5 56q0 137 -146 137h-344l-117 -545h494l-20 -100h-494l-131 -613h395q173 0 232 168l32 88h107l-90 -358h-1098zM571 1880l6 27h74 q95 -75 174 -187q129 110 271 187h86l-7 -27q-153 -150 -270 -301h-194q-50 152 -140 301z" />
<glyph unicode="&#x11b;" horiz-adv-x="1010" d="M88 403q0 268 173 491.5t437 223.5q130 0 201.5 -62t71.5 -173q0 -166 -172.5 -289t-421.5 -123h-35q-18 0 -37 2q-4 -28 -4 -86q0 -278 225 -278q175 0 295 147q21 -13 21 -51q0 -82 -96.5 -153.5t-258.5 -71.5q-179 0 -289 113t-110 310zM324 567h20q181 0 298.5 88 t117.5 228q0 137 -119 137q-99 0 -185 -124.5t-132 -328.5zM474 1542l6 27h74q95 -75 174 -187q129 110 271 187h86l-7 -27q-153 -150 -270 -301h-194q-50 152 -140 301z" />
<glyph unicode="&#x11c;" horiz-adv-x="1462" d="M106 528q0 407 250 681t631 274q204 0 318 -62t114 -159q0 -76 -61 -119t-156 -43q0 132 -67 203t-191 71q-253 0 -433.5 -261.5t-180.5 -616.5q0 -400 395 -400q115 0 231 29l68 326q8 38 8 57q0 82 -147 82h-19l19 86h545l-19 -86h-8q-82 0 -120 -36.5t-54 -111.5 l-78 -368q-217 -94 -463 -94q-280 0 -431 143.5t-151 404.5zM664 1579l6 27q186 183 270 301h195q29 -117 139 -301l-6 -27h-72q-95 65 -182 184q-150 -127 -262 -184h-88z" />
<glyph unicode="&#x11d;" horiz-adv-x="1139" d="M-72 -225q0 110 89.5 187.5t244.5 107.5q-98 48 -98 141q0 63 40.5 107t153.5 102q-143 67 -143 242q0 173 130.5 314.5t344.5 141.5q131 0 211 -65q97 145 221 145q103 0 103 -94q0 -127 -121 -127q0 74 -57 74q-40 0 -101 -47q45 -64 45 -158q0 -172 -129 -315.5 t-340 -143.5q-47 0 -65 4q-146 -59 -146 -129q0 -51 105 -61l196 -21q318 -34 318 -268q0 -191 -144 -297.5t-411 -106.5q-447 0 -447 267zM94 -213q0 -178 289 -178q180 0 274.5 66.5t94.5 179.5q0 134 -191 151l-199 19q-15 1 -88.5 -20t-126.5 -78t-53 -140zM379 1241 l6 27q186 183 270 301h195q29 -117 139 -301l-6 -27h-72q-95 65 -182 184q-150 -127 -262 -184h-88zM403 653q0 -168 142 -168q117 0 188.5 116.5t71.5 254.5q0 168 -141 168q-120 0 -190.5 -117.5t-70.5 -253.5z" />
<glyph unicode="&#x11e;" horiz-adv-x="1462" d="M106 528q0 407 250 681t631 274q204 0 318 -62t114 -159q0 -76 -61 -119t-156 -43q0 132 -67 203t-191 71q-253 0 -433.5 -261.5t-180.5 -616.5q0 -400 395 -400q115 0 231 29l68 326q8 38 8 57q0 82 -147 82h-19l19 86h545l-19 -86h-8q-82 0 -120 -36.5t-54 -111.5 l-78 -368q-217 -94 -463 -94q-280 0 -431 143.5t-151 404.5zM702 1860h95q16 -140 178 -140q163 0 221 140h94q-33 -132 -121.5 -206.5t-208.5 -74.5q-241 0 -258 281z" />
<glyph unicode="&#x11f;" horiz-adv-x="1139" d="M-72 -225q0 110 89.5 187.5t244.5 107.5q-98 48 -98 141q0 63 40.5 107t153.5 102q-143 67 -143 242q0 173 130.5 314.5t344.5 141.5q131 0 211 -65q97 145 221 145q103 0 103 -94q0 -127 -121 -127q0 74 -57 74q-40 0 -101 -47q45 -64 45 -158q0 -172 -129 -315.5 t-340 -143.5q-47 0 -65 4q-146 -59 -146 -129q0 -51 105 -61l196 -21q318 -34 318 -268q0 -191 -144 -297.5t-411 -106.5q-447 0 -447 267zM94 -213q0 -178 289 -178q180 0 274.5 66.5t94.5 179.5q0 134 -191 151l-199 19q-15 1 -88.5 -20t-126.5 -78t-53 -140zM403 653 q0 -168 142 -168q117 0 188.5 116.5t71.5 254.5q0 168 -141 168q-120 0 -190.5 -117.5t-70.5 -253.5zM450 1522h95q16 -140 178 -140q163 0 221 140h94q-33 -132 -121.5 -206.5t-208.5 -74.5q-241 0 -258 281z" />
<glyph unicode="&#x120;" horiz-adv-x="1462" d="M106 528q0 407 250 681t631 274q204 0 318 -62t114 -159q0 -76 -61 -119t-156 -43q0 132 -67 203t-191 71q-253 0 -433.5 -261.5t-180.5 -616.5q0 -400 395 -400q115 0 231 29l68 326q8 38 8 57q0 82 -147 82h-19l19 86h545l-19 -86h-8q-82 0 -120 -36.5t-54 -111.5 l-78 -368q-217 -94 -463 -94q-280 0 -431 143.5t-151 404.5zM911 1753q0 65 33.5 104.5t89.5 39.5q115 0 115 -113q0 -70 -34.5 -106.5t-88.5 -36.5q-115 0 -115 112z" />
<glyph unicode="&#x121;" horiz-adv-x="1139" d="M-72 -225q0 110 89.5 187.5t244.5 107.5q-98 48 -98 141q0 63 40.5 107t153.5 102q-143 67 -143 242q0 173 130.5 314.5t344.5 141.5q131 0 211 -65q97 145 221 145q103 0 103 -94q0 -127 -121 -127q0 74 -57 74q-40 0 -101 -47q45 -64 45 -158q0 -172 -129 -315.5 t-340 -143.5q-47 0 -65 4q-146 -59 -146 -129q0 -51 105 -61l196 -21q318 -34 318 -268q0 -191 -144 -297.5t-411 -106.5q-447 0 -447 267zM94 -213q0 -178 289 -178q180 0 274.5 66.5t94.5 179.5q0 134 -191 151l-199 19q-15 1 -88.5 -20t-126.5 -78t-53 -140zM403 653 q0 -168 142 -168q117 0 188.5 116.5t71.5 254.5q0 168 -141 168q-120 0 -190.5 -117.5t-70.5 -253.5zM633 1415q0 65 33.5 104.5t89.5 39.5q115 0 115 -113q0 -70 -34.5 -106.5t-88.5 -36.5q-115 0 -115 112z" />
<glyph unicode="&#x122;" horiz-adv-x="1462" d="M106 528q0 407 250 681t631 274q204 0 318 -62t114 -159q0 -76 -61 -119t-156 -43q0 132 -67 203t-191 71q-253 0 -433.5 -261.5t-180.5 -616.5q0 -400 395 -400q115 0 231 29l68 326q8 38 8 57q0 82 -147 82h-19l19 86h545l-19 -86h-8q-82 0 -120 -36.5t-54 -111.5 l-78 -368q-217 -94 -463 -94q-280 0 -431 143.5t-151 404.5zM473 -453l4 27l42 97q42 100 79 204h178l-4 -20q-106 -166 -229 -308h-70z" />
<glyph unicode="&#x123;" horiz-adv-x="1139" d="M-72 -225q0 110 89.5 187.5t244.5 107.5q-98 48 -98 141q0 63 40.5 107t153.5 102q-143 67 -143 242q0 173 130.5 314.5t344.5 141.5q131 0 211 -65q97 145 221 145q103 0 103 -94q0 -127 -121 -127q0 74 -57 74q-40 0 -101 -47q45 -64 45 -158q0 -172 -129 -315.5 t-340 -143.5q-47 0 -65 4q-146 -59 -146 -129q0 -51 105 -61l196 -21q318 -34 318 -268q0 -191 -144 -297.5t-411 -106.5q-447 0 -447 267zM94 -213q0 -178 289 -178q180 0 274.5 66.5t94.5 179.5q0 134 -191 151l-199 19q-15 1 -88.5 -20t-126.5 -78t-53 -140zM403 653 q0 -168 142 -168q117 0 188.5 116.5t71.5 254.5q0 168 -141 168q-120 0 -190.5 -117.5t-70.5 -253.5zM624 1241l4 21q92 146 230 307h69l-4 -27l-42 -97q-42 -100 -79 -204h-178z" />
<glyph unicode="&#x124;" horiz-adv-x="1624" d="M-43 0l16 86h27q99 0 142 37.5t59 109.5l213 1004q8 38 8 57q0 82 -148 82h-26l18 86h596l-18 -86h-27q-98 0 -141 -37t-58 -110l-88 -414h666l90 422q8 38 8 57q0 82 -147 82h-27l19 86h596l-19 -86h-26q-98 0 -141 -37.5t-58 -109.5l-213 -1004q-8 -38 -8 -57 q0 -82 147 -82h27l-19 -86h-596l17 86h26q98 0 142 36.5t59 110.5l101 480h-666l-102 -488q-9 -43 -9 -57q0 -82 148 -82h26l-18 -86h-596zM733 1579l6 27q186 183 270 301h195q29 -117 139 -301l-6 -27h-72q-95 65 -182 184q-150 -127 -262 -184h-88z" />
<glyph unicode="&#x125;" horiz-adv-x="1227" d="M90 0l266 1266q19 90 19 108q0 96 -144 96h-16l18 86h377l-80 -376q-36 -168 -81 -340h22q170 276 379 276q219 0 219 -227q0 -65 -37 -225l-53 -242q-27 -123 -27 -215q0 -98 72 -98q59 0 131 47l37 -60q-134 -116 -250 -116q-85 0 -135.5 55t-50.5 149t39 277l47 212 q30 124 30 191q0 121 -94 121q-114 0 -234.5 -155.5t-152.5 -305.5l-110 -524h-191zM508 1634l6 27q186 183 270 301h195q29 -117 139 -301l-6 -27h-72q-95 65 -182 184q-150 -127 -262 -184h-88z" />
<glyph unicode="&#x126;" horiz-adv-x="1624" d="M-43 0l16 86h27q99 0 142 37.5t59 109.5l166 789h-193l19 100h196l25 115q8 37 8 57q0 82 -148 82h-26l18 86h596l-18 -86h-27q-98 0 -141 -37t-58 -110l-22 -107h666l24 115q8 38 8 57q0 82 -147 82h-27l19 86h596l-19 -86h-26q-98 0 -141 -37.5t-58 -109.5l-23 -107 h193l-19 -100h-196l-168 -797q-8 -38 -8 -57q0 -82 147 -82h27l-19 -86h-596l17 86h26q97 0 140.5 36t60.5 111l101 480h-666l-102 -488q-9 -43 -9 -57q0 -82 148 -82h26l-18 -86h-596zM530 815h666l43 207h-666z" />
<glyph unicode="&#x127;" horiz-adv-x="1227" d="M90 0l254 1214h-184l18 97h187q10 46 10 63q0 96 -144 96h-16l18 86h377l-53 -245h350l-18 -97h-352l-7 -34q-51 -248 -90 -381h23q165 276 379 276q219 0 219 -227q0 -56 -25 -170q-7 -29 -12 -55l-45 -201q-27 -121 -27 -215q0 -98 72 -98q59 0 131 47l37 -60 q-134 -116 -250 -116q-85 0 -135.5 55t-50.5 149t39 277l39 171q30 124 30 191q0 121 -94 121q-114 0 -234.5 -155.5t-152.5 -305.5l-102 -483h-191z" />
<glyph unicode="&#x128;" horiz-adv-x="752" d="M-43 0l16 86h27q170 0 201 147l213 1004q8 38 8 57q0 82 -148 82h-26l18 86h596l-18 -86h-27q-98 0 -141 -37t-58 -110l-212 -1004q-9 -43 -9 -57q0 -82 148 -82h26l-18 -86h-596zM222 1600q72 241 268 241q82 0 169 -64q87 -65 124 -65q89 0 123 109h92 q-72 -242 -266 -242q-81 0 -169 65q-89 64 -126 64q-88 0 -123 -108h-92z" />
<glyph unicode="&#x129;" horiz-adv-x="623" d="M34 1262q72 241 268 241q82 0 169 -64q87 -65 124 -65q89 0 123 109h92q-72 -242 -266 -242q-81 0 -169 65q-89 64 -126 64q-88 0 -123 -108h-92zM127 1012l18 86h367l-139 -658q-31 -147 -31 -227q0 -104 68 -104q59 0 147 53l37 -60q-142 -122 -277 -122q-76 0 -123 55 t-47 139q0 92 46 322l79 376q7 33 7 54q0 86 -125 86h-27z" />
<glyph unicode="&#x12a;" horiz-adv-x="752" d="M-43 0l16 86h27q170 0 201 147l213 1004q8 38 8 57q0 82 -148 82h-26l18 86h596l-18 -86h-27q-98 0 -141 -37t-58 -110l-212 -1004q-9 -43 -9 -57q0 -82 148 -82h26l-18 -86h-596zM286 1579l26 121h594l-27 -121h-593z" />
<glyph unicode="&#x12b;" horiz-adv-x="623" d="M114 1241l26 121h594l-27 -121h-593zM127 1012l18 86h367l-139 -658q-31 -147 -31 -227q0 -104 68 -104q59 0 147 53l37 -60q-142 -122 -277 -122q-76 0 -123 55t-47 139q0 92 46 322l79 376q7 33 7 54q0 86 -125 86h-27z" />
<glyph unicode="&#x12c;" horiz-adv-x="752" d="M-43 0l16 86h27q170 0 201 147l213 1004q8 38 8 57q0 82 -148 82h-26l18 86h596l-18 -86h-27q-98 0 -141 -37t-58 -110l-212 -1004q-9 -43 -9 -57q0 -82 148 -82h26l-18 -86h-596zM319 1860h95q16 -140 178 -140q163 0 221 140h94q-33 -132 -121.5 -206.5t-208.5 -74.5 q-241 0 -258 281z" />
<glyph unicode="&#x12d;" horiz-adv-x="623" d="M127 1012l18 86h367l-139 -658q-31 -147 -31 -227q0 -104 68 -104q59 0 147 53l37 -60q-142 -122 -277 -122q-76 0 -123 55t-47 139q0 92 46 322l79 376q7 33 7 54q0 86 -125 86h-27zM146 1522h95q16 -140 178 -140q163 0 221 140h94q-33 -132 -121.5 -206.5 t-208.5 -74.5q-241 0 -258 281z" />
<glyph unicode="&#x12e;" horiz-adv-x="752" d="M-43 0l16 86h27q170 0 201 147l213 1004q8 38 8 57q0 82 -148 82h-26l18 86h596l-18 -86h-27q-98 0 -141 -37t-58 -110l-212 -1004q-9 -43 -9 -57q0 -82 148 -82h26l-18 -86h-596zM48 -283q0 102 79.5 176t225.5 107h117q-109 -36 -176.5 -104t-67.5 -150q0 -51 32 -81 t85 -30q52 0 133 17l-25 -111q-78 -33 -163 -33q-240 0 -240 209z" />
<glyph unicode="&#x12f;" horiz-adv-x="623" d="M1 -283q0 102 79.5 176t225.5 107h117q-109 -36 -176.5 -104t-67.5 -150q0 -51 32 -81t85 -30q52 0 133 17l-25 -111q-78 -33 -163 -33q-240 0 -240 209zM127 1012l18 86h367l-139 -658q-31 -147 -31 -227q0 -104 68 -104q59 0 147 53l37 -60q-142 -122 -277 -122 q-76 0 -123 55t-47 139q0 92 46 322l79 376q7 33 7 54q0 86 -125 86h-27zM344 1415q0 65 33.5 104.5t89.5 39.5q115 0 115 -113q0 -70 -34.5 -106.5t-88.5 -36.5q-115 0 -115 112z" />
<glyph unicode="&#x130;" horiz-adv-x="752" d="M-43 0l16 86h27q170 0 201 147l213 1004q8 38 8 57q0 82 -148 82h-26l18 86h596l-18 -86h-27q-98 0 -141 -37t-58 -110l-212 -1004q-9 -43 -9 -57q0 -82 148 -82h26l-18 -86h-596zM504 1753q0 65 33.5 104.5t89.5 39.5q115 0 115 -113q0 -70 -34.5 -106.5t-88.5 -36.5 q-115 0 -115 112z" />
<glyph unicode="&#x131;" horiz-adv-x="623" d="M127 1012l18 86h367l-139 -658q-31 -147 -31 -227q0 -104 68 -104q59 0 147 53l37 -60q-142 -122 -277 -122q-76 0 -123 55t-47 139q0 92 46 322l79 376q7 33 7 54q0 86 -125 86h-27z" />
<glyph unicode="&#x132;" horiz-adv-x="1425" d="M-43 0l16 86h27q170 0 201 147l213 1004q8 38 8 57q0 82 -148 82h-26l18 86h596l-18 -86h-27q-98 0 -141 -37t-58 -110l-212 -1004q-9 -43 -9 -57q0 -82 148 -82h26l-18 -86h-596zM377 -469l28 92q51 -18 133 -18q119 0 185 89t108 288l266 1255q9 42 9 57q0 82 -148 82 h-26l18 86h596l-18 -86h-27q-98 0 -141 -37t-58 -110l-266 -1245q-54 -251 -171.5 -363.5t-320.5 -112.5q-91 0 -167 23z" />
<glyph unicode="&#x133;" horiz-adv-x="1219" d="M127 1012l18 86h367l-139 -658q-31 -147 -31 -227q0 -104 68 -104q59 0 147 53l37 -60q-142 -122 -277 -122q-76 0 -123 55t-47 139q0 92 46 322l79 376q7 33 7 54q0 86 -125 86h-27zM336 -475l19 94q51 -14 94 -14q103 0 161.5 91.5t98.5 287.5l188 888q7 33 7 54 q0 86 -125 86h-27l18 86h367l-235 -1114q-52 -244 -155.5 -360t-291.5 -116q-58 0 -119 17zM344 1415q0 65 33.5 104.5t89.5 39.5q115 0 115 -113q0 -70 -34.5 -106.5t-88.5 -36.5q-115 0 -115 112zM969 1415q0 65 33.5 104.5t89.5 39.5q115 0 115 -113q0 -70 -34.5 -106.5 t-88.5 -36.5q-115 0 -115 112z" />
<glyph unicode="&#x134;" horiz-adv-x="731" d="M-317 -469l28 92q51 -18 133 -18q119 0 185 89t108 288l266 1255q9 42 9 57q0 82 -148 82h-26l18 86h596l-18 -86h-27q-98 0 -141 -37t-58 -110l-266 -1245q-54 -251 -171.5 -363.5t-320.5 -112.5q-91 0 -167 23zM267 1579l6 27q186 183 270 301h195q29 -117 139 -301 l-6 -27h-72q-95 65 -182 184q-150 -127 -262 -184h-88z" />
<glyph unicode="&#x135;" horiz-adv-x="596" d="M-287 -475l19 94q51 -14 94 -14q103 0 161.5 91.5t98.5 287.5l188 888q7 33 7 54q0 86 -125 86h-27l18 86h367l-235 -1114q-52 -244 -155.5 -360t-291.5 -116q-58 0 -119 17zM69 1241l6 27q186 183 270 301h195q29 -117 139 -301l-6 -27h-72q-95 65 -182 184 q-150 -127 -262 -184h-88z" />
<glyph unicode="&#x136;" horiz-adv-x="1434" d="M-43 0l16 86h27q99 0 142 37.5t59 109.5l213 1004q8 38 8 57q0 82 -148 82h-26l18 86h596l-18 -86h-27q-98 0 -141 -37t-58 -110l-88 -414l-36 -151l528 485q154 141 154 184q0 45 -91 45l17 84h452l-16 -84q-53 0 -118 -35.5t-197 -156.5l-373 -338l248 -598 q68 -164 194 -164h6l-18 -86h-29q-162 0 -241 33.5t-127 156.5l-199 506l-211 -147l-67 -324q-9 -44 -9 -57q0 -82 148 -82h26l-18 -86h-596zM487 -453l4 27l42 97q42 100 79 204h178l-4 -20q-106 -166 -229 -308h-70z" />
<glyph unicode="&#x137;" horiz-adv-x="1165" d="M90 0l266 1266q19 90 19 108q0 96 -144 96h-16l18 86h377l-80 -376q-110 -517 -159 -674l323 280q151 131 151 193q0 31 -91 31l18 86h453l-19 -86q-119 0 -329 -191l-185 -170l187 -405q79 -172 208 -172l-18 -86q-170 0 -250 39.5t-135 171.5l-133 327l-186 -118 l-84 -406h-191zM353 -453l4 27l42 97q42 100 79 204h178l-4 -20q-106 -166 -229 -308h-70z" />
<glyph unicode="&#x138;" horiz-adv-x="1165" d="M90 0l170 807q19 90 19 108q0 97 -144 97h-16l18 86h377l-55 -254q-39 -182 -88 -338l323 280q151 131 151 193q0 31 -91 31l18 86h453l-19 -86q-119 0 -329 -191l-185 -170l187 -405q79 -172 208 -172l-18 -86q-178 0 -256.5 43t-128.5 168l-133 327l-186 -118l-84 -406 h-191z" />
<glyph unicode="&#x139;" horiz-adv-x="1276" d="M-41 0l18 86h27q96 0 138 37.5t59 109.5l213 1004q8 38 8 57q0 82 -148 82h-26l18 86h596l-18 -86h-27q-97 0 -139 -34.5t-57 -104.5l-242 -1135h403q157 0 219 185l54 153h106l-106 -440h-1096zM578 1579l6 27q117 135 219 301h219l-6 -21q-157 -183 -356 -307h-82z" />
<glyph unicode="&#x13a;" horiz-adv-x="623" d="M150 174q0 97 45 322l167 786q13 61 13 92q0 96 -144 96h-24l18 86h387l-237 -1116q-31 -146 -31 -227q0 -104 68 -104q59 0 147 53l37 -60q-142 -122 -277 -122q-74 0 -121.5 54t-47.5 140zM470 1636l6 27q117 135 219 301h219l-6 -21q-157 -183 -356 -307h-82z" />
<glyph unicode="&#x13b;" horiz-adv-x="1276" d="M-41 0l18 86h27q96 0 138 37.5t59 109.5l213 1004q8 38 8 57q0 82 -148 82h-26l18 86h596l-18 -86h-27q-97 0 -139 -34.5t-57 -104.5l-242 -1135h403q157 0 219 185l54 153h106l-106 -440h-1096zM376 -453l4 27l42 97q42 100 79 204h178l-4 -20q-106 -166 -229 -308h-70z " />
<glyph unicode="&#x13c;" horiz-adv-x="623" d="M140 -453l4 27l42 97q42 100 79 204h178l-4 -20q-106 -166 -229 -308h-70zM150 174q0 97 45 322l167 786q13 61 13 92q0 96 -144 96h-24l18 86h387l-237 -1116q-31 -146 -31 -227q0 -104 68 -104q59 0 147 53l37 -60q-142 -122 -277 -122q-74 0 -121.5 54t-47.5 140z" />
<glyph unicode="&#x13d;" horiz-adv-x="1276" d="M-41 0l18 86h27q96 0 138 37.5t59 109.5l213 1004q8 38 8 57q0 82 -148 82h-26l18 86h596l-18 -86h-27q-97 0 -139 -34.5t-57 -104.5l-242 -1135h403q157 0 219 185l54 153h106l-106 -440h-1096zM914 1136l4 26l121 301h178l-4 -20q-92 -146 -230 -307h-69z" />
<glyph unicode="&#x13e;" horiz-adv-x="623" d="M150 174q0 97 45 322l167 786q13 61 13 92q0 96 -144 96h-24l18 86h387l-237 -1116q-31 -146 -31 -227q0 -104 68 -104q59 0 147 53l37 -60q-142 -122 -277 -122q-74 0 -121.5 54t-47.5 140zM658 1229l4 26l121 301h178l-4 -20q-92 -146 -230 -307h-69z" />
<glyph unicode="&#x13f;" horiz-adv-x="1276" d="M-41 0l18 86h27q96 0 138 37.5t59 109.5l213 1004q8 38 8 57q0 82 -148 82h-26l18 86h596l-18 -86h-27q-97 0 -139 -34.5t-57 -104.5l-242 -1135h403q157 0 219 185l54 153h106l-106 -440h-1096zM786 771q0 65 33.5 104.5t89.5 39.5q115 0 115 -113q0 -70 -34.5 -106.5 t-88.5 -36.5q-115 0 -115 112z" />
<glyph unicode="&#x140;" horiz-adv-x="809" d="M150 174q0 97 45 322l167 786q13 61 13 92q0 96 -144 96h-24l18 86h387l-237 -1116q-31 -146 -31 -227q0 -104 68 -104q59 0 147 53l37 -60q-142 -122 -277 -122q-74 0 -121.5 54t-47.5 140zM618 703q0 65 33.5 104.5t89.5 39.5q115 0 115 -113q0 -70 -34.5 -106.5 t-88.5 -36.5q-115 0 -115 112z" />
<glyph unicode="&#x141;" horiz-adv-x="1276" d="M-41 0l18 86h27q96 0 138 37.5t59 109.5l73 349l-221 -113l25 115l221 112l115 541q8 38 8 57q0 82 -148 82h-26l18 86h596l-18 -86h-27q-98 0 -139 -36.5t-57 -102.5l-91 -422l357 186l-25 -118l-356 -185l-127 -596h403q157 0 219 185l54 153h106l-106 -440h-1096z" />
<glyph unicode="&#x142;" horiz-adv-x="664" d="M16 469l25 115l192 100l140 647q6 26 6 45q0 94 -146 94h-26l18 86h387l-163 -763l219 112l-25 -119l-219 -110l-49 -236q-31 -149 -31 -227q0 -104 68 -104q59 0 147 53l37 -60q-142 -122 -277 -122q-74 0 -121.5 54t-47.5 140q0 97 45 322l14 69z" />
<glyph unicode="&#x143;" horiz-adv-x="1563" d="M-41 0l18 86h27q96 0 138 37.5t59 109.5l213 1004q8 38 8 57q0 82 -148 82h-26l18 86h373l496 -1130l192 905q8 38 8 57q0 82 -147 82h-27l19 86h514l-19 -86h-26q-98 0 -140.5 -37.5t-58.5 -109.5l-260 -1229h-133l-527 1200l-206 -975q-9 -43 -9 -57q0 -82 148 -82h26 l-18 -86h-512zM934 1579l6 27q117 135 219 301h219l-6 -21q-157 -183 -356 -307h-82z" />
<glyph unicode="&#x144;" horiz-adv-x="1227" d="M90 0l172 823q12 57 12 92q0 97 -143 97h-16l18 86h379l-55 -258h20q166 276 373 276q219 0 219 -227q0 -65 -37 -225l-53 -242q-27 -123 -27 -215q0 -98 72 -98q59 0 131 47l37 -60q-134 -116 -250 -116q-85 0 -135.5 55t-50.5 149t39 277l47 212q30 124 30 191 q0 121 -94 121q-114 0 -233.5 -154t-153.5 -307l-110 -524h-191zM680 1241l6 27q117 135 219 301h219l-6 -21q-157 -183 -356 -307h-82z" />
<glyph unicode="&#x145;" horiz-adv-x="1563" d="M-41 0l18 86h27q96 0 138 37.5t59 109.5l213 1004q8 38 8 57q0 82 -148 82h-26l18 86h373l496 -1130l192 905q8 38 8 57q0 82 -147 82h-27l19 86h514l-19 -86h-26q-98 0 -140.5 -37.5t-58.5 -109.5l-260 -1229h-133l-527 1200l-206 -975q-9 -43 -9 -57q0 -82 148 -82h26 l-18 -86h-512zM487 -453l4 27l42 97q42 100 79 204h178l-4 -20q-106 -166 -229 -308h-70z" />
<glyph unicode="&#x146;" horiz-adv-x="1227" d="M90 0l172 823q12 57 12 92q0 97 -143 97h-16l18 86h379l-55 -258h20q166 276 373 276q219 0 219 -227q0 -65 -37 -225l-53 -242q-27 -123 -27 -215q0 -98 72 -98q59 0 131 47l37 -60q-134 -116 -250 -116q-85 0 -135.5 55t-50.5 149t39 277l47 212q30 124 30 191 q0 121 -94 121q-114 0 -233.5 -154t-153.5 -307l-110 -524h-191zM351 -453l4 27l42 97q42 100 79 204h178l-4 -20q-106 -166 -229 -308h-70z" />
<glyph unicode="&#x147;" horiz-adv-x="1563" d="M-41 0l18 86h27q96 0 138 37.5t59 109.5l213 1004q8 38 8 57q0 82 -148 82h-26l18 86h373l496 -1130l192 905q8 38 8 57q0 82 -147 82h-27l19 86h514l-19 -86h-26q-98 0 -140.5 -37.5t-58.5 -109.5l-260 -1229h-133l-527 1200l-206 -975q-9 -43 -9 -57q0 -82 148 -82h26 l-18 -86h-512zM768 1880l6 27h74q95 -75 174 -187q129 110 271 187h86l-7 -27q-153 -150 -270 -301h-194q-50 152 -140 301z" />
<glyph unicode="&#x148;" horiz-adv-x="1227" d="M90 0l172 823q12 57 12 92q0 97 -143 97h-16l18 86h379l-55 -258h20q166 276 373 276q219 0 219 -227q0 -65 -37 -225l-53 -242q-27 -123 -27 -215q0 -98 72 -98q59 0 131 47l37 -60q-134 -116 -250 -116q-85 0 -135.5 55t-50.5 149t39 277l47 212q30 124 30 191 q0 121 -94 121q-114 0 -233.5 -154t-153.5 -307l-110 -524h-191zM478 1542l6 27h74q95 -75 174 -187q129 110 271 187h86l-7 -27q-153 -150 -270 -301h-194q-50 152 -140 301z" />
<glyph unicode="&#x149;" horiz-adv-x="1503" d="M15 901l8 86q209 47 209 172q0 36 -66 78q-67 42 -67 104q0 55 35 88t92 33q69 0 114.5 -46.5t45.5 -121.5q0 -151 -96.5 -254t-274.5 -139zM366 0l172 823q12 57 12 92q0 97 -143 97h-16l18 86h379l-55 -258h20q166 276 373 276q219 0 219 -227q0 -65 -37 -225l-53 -242 q-27 -123 -27 -215q0 -98 72 -98q59 0 131 47l37 -60q-134 -116 -250 -116q-85 0 -135.5 55t-50.5 149t39 277l47 212q30 124 30 191q0 121 -94 121q-114 0 -233.5 -154t-153.5 -307l-110 -524h-191z" />
<glyph unicode="&#x14a;" horiz-adv-x="1624" d="M-41 0l18 86h27q96 0 138 37.5t59 109.5l213 1004q8 38 8 57q0 82 -148 82h-26l18 86h361l565 -1153l197 928q8 38 8 57q0 82 -148 82h-26l18 86h514l-18 -86h-27q-98 0 -141 -37t-58 -110l-264 -1245q-54 -255 -163.5 -365.5t-299.5 -110.5q-79 0 -145 23l25 92 q51 -18 112 -18q122 0 215 98t133 285l-594 1212l-206 -975q-9 -43 -9 -57q0 -82 148 -82h26l-18 -86h-512z" />
<glyph unicode="&#x14b;" horiz-adv-x="1151" d="M90 0l172 823q12 57 12 92q0 97 -143 97h-16l18 86h379l-55 -258h20q168 276 373 276q219 0 219 -227q0 -72 -37 -232l-145 -673q-54 -249 -157 -362.5t-290 -113.5q-57 0 -118 17l18 94q51 -14 94 -14q103 0 161.5 91.5t98.5 287.5l135 630q43 201 43 250q0 121 -94 121 q-114 0 -233.5 -154t-153.5 -307l-110 -524h-191z" />
<glyph unicode="&#x14c;" horiz-adv-x="1520" d="M106 545q0 352 230 646t590 294q238 0 384 -148t146 -415q0 -351 -228 -648t-585 -297q-243 0 -390 153.5t-147 414.5zM330 487q0 -192 87 -294.5t238 -102.5q255 0 415.5 282.5t160.5 604.5q0 191 -84.5 294t-237.5 103q-256 0 -417.5 -283.5t-161.5 -603.5zM656 1579 l26 121h594l-27 -121h-593z" />
<glyph unicode="&#x14d;" horiz-adv-x="1176" d="M88 403q0 276 168.5 495.5t441.5 219.5q181 0 285 -109t104 -315q0 -273 -167 -493.5t-439 -220.5q-185 0 -289 112t-104 311zM301 362q0 -282 203 -282q169 0 269.5 200.5t100.5 444.5q0 285 -200 285q-167 0 -270 -201t-103 -447zM428 1241l26 121h594l-27 -121h-593z " />
<glyph unicode="&#x14e;" horiz-adv-x="1520" d="M106 545q0 352 230 646t590 294q238 0 384 -148t146 -415q0 -351 -228 -648t-585 -297q-243 0 -390 153.5t-147 414.5zM330 487q0 -192 87 -294.5t238 -102.5q255 0 415.5 282.5t160.5 604.5q0 191 -84.5 294t-237.5 103q-256 0 -417.5 -283.5t-161.5 -603.5zM698 1860 h95q16 -140 178 -140q163 0 221 140h94q-33 -132 -121.5 -206.5t-208.5 -74.5q-241 0 -258 281z" />
<glyph unicode="&#x14f;" horiz-adv-x="1176" d="M88 403q0 276 168.5 495.5t441.5 219.5q181 0 285 -109t104 -315q0 -273 -167 -493.5t-439 -220.5q-185 0 -289 112t-104 311zM301 362q0 -282 203 -282q169 0 269.5 200.5t100.5 444.5q0 285 -200 285q-167 0 -270 -201t-103 -447zM469 1522h95q16 -140 178 -140 q163 0 221 140h94q-33 -132 -121.5 -206.5t-208.5 -74.5q-241 0 -258 281z" />
<glyph unicode="&#x150;" horiz-adv-x="1520" d="M106 545q0 352 230 646t590 294q238 0 384 -148t146 -415q0 -351 -228 -648t-585 -297q-243 0 -390 153.5t-147 414.5zM330 487q0 -192 87 -294.5t238 -102.5q255 0 415.5 282.5t160.5 604.5q0 191 -84.5 294t-237.5 103q-256 0 -417.5 -283.5t-161.5 -603.5zM709 1579 l6 27q112 133 219 301h219l-6 -21q-140 -159 -348 -307h-90zM1077 1579l6 27q106 121 219 301h220l-7 -21q-4 -13 -119.5 -120.5t-228.5 -186.5h-90z" />
<glyph unicode="&#x151;" horiz-adv-x="1176" d="M88 403q0 276 168.5 495.5t441.5 219.5q181 0 285 -109t104 -315q0 -273 -167 -493.5t-439 -220.5q-185 0 -289 112t-104 311zM301 362q0 -282 203 -282q169 0 269.5 200.5t100.5 444.5q0 285 -200 285q-167 0 -270 -201t-103 -447zM426 1241l6 27q112 133 219 301h219 l-6 -21q-140 -159 -348 -307h-90zM794 1241l6 27q106 121 219 301h220l-7 -21q-4 -13 -119.5 -120.5t-228.5 -186.5h-90z" />
<glyph unicode="&#x152;" horiz-adv-x="1970" d="M106 545q0 352 230 646t590 294q102 0 217 -23h850l-66 -358h-106q10 70 10 119q0 133 -145 137h-345l-116 -545h493l-20 -100h-494l-131 -613h395q173 0 232 168l33 88h106l-90 -358h-881l-69 -12q-80 -11 -156 -11q-243 0 -390 153.5t-147 414.5zM330 487 q0 -192 87 -294.5t238 -102.5q135 0 217 35l256 1208q-113 41 -219 41q-256 0 -417.5 -283.5t-161.5 -603.5z" />
<glyph unicode="&#x153;" horiz-adv-x="1767" d="M88 403q0 277 168.5 501t441.5 224q248 0 344 -204q173 194 414 194q130 0 201.5 -62t71.5 -173q0 -92 -61 -181t-170.5 -145.5t-194 -70t-240.5 -13.5q-6 -46 -6 -86q0 -278 227 -278q175 0 295 147q20 -14 20 -51q0 -84 -96.5 -154.5t-257.5 -70.5q-239 0 -344 186 q-169 -199 -420 -199q-182 0 -287.5 117t-105.5 319zM301 362q0 -294 203 -294q168 0 269 205t101 452q0 295 -200 295q-167 0 -270 -205.5t-103 -452.5zM1081 567h21q181 0 298.5 89t117.5 227q0 137 -119 137q-100 0 -186.5 -126.5t-131.5 -326.5z" />
<glyph unicode="&#x154;" horiz-adv-x="1325" d="M-76 0l19 86h26q102 0 141.5 36t53.5 101l215 1014q8 38 8 57q0 82 -147 82h-27l18 86h537q469 0 469 -348q0 -338 -379 -428l148 -438q36 -105 73 -133.5t95 -28.5h16l-16 -86h-27q-176 0 -249 46.5t-116 193.5l-118 405h-203l-90 -420q-9 -42 -9 -57q0 -82 148 -82h68 l-19 -86h-635zM481 741h158q183 0 282 93.5t99 267.5q0 136 -60.5 199t-207.5 63h-140zM723 1579l6 27q117 135 219 301h219l-6 -21q-157 -183 -356 -307h-82z" />
<glyph unicode="&#x155;" horiz-adv-x="958" d="M90 0l172 823q12 57 12 92q0 97 -163 97h-17l19 86h362l-43 -295h21q82 183 162 249t186 66q168 0 168 -141q0 -156 -170 -156q0 162 -82 162q-95 0 -201.5 -187t-157.5 -423l-77 -373h-191zM535 1241l6 27q117 135 219 301h219l-6 -21q-157 -183 -356 -307h-82z" />
<glyph unicode="&#x156;" horiz-adv-x="1325" d="M-76 0l19 86h26q102 0 141.5 36t53.5 101l215 1014q8 38 8 57q0 82 -147 82h-27l18 86h537q469 0 469 -348q0 -338 -379 -428l148 -438q36 -105 73 -133.5t95 -28.5h16l-16 -86h-27q-176 0 -249 46.5t-116 193.5l-118 405h-203l-90 -420q-9 -42 -9 -57q0 -82 148 -82h68 l-19 -86h-635zM438 -453l4 27l42 97q42 100 79 204h178l-4 -20q-106 -166 -229 -308h-70zM481 741h158q183 0 282 93.5t99 267.5q0 136 -60.5 199t-207.5 63h-140z" />
<glyph unicode="&#x157;" horiz-adv-x="958" d="M-22 -453l4 27l42 97q42 100 79 204h178l-4 -20q-106 -166 -229 -308h-70zM90 0l172 823q12 57 12 92q0 97 -163 97h-17l19 86h362l-43 -295h21q82 183 162 249t186 66q168 0 168 -141q0 -156 -170 -156q0 162 -82 162q-95 0 -201.5 -187t-157.5 -423l-77 -373h-191z" />
<glyph unicode="&#x158;" horiz-adv-x="1325" d="M-76 0l19 86h26q102 0 141.5 36t53.5 101l215 1014q8 38 8 57q0 82 -147 82h-27l18 86h537q469 0 469 -348q0 -338 -379 -428l148 -438q36 -105 73 -133.5t95 -28.5h16l-16 -86h-27q-176 0 -249 46.5t-116 193.5l-118 405h-203l-90 -420q-9 -42 -9 -57q0 -82 148 -82h68 l-19 -86h-635zM481 741h158q183 0 282 93.5t99 267.5q0 136 -60.5 199t-207.5 63h-140zM547 1880l6 27h74q95 -75 174 -187q129 110 271 187h86l-7 -27q-153 -150 -270 -301h-194q-50 152 -140 301z" />
<glyph unicode="&#x159;" horiz-adv-x="958" d="M90 0l172 823q12 57 12 92q0 97 -163 97h-17l19 86h362l-43 -295h21q82 183 162 249t186 66q168 0 168 -141q0 -156 -170 -156q0 162 -82 162q-95 0 -201.5 -187t-157.5 -423l-77 -373h-191zM347 1542l6 27h74q95 -75 174 -187q129 110 271 187h86l-7 -27 q-153 -150 -270 -301h-194q-50 152 -140 301z" />
<glyph unicode="&#x15a;" horiz-adv-x="1114" d="M14 272q0 71 44.5 113.5t113.5 42.5q0 -157 83 -252.5t228 -95.5q143 0 227.5 71t84.5 193q0 97 -48.5 164t-209.5 158q-164 95 -227.5 195t-63.5 226q0 177 134 286.5t363 109.5q178 0 284 -62t106 -159q0 -142 -181 -142q0 120 -57 190t-168 70q-122 0 -200 -70 t-78 -188q0 -87 41.5 -150.5t211.5 -162.5q161 -94 232.5 -187t71.5 -212q0 -203 -142 -316.5t-395 -113.5q-209 0 -332 82.5t-123 209.5zM705 1579l6 27q117 135 219 301h219l-6 -21q-157 -183 -356 -307h-82z" />
<glyph unicode="&#x15b;" horiz-adv-x="950" d="M51 211q0 66 36.5 100.5t92.5 34.5q0 -127 61.5 -197.5t172.5 -70.5q221 0 221 190q0 73 -47 123.5t-160 102.5q-147 70 -197.5 144.5t-50.5 172.5q0 134 109.5 219.5t285.5 85.5q151 0 235.5 -56t84.5 -138q0 -127 -154 -127q0 103 -48.5 165t-135.5 62 q-92 0 -145.5 -49.5t-53.5 -126.5q0 -68 51 -116t158 -95q246 -110 246 -318q0 -151 -116 -244t-308 -93q-155 0 -246.5 62.5t-91.5 168.5zM557 1241l6 27q117 135 219 301h219l-6 -21q-157 -183 -356 -307h-82z" />
<glyph unicode="&#x15c;" horiz-adv-x="1114" d="M14 272q0 71 44.5 113.5t113.5 42.5q0 -157 83 -252.5t228 -95.5q143 0 227.5 71t84.5 193q0 97 -48.5 164t-209.5 158q-164 95 -227.5 195t-63.5 226q0 177 134 286.5t363 109.5q178 0 284 -62t106 -159q0 -142 -181 -142q0 120 -57 190t-168 70q-122 0 -200 -70 t-78 -188q0 -87 41.5 -150.5t211.5 -162.5q161 -94 232.5 -187t71.5 -212q0 -203 -142 -316.5t-395 -113.5q-209 0 -332 82.5t-123 209.5zM477 1579l6 27q186 183 270 301h195q29 -117 139 -301l-6 -27h-72q-95 65 -182 184q-150 -127 -262 -184h-88z" />
<glyph unicode="&#x15d;" horiz-adv-x="950" d="M51 211q0 66 36.5 100.5t92.5 34.5q0 -127 61.5 -197.5t172.5 -70.5q221 0 221 190q0 73 -47 123.5t-160 102.5q-147 70 -197.5 144.5t-50.5 172.5q0 134 109.5 219.5t285.5 85.5q151 0 235.5 -56t84.5 -138q0 -127 -154 -127q0 103 -48.5 165t-135.5 62 q-92 0 -145.5 -49.5t-53.5 -126.5q0 -68 51 -116t158 -95q246 -110 246 -318q0 -151 -116 -244t-308 -93q-155 0 -246.5 62.5t-91.5 168.5zM335 1241l6 27q186 183 270 301h195q29 -117 139 -301l-6 -27h-72q-95 65 -182 184q-150 -127 -262 -184h-88z" />
<glyph unicode="&#x15e;" horiz-adv-x="1114" d="M14 272q0 71 44.5 113.5t113.5 42.5q0 -157 83 -252.5t228 -95.5q143 0 227.5 71t84.5 193q0 97 -48.5 164t-209.5 158q-164 95 -227.5 195t-63.5 226q0 177 134 286.5t363 109.5q178 0 284 -62t106 -159q0 -142 -181 -142q0 120 -57 190t-168 70q-122 0 -200 -70 t-78 -188q0 -87 41.5 -150.5t211.5 -162.5q161 -94 232.5 -187t71.5 -212q0 -203 -142 -316.5t-395 -113.5q-209 0 -332 82.5t-123 209.5zM164 -469l22 104q70 -16 137 -16q152 0 152 125q0 102 -131 115l78 159h96l-39 -88q74 -10 119 -58t45 -112q0 -119 -86.5 -185.5 t-239.5 -66.5q-79 0 -153 23z" />
<glyph unicode="&#x15f;" horiz-adv-x="950" d="M51 211q0 66 36.5 100.5t92.5 34.5q0 -127 61.5 -197.5t172.5 -70.5q221 0 221 190q0 73 -47 123.5t-160 102.5q-147 70 -197.5 144.5t-50.5 172.5q0 134 109.5 219.5t285.5 85.5q151 0 235.5 -56t84.5 -138q0 -127 -154 -127q0 103 -48.5 165t-135.5 62 q-92 0 -145.5 -49.5t-53.5 -126.5q0 -68 51 -116t158 -95q246 -110 246 -318q0 -151 -116 -244t-308 -93q-155 0 -246.5 62.5t-91.5 168.5zM92 -469l22 104q70 -16 137 -16q152 0 152 125q0 102 -131 115l78 159h96l-39 -88q74 -10 119 -58t45 -112q0 -119 -86.5 -185.5 t-239.5 -66.5q-79 0 -153 23z" />
<glyph unicode="&#x160;" horiz-adv-x="1114" d="M14 272q0 71 44.5 113.5t113.5 42.5q0 -157 83 -252.5t228 -95.5q143 0 227.5 71t84.5 193q0 97 -48.5 164t-209.5 158q-164 95 -227.5 195t-63.5 226q0 177 134 286.5t363 109.5q178 0 284 -62t106 -159q0 -142 -181 -142q0 120 -57 190t-168 70q-122 0 -200 -70 t-78 -188q0 -87 41.5 -150.5t211.5 -162.5q161 -94 232.5 -187t71.5 -212q0 -203 -142 -316.5t-395 -113.5q-209 0 -332 82.5t-123 209.5zM544 1880l6 27h74q95 -75 174 -187q129 110 271 187h86l-7 -27q-153 -150 -270 -301h-194q-50 152 -140 301z" />
<glyph unicode="&#x161;" horiz-adv-x="950" d="M51 211q0 66 36.5 100.5t92.5 34.5q0 -127 61.5 -197.5t172.5 -70.5q221 0 221 190q0 73 -47 123.5t-160 102.5q-147 70 -197.5 144.5t-50.5 172.5q0 134 109.5 219.5t285.5 85.5q151 0 235.5 -56t84.5 -138q0 -127 -154 -127q0 103 -48.5 165t-135.5 62 q-92 0 -145.5 -49.5t-53.5 -126.5q0 -68 51 -116t158 -95q246 -110 246 -318q0 -151 -116 -244t-308 -93q-155 0 -246.5 62.5t-91.5 168.5zM359 1542l6 27h74q95 -75 174 -187q129 110 271 187h86l-7 -27q-153 -150 -270 -301h-194q-50 152 -140 301z" />
<glyph unicode="&#x162;" horiz-adv-x="1255" d="M156 1104l86 358h1153l-66 -358h-106q10 80 10 125q0 131 -135 131h-199l-242 -1135q-8 -38 -8 -57q0 -82 148 -82h47l-19 -86h-637l19 86h47q103 0 143 35.5t54 101.5l241 1137h-196q-146 0 -205 -168l-29 -88h-106zM202 -469l22 104q70 -16 137 -16q152 0 152 125 q0 102 -131 115l78 159h96l-39 -88q74 -10 119 -58t45 -112q0 -119 -86.5 -185.5t-239.5 -66.5q-79 0 -153 23z" />
<glyph unicode="&#x163;" horiz-adv-x="754" d="M12 -469l22 104q70 -16 137 -16q152 0 152 125q0 102 -131 115l78 159h96l-39 -88q74 -10 119 -58t45 -112q0 -119 -86.5 -185.5t-239.5 -66.5q-79 0 -153 23zM141 981l19 82q200 0 313 287h94l-53 -252h248l-25 -117h-248l-124 -584q-25 -118 -25 -176q0 -112 109 -112 q83 0 167 45l35 -76q-138 -98 -276 -98q-223 0 -223 239q0 77 20 172l125 590h-156z" />
<glyph unicode="&#x164;" horiz-adv-x="1255" d="M156 1104l86 358h1153l-66 -358h-106q10 80 10 125q0 131 -135 131h-199l-242 -1135q-8 -38 -8 -57q0 -82 148 -82h47l-19 -86h-637l19 86h47q103 0 143 35.5t54 101.5l241 1137h-196q-146 0 -205 -168l-29 -88h-106zM577 1880l6 27h74q95 -75 174 -187q129 110 271 187 h86l-7 -27q-153 -150 -270 -301h-194q-50 152 -140 301z" />
<glyph unicode="&#x165;" horiz-adv-x="754" d="M141 981l19 82q200 0 313 287h94l-53 -252h248l-25 -117h-248l-124 -584q-25 -118 -25 -176q0 -112 109 -112q83 0 167 45l35 -76q-138 -98 -276 -98q-223 0 -223 239q0 77 20 172l125 590h-156zM705 1229l4 26l121 301h178l-4 -20q-92 -146 -230 -307h-69z" />
<glyph unicode="&#x166;" horiz-adv-x="1255" d="M156 1104l86 358h1153l-66 -358h-106q10 80 10 125q0 128 -135 131h-199l-125 -588h344l-18 -100h-348l-95 -447q-8 -38 -8 -57q0 -82 148 -82h47l-19 -86h-637l19 86h47q96 0 137 33.5t60 103.5l94 449h-340l18 100h344l125 588h-196q-146 0 -205 -168l-29 -88h-106z " />
<glyph unicode="&#x167;" horiz-adv-x="754" d="M76 596l18 96h142l61 289h-156l19 82q200 0 313 287h94l-53 -252h248l-25 -117h-248l-61 -289h246l-19 -96h-247l-43 -199q-25 -116 -25 -176q0 -112 109 -112q83 0 167 45l35 -76q-138 -98 -276 -98q-223 0 -223 239q0 83 20 172l43 205h-139z" />
<glyph unicode="&#x168;" horiz-adv-x="1495" d="M197 334q0 83 22 182l152 721q8 38 8 57q0 82 -148 82h-26l18 86h596l-16 -86h-27q-96 0 -140 -36.5t-61 -110.5l-153 -723q-25 -118 -25 -191q0 -213 295 -213q166 0 263 74t135 246l174 815q8 37 8 57q0 82 -148 82h-26l18 86h514l-16 -86h-27q-96 0 -140 -36.5 t-61 -110.5l-172 -811q-93 -438 -552 -438q-226 0 -345.5 92t-119.5 262zM629 1600q72 241 268 241q82 0 169 -64q87 -65 124 -65q89 0 123 109h92q-72 -242 -266 -242q-81 0 -169 65q-89 64 -126 64q-88 0 -123 -108h-92z" />
<glyph unicode="&#x169;" horiz-adv-x="1227" d="M117 1012l18 86h381l-135 -613q-41 -186 -41 -247q0 -125 100 -125q105 0 226.5 151.5t158.5 323.5l107 510h198l-141 -658q-31 -145 -31 -227q0 -104 68 -104q58 0 131 45l37 -60q-130 -114 -260 -114q-77 0 -124.5 55t-47.5 139q0 53 10 121h-16q-111 -183 -198.5 -248 t-197.5 -65q-219 0 -219 227q0 65 37 225l80 359q18 81 18 122q0 97 -143 97h-16zM369 1262q72 241 268 241q82 0 169 -64q87 -65 124 -65q89 0 123 109h92q-72 -242 -266 -242q-81 0 -169 65q-89 64 -126 64q-88 0 -123 -108h-92z" />
<glyph unicode="&#x16a;" horiz-adv-x="1495" d="M197 334q0 83 22 182l152 721q8 38 8 57q0 82 -148 82h-26l18 86h596l-16 -86h-27q-96 0 -140 -36.5t-61 -110.5l-153 -723q-25 -118 -25 -191q0 -213 295 -213q166 0 263 74t135 246l174 815q8 37 8 57q0 82 -148 82h-26l18 86h514l-16 -86h-27q-96 0 -140 -36.5 t-61 -110.5l-172 -811q-93 -438 -552 -438q-226 0 -345.5 92t-119.5 262zM666 1579l26 121h594l-27 -121h-593z" />
<glyph unicode="&#x16b;" horiz-adv-x="1227" d="M117 1012l18 86h381l-135 -613q-41 -186 -41 -247q0 -125 100 -125q105 0 226.5 151.5t158.5 323.5l107 510h198l-141 -658q-31 -145 -31 -227q0 -104 68 -104q58 0 131 45l37 -60q-130 -114 -260 -114q-77 0 -124.5 55t-47.5 139q0 53 10 121h-16q-111 -183 -198.5 -248 t-197.5 -65q-219 0 -219 227q0 65 37 225l80 359q18 81 18 122q0 97 -143 97h-16zM447 1241l26 121h594l-27 -121h-593z" />
<glyph unicode="&#x16c;" horiz-adv-x="1495" d="M197 334q0 83 22 182l152 721q8 38 8 57q0 82 -148 82h-26l18 86h596l-16 -86h-27q-96 0 -140 -36.5t-61 -110.5l-153 -723q-25 -118 -25 -191q0 -213 295 -213q166 0 263 74t135 246l174 815q8 37 8 57q0 82 -148 82h-26l18 86h514l-16 -86h-27q-96 0 -140 -36.5 t-61 -110.5l-172 -811q-93 -438 -552 -438q-226 0 -345.5 92t-119.5 262zM708 1860h95q16 -140 178 -140q163 0 221 140h94q-33 -132 -121.5 -206.5t-208.5 -74.5q-241 0 -258 281z" />
<glyph unicode="&#x16d;" horiz-adv-x="1227" d="M117 1012l18 86h381l-135 -613q-41 -186 -41 -247q0 -125 100 -125q105 0 226.5 151.5t158.5 323.5l107 510h198l-141 -658q-31 -145 -31 -227q0 -104 68 -104q58 0 131 45l37 -60q-130 -114 -260 -114q-77 0 -124.5 55t-47.5 139q0 53 10 121h-16q-111 -183 -198.5 -248 t-197.5 -65q-219 0 -219 227q0 65 37 225l80 359q18 81 18 122q0 97 -143 97h-16zM483 1522h95q16 -140 178 -140q163 0 221 140h94q-33 -132 -121.5 -206.5t-208.5 -74.5q-241 0 -258 281z" />
<glyph unicode="&#x16e;" horiz-adv-x="1495" d="M197 334q0 83 22 182l152 721q8 38 8 57q0 82 -148 82h-26l18 86h596l-16 -86h-27q-96 0 -140 -36.5t-61 -110.5l-153 -723q-25 -118 -25 -191q0 -213 295 -213q166 0 263 74t135 246l174 815q8 37 8 57q0 82 -148 82h-26l18 86h514l-16 -86h-27q-96 0 -140 -36.5 t-61 -110.5l-172 -811q-93 -438 -552 -438q-226 0 -345.5 92t-119.5 262zM758 1782q0 104 69 163.5t177 59.5t177 -59.5t69 -163.5q0 -105 -69.5 -164t-176.5 -59t-176.5 59t-69.5 164zM869 1782q0 -123 135 -123t135 123t-135 123t-135 -123z" />
<glyph unicode="&#x16f;" horiz-adv-x="1227" d="M117 1012l18 86h381l-135 -613q-41 -186 -41 -247q0 -125 100 -125q105 0 226.5 151.5t158.5 323.5l107 510h198l-141 -658q-31 -145 -31 -227q0 -104 68 -104q58 0 131 45l37 -60q-130 -114 -260 -114q-77 0 -124.5 55t-47.5 139q0 53 10 121h-16q-111 -183 -198.5 -248 t-197.5 -65q-219 0 -219 227q0 65 37 225l80 359q18 81 18 122q0 97 -143 97h-16zM504 1444q0 104 69 163.5t177 59.5t177 -59.5t69 -163.5q0 -105 -69.5 -164t-176.5 -59t-176.5 59t-69.5 164zM615 1444q0 -123 135 -123t135 123t-135 123t-135 -123z" />
<glyph unicode="&#x170;" horiz-adv-x="1495" d="M197 334q0 83 22 182l152 721q8 38 8 57q0 82 -148 82h-26l18 86h596l-16 -86h-27q-96 0 -140 -36.5t-61 -110.5l-153 -723q-25 -118 -25 -191q0 -213 295 -213q166 0 263 74t135 246l174 815q8 37 8 57q0 82 -148 82h-26l18 86h514l-16 -86h-27q-96 0 -140 -36.5 t-61 -110.5l-172 -811q-93 -438 -552 -438q-226 0 -345.5 92t-119.5 262zM670 1579l6 27q112 133 219 301h219l-6 -21q-140 -159 -348 -307h-90zM1038 1579l6 27q106 121 219 301h220l-7 -21q-4 -13 -119.5 -120.5t-228.5 -186.5h-90z" />
<glyph unicode="&#x171;" horiz-adv-x="1227" d="M117 1012l18 86h381l-135 -613q-41 -186 -41 -247q0 -125 100 -125q105 0 226.5 151.5t158.5 323.5l107 510h198l-141 -658q-31 -145 -31 -227q0 -104 68 -104q58 0 131 45l37 -60q-130 -114 -260 -114q-77 0 -124.5 55t-47.5 139q0 53 10 121h-16q-111 -183 -198.5 -248 t-197.5 -65q-219 0 -219 227q0 65 37 225l80 359q18 81 18 122q0 97 -143 97h-16zM435 1241l6 27q112 133 219 301h219l-6 -21q-140 -159 -348 -307h-90zM803 1241l6 27q106 121 219 301h220l-7 -21q-4 -13 -119.5 -120.5t-228.5 -186.5h-90z" />
<glyph unicode="&#x172;" horiz-adv-x="1495" d="M197 334q0 83 22 182l152 721q8 38 8 57q0 82 -148 82h-26l18 86h596l-16 -86h-27q-96 0 -140 -36.5t-61 -110.5l-153 -723q-25 -118 -25 -191q0 -213 295 -213q166 0 263 74t135 246l174 815q8 37 8 57q0 82 -148 82h-26l18 86h514l-16 -86h-27q-96 0 -140 -36.5 t-61 -110.5l-172 -811q-93 -438 -552 -438q-226 0 -345.5 92t-119.5 262zM422 -283q0 102 79.5 176t225.5 107h117q-109 -36 -176.5 -104t-67.5 -150q0 -51 32 -81t85 -30q52 0 133 17l-25 -111q-78 -33 -163 -33q-240 0 -240 209z" />
<glyph unicode="&#x173;" horiz-adv-x="1227" d="M117 1012l18 86h381l-135 -613q-41 -186 -41 -247q0 -125 100 -125q105 0 226.5 151.5t158.5 323.5l107 510h198l-141 -658q-31 -145 -31 -227q0 -104 68 -104q58 0 131 45l37 -60q-130 -114 -260 -114q-77 0 -124.5 55t-47.5 139q0 53 10 121h-16q-111 -183 -198.5 -248 t-197.5 -65q-219 0 -219 227q0 65 37 225l80 359q18 81 18 122q0 97 -143 97h-16zM616 -283q0 102 79.5 176t225.5 107h117q-109 -36 -176.5 -104t-67.5 -150q0 -51 32 -81t85 -30q52 0 133 17l-25 -111q-78 -33 -163 -33q-240 0 -240 209z" />
<glyph unicode="&#x174;" horiz-adv-x="2140" d="M182 1376l19 86h557l-19 -86h-47q-147 0 -147 -104q0 -42 4 -70l49 -655q14 -187 14 -346q86 202 168 368l430 879h148l67 -887q15 -201 11 -360q90 209 153 336l326 651q39 78 39 115q0 73 -115 73h-49l16 86h500l-18 -86h-39q-66 0 -103.5 -32t-85.5 -127l-604 -1217 h-188l-92 1135l-551 -1135h-187l-106 1268q-5 55 -30 81.5t-93 26.5h-27zM985 1579l6 27q186 183 270 301h195q29 -117 139 -301l-6 -27h-72q-95 65 -182 184q-150 -127 -262 -184h-88z" />
<glyph unicode="&#x175;" horiz-adv-x="1677" d="M76 1012l28 86h308q6 -432 6 -934h8q267 469 457 915l170 8q43 -539 43 -937h14q167 205 276 405.5t109 318.5q0 94 -88 123q18 121 121 121q108 0 108 -153q0 -295 -514 -963l-202 -22l-31 886q-93 -221 -432 -860l-211 -24l-15 882q-1 72 -28.5 110t-106.5 38h-20z M688 1241l6 27q186 183 270 301h195q29 -117 139 -301l-6 -27h-72q-95 65 -182 184q-150 -127 -262 -184h-88z" />
<glyph unicode="&#x176;" horiz-adv-x="1280" d="M158 1376l18 86h553l-18 -86h-103q-84 0 -84 -55q0 -40 27 -119l92 -274q49 -146 55 -246q20 38 154 215l195 260q75 100 75 166q0 53 -98 53h-76l19 86h506l-19 -86h-39q-39 0 -77.5 -31.5t-108.5 -123.5l-477 -625l-80 -371q-8 -37 -8 -57q0 -82 147 -82h47l-18 -86 h-637l18 86h47q103 0 143 35.5t54 101.5l80 377l-238 668q-23 65 -45.5 86.5t-77.5 21.5h-26zM545 1579l6 27q186 183 270 301h195q29 -117 139 -301l-6 -27h-72q-95 65 -182 184q-150 -127 -262 -184h-88z" />
<glyph unicode="&#x177;" horiz-adv-x="1081" d="M-332 -455l31 103q72 -23 160 -23q293 0 575 373l-270 905q-18 60 -49 84.5t-92 24.5h-21l16 86h299l160 -553q74 -257 86 -371h6q277 421 277 680q0 111 -101 111q0 69 40 110t94 41q139 0 139 -172q0 -247 -276 -694.5t-442.5 -594.5t-438.5 -147q-108 0 -193 37z M333 1241l6 27q186 183 270 301h195q29 -117 139 -301l-6 -27h-72q-95 65 -182 184q-150 -127 -262 -184h-88z" />
<glyph unicode="&#x178;" horiz-adv-x="1280" d="M158 1376l18 86h553l-18 -86h-103q-84 0 -84 -55q0 -40 27 -119l92 -274q49 -146 55 -246q20 38 154 215l195 260q75 100 75 166q0 53 -98 53h-76l19 86h506l-19 -86h-39q-39 0 -77.5 -31.5t-108.5 -123.5l-477 -625l-80 -371q-8 -37 -8 -57q0 -82 147 -82h47l-18 -86 h-637l18 86h47q103 0 143 35.5t54 101.5l80 377l-238 668q-23 65 -45.5 86.5t-77.5 21.5h-26zM582 1735q0 129 110 129q103 0 103 -103q0 -129 -111 -129q-102 0 -102 103zM971 1735q0 129 110 129q103 0 103 -103q0 -129 -111 -129q-102 0 -102 103z" />
<glyph unicode="&#x179;" horiz-adv-x="1239" d="M-35 0l17 82l1030 1278h-477q-151 0 -205 -168l-29 -88h-106l86 358h1011l-16 -84l-1032 -1276h547q152 0 206 168l29 88h107l-86 -358h-1082zM740 1579l6 27q117 135 219 301h219l-6 -21q-157 -183 -356 -307h-82z" />
<glyph unicode="&#x17a;" horiz-adv-x="1047" d="M-2 0l16 82l697 899h-260q-71 0 -109.5 -34t-83.5 -132l-4 -8h-86l82 291h717l-17 -84l-698 -897h364q49 0 89.5 31t85.5 137l20 47h86l-80 -332h-819zM553 1241l6 27q117 135 219 301h219l-6 -21q-157 -183 -356 -307h-82z" />
<glyph unicode="&#x17b;" horiz-adv-x="1239" d="M-35 0l17 82l1030 1278h-477q-151 0 -205 -168l-29 -88h-106l86 358h1011l-16 -84l-1032 -1276h547q152 0 206 168l29 88h107l-86 -358h-1082zM706 1753q0 65 33.5 104.5t89.5 39.5q115 0 115 -113q0 -70 -34.5 -106.5t-88.5 -36.5q-115 0 -115 112z" />
<glyph unicode="&#x17c;" horiz-adv-x="1047" d="M-2 0l16 82l697 899h-260q-71 0 -109.5 -34t-83.5 -132l-4 -8h-86l82 291h717l-17 -84l-698 -897h364q49 0 89.5 31t85.5 137l20 47h86l-80 -332h-819zM549 1415q0 65 33.5 104.5t89.5 39.5q115 0 115 -113q0 -70 -34.5 -106.5t-88.5 -36.5q-115 0 -115 112z" />
<glyph unicode="&#x17d;" horiz-adv-x="1239" d="M-35 0l17 82l1030 1278h-477q-151 0 -205 -168l-29 -88h-106l86 358h1011l-16 -84l-1032 -1276h547q152 0 206 168l29 88h107l-86 -358h-1082zM512 1880l6 27h74q95 -75 174 -187q129 110 271 187h86l-7 -27q-153 -150 -270 -301h-194q-50 152 -140 301z" />
<glyph unicode="&#x17e;" horiz-adv-x="1047" d="M-2 0l16 82l697 899h-260q-71 0 -109.5 -34t-83.5 -132l-4 -8h-86l82 291h717l-17 -84l-698 -897h364q49 0 89.5 31t85.5 137l20 47h86l-80 -332h-819zM406 1542l6 27h74q95 -75 174 -187q129 110 271 187h86l-7 -27q-153 -150 -270 -301h-194q-50 152 -140 301z" />
<glyph unicode="&#x17f;" horiz-adv-x="614" d="M-287 -475l19 94q51 -14 94 -14q102 0 159 87.5t99 289.5l260 1228q78 367 389 367q131 0 197.5 -41.5t66.5 -110.5q0 -133 -170 -133q0 191 -104 191q-67 0 -109 -54.5t-73 -199.5l-265 -1245q-52 -246 -154 -361t-290 -115q-58 0 -119 17z" />
<glyph unicode="&#x192;" d="M-82 -477l19 96q60 -14 94 -14q103 0 161 87t97 290l162 833h-207l18 96h207l39 205q70 367 389 367q131 0 197.5 -42t66.5 -110q0 -133 -170 -133q0 191 -104 191q-76 0 -117 -62.5t-65 -191.5l-43 -224h268l-19 -96h-268l-162 -831q-48 -247 -152 -361.5t-292 -114.5 q-61 0 -119 15z" />
<glyph unicode="&#x1a0;" horiz-adv-x="1593" d="M106 545q0 352 230 646t590 294q337 0 473 -279q149 50 149 140q0 21 -29 54q-30 33 -30 70q0 107 121 107q55 0 87 -32t32 -83q0 -208 -304 -321q31 -94 31 -219q0 -351 -228 -648t-585 -297q-243 0 -390 153.5t-147 414.5zM330 487q0 -192 87 -294.5t238 -102.5 q255 0 415.5 282.5t160.5 604.5q0 191 -84.5 294t-237.5 103q-256 0 -417.5 -283.5t-161.5 -603.5z" />
<glyph unicode="&#x1a1;" horiz-adv-x="1243" d="M88 403q0 276 168.5 495.5t441.5 219.5q253 0 346 -203q146 49 146 140q0 19 -30 54t-30 71q0 51 34.5 78.5t86.5 27.5q56 0 87.5 -32t31.5 -83q0 -206 -301 -319q18 -70 18 -158q0 -273 -167 -493.5t-439 -220.5q-185 0 -289 112t-104 311zM301 362q0 -282 203 -282 q169 0 269.5 200.5t100.5 444.5q0 285 -200 285q-167 0 -270 -201t-103 -447z" />
<glyph unicode="&#x1af;" horiz-adv-x="1593" d="M197 334q0 83 22 182l152 721q8 38 8 57q0 82 -148 82h-26l18 86h596l-16 -86h-27q-96 0 -140 -36.5t-61 -110.5l-153 -723q-25 -118 -25 -191q0 -213 295 -213q166 0 263 74t135 246l174 815q8 37 8 57q0 82 -148 82h-26l18 86h320l-58 -270q95 14 151 56t56 98 q0 21 -29 54q-30 33 -30 70q0 107 121 107q55 0 86.5 -32t31.5 -83q0 -129 -108 -223t-295 -125l-148 -696q-93 -438 -552 -438q-226 0 -345.5 92t-119.5 262z" />
<glyph unicode="&#x1b0;" horiz-adv-x="1337" d="M117 1012l18 86h381l-135 -613q-41 -186 -41 -247q0 -125 100 -125q105 0 226.5 151.5t158.5 323.5l107 510h198l-43 -197q91 13 149 55t58 99q0 21 -29 54q-30 33 -30 71q0 106 121 106q56 0 87.5 -32t31.5 -83q0 -129 -107.5 -223t-296.5 -125l-82 -383 q-31 -145 -31 -227q0 -104 68 -104q58 0 131 45l37 -60q-130 -114 -260 -114q-77 0 -124.5 55t-47.5 139q0 53 10 121h-16q-111 -183 -198.5 -248t-197.5 -65q-219 0 -219 227q0 65 37 225l80 359q18 81 18 122q0 97 -143 97h-16z" />
<glyph unicode="&#x1f0;" horiz-adv-x="596" d="M-287 -475l19 94q51 -14 94 -14q103 0 161.5 91.5t98.5 287.5l188 888q7 33 7 54q0 86 -125 86h-27l18 86h367l-235 -1114q-52 -244 -155.5 -360t-291.5 -116q-58 0 -119 17zM179 1542l6 27h74q95 -75 174 -187q129 110 271 187h86l-7 -27q-153 -150 -270 -301h-194 q-50 152 -140 301z" />
<glyph unicode="&#x1fa;" horiz-adv-x="1444" d="M-115 0l17 86h39q62 0 97.5 29.5t92.5 115.5l664 1008q-123 59 -123 199q0 103 68 163t178 60q109 0 177 -60t68 -163q0 -155 -145 -209l180 -1045q10 -56 34.5 -77t86.5 -21h27l-17 -86h-557l16 86h48q66 0 106.5 25.5t40.5 68.5q0 38 -4 64l-29 186h-553l-112 -174 q-39 -61 -39 -102q0 -68 114 -68h48l-17 -86h-506zM469 532h465l-49 320q-31 200 -37 295q-36 -75 -115 -198zM782 1438q0 -118 123 -123h13q135 0 135 123t-135 123q-136 0 -136 -123zM881 1700l6 20q114 107 219 242h219l-6 -16q-161 -151 -356 -246h-82z" />
<glyph unicode="&#x1fb;" horiz-adv-x="1186" d="M88 354q0 282 175.5 523t434.5 241q139 0 240 -74l90 52h66l-140 -656q-30 -141 -30 -227q0 -104 67 -104q58 0 148 53l37 -60q-147 -122 -289 -122q-160 0 -160 170q0 65 21 159h-13q-147 -329 -383 -329q-125 0 -194.5 98.5t-69.5 275.5zM297 346q0 -237 129 -237 q102 0 214 151t148 330l76 362q-47 74 -155 74q-175 0 -293.5 -222.5t-118.5 -457.5zM518 1419q0 109 72 166t174 57t174 -57t72 -166q0 -108 -72 -165.5t-174 -57.5t-174 57.5t-72 165.5zM629 1419q0 -65 40 -94t95 -29t95 29t40 94q0 66 -40 94.5t-95 28.5t-95 -28.5 t-40 -94.5zM717 1700l6 20q53 49 112.5 116t106.5 126h219l-6 -16q-25 -25 -66.5 -58t-90 -67.5t-100.5 -66.5t-99 -54h-82z" />
<glyph unicode="&#x1fc;" horiz-adv-x="1948" d="M-127 0l29 86h39q54 0 94.5 28t116.5 132l815 1118l-174 12l18 86h1159l-65 -358h-107q10 70 10 119q0 137 -145 137h-344l-117 -545h494l-21 -100h-493l-131 -613h395q172 0 231 168l33 88h107l-91 -358h-1097l16 86h27q103 0 144 35.5t54 101.5l56 266h-463l-154 -215 q-55 -77 -55 -120q0 -68 104 -68h48l-29 -86h-504zM539 592h409l162 768h-39q-97 -168 -260 -391zM1317 1579l6 27q117 135 219 301h219l-6 -21q-157 -183 -356 -307h-82z" />
<glyph unicode="&#x1fd;" horiz-adv-x="1665" d="M88 387q0 278 164.5 504.5t433.5 226.5q161 0 313 -127q153 127 355 127q130 0 201 -62t71 -173q0 -166 -172.5 -289t-421.5 -123h-35q-18 0 -36 2q-5 -25 -5 -86q0 -278 226 -278q171 0 295 147q20 -14 20 -51q0 -84 -96.5 -154.5t-257.5 -70.5q-141 0 -243 75t-136 219 q-116 -294 -367 -294q-140 0 -224.5 108t-84.5 299zM297 365q0 -122 45.5 -189t126.5 -67q102 0 177 99t104 267q38 233 155 418q-97 133 -209 133q-173 0 -286 -217t-113 -444zM916 1241l6 27q117 135 219 301h219l-6 -21q-157 -183 -356 -307h-82zM979 567h20 q181 0 298.5 88t117.5 228q0 137 -119 137q-100 0 -186.5 -127.5t-130.5 -325.5z" />
<glyph unicode="&#x1fe;" horiz-adv-x="1520" d="M106 545q0 352 230 646t590 294q165 0 291 -76l106 137h119l-150 -194q164 -152 164 -430q0 -351 -228 -648t-585 -297q-165 0 -289 74l-96 -133h-121l137 191q-168 156 -168 436zM330 487q0 -139 49 -237l751 1038q-84 86 -221 86q-256 0 -417.5 -283.5t-161.5 -603.5z M438 168q86 -78 217 -78q255 0 415.5 282.5t160.5 604.5q0 129 -43 227zM821 1579l6 27q117 135 219 301h219l-6 -21q-157 -183 -356 -307h-82z" />
<glyph unicode="&#x1ff;" horiz-adv-x="1182" d="M10 -82l162 195q-84 110 -84 290q0 276 168.5 495.5t441.5 219.5q149 0 244 -74l115 136h119l-166 -203q77 -106 77 -283q0 -275 -167 -497t-439 -222q-141 0 -243 72l-107 -129h-121zM301 362q0 -65 4 -88l533 644q-49 92 -164 92q-167 0 -270 -201t-103 -447zM338 168 q46 -92 166 -92q168 0 269 201.5t101 447.5q0 44 -6 84zM623 1241l6 27q117 135 219 301h219l-6 -21q-157 -183 -356 -307h-82z" />
<glyph unicode="&#x218;" horiz-adv-x="1114" d="M14 272q0 71 44.5 113.5t113.5 42.5q0 -157 83 -252.5t228 -95.5q143 0 227.5 71t84.5 193q0 97 -48.5 164t-209.5 158q-164 95 -227.5 195t-63.5 226q0 177 134 286.5t363 109.5q178 0 284 -62t106 -159q0 -142 -181 -142q0 120 -57 190t-168 70q-122 0 -200 -70 t-78 -188q0 -87 41.5 -150.5t211.5 -162.5q161 -94 232.5 -187t71.5 -212q0 -203 -142 -316.5t-395 -113.5q-209 0 -332 82.5t-123 209.5zM277 -453l4 27l42 97q42 100 79 204h178l-4 -20q-106 -166 -229 -308h-70z" />
<glyph unicode="&#x219;" horiz-adv-x="950" d="M51 211q0 66 36.5 100.5t92.5 34.5q0 -127 61.5 -197.5t172.5 -70.5q221 0 221 190q0 73 -47 123.5t-160 102.5q-147 70 -197.5 144.5t-50.5 172.5q0 134 109.5 219.5t285.5 85.5q151 0 235.5 -56t84.5 -138q0 -127 -154 -127q0 103 -48.5 165t-135.5 62 q-92 0 -145.5 -49.5t-53.5 -126.5q0 -68 51 -116t158 -95q246 -110 246 -318q0 -151 -116 -244t-308 -93q-155 0 -246.5 62.5t-91.5 168.5zM201 -453l4 27l42 97q42 100 79 204h178l-4 -20q-106 -166 -229 -308h-70z" />
<glyph unicode="&#x21a;" horiz-adv-x="1255" d="M156 1104l86 358h1153l-66 -358h-106q10 80 10 125q0 131 -135 131h-199l-242 -1135q-8 -38 -8 -57q0 -82 148 -82h47l-19 -86h-637l19 86h47q103 0 143 35.5t54 101.5l241 1137h-196q-146 0 -205 -168l-29 -88h-106zM300 -453l4 27l42 97q42 100 79 204h178l-4 -20 q-106 -166 -229 -308h-70z" />
<glyph unicode="&#x21b;" horiz-adv-x="754" d="M141 981l19 82q200 0 313 287h94l-53 -252h248l-25 -117h-248l-124 -584q-25 -118 -25 -176q0 -112 109 -112q83 0 167 45l35 -76q-138 -98 -276 -98q-223 0 -223 239q0 77 20 172l125 590h-156zM154 -453l4 27l42 97q42 100 79 204h178l-4 -20q-106 -166 -229 -308h-70z " />
<glyph unicode="&#x237;" horiz-adv-x="596" d="M-287 -475l19 94q51 -14 94 -14q103 0 161.5 91.5t98.5 287.5l188 888q7 33 7 54q0 86 -125 86h-27l18 86h367l-235 -1114q-52 -244 -155.5 -360t-291.5 -116q-58 0 -119 17z" />
<glyph unicode="&#x2bc;" horiz-adv-x="512" d="M168 901l8 86q209 47 209 172q0 36 -66 78q-67 42 -67 104q0 55 35 88t92 33q69 0 114.5 -46.5t45.5 -121.5q0 -151 -96.5 -254t-274.5 -139z" />
<glyph unicode="&#x2c6;" horiz-adv-x="1182" d="M375 1241l6 27q186 183 270 301h195q29 -117 139 -301l-6 -27h-72q-95 65 -182 184q-150 -127 -262 -184h-88z" />
<glyph unicode="&#x2c7;" horiz-adv-x="1182" d="M481 1542l6 27h74q95 -75 174 -187q129 110 271 187h86l-7 -27q-153 -150 -270 -301h-194q-50 152 -140 301z" />
<glyph unicode="&#x2c9;" horiz-adv-x="1024" d="M365 1241l26 121h594l-27 -121h-593z" />
<glyph unicode="&#x2d8;" horiz-adv-x="1182" d="M317 1522h95q16 -140 178 -140q163 0 221 140h94q-33 -132 -121.5 -206.5t-208.5 -74.5q-241 0 -258 281z" />
<glyph unicode="&#x2d9;" horiz-adv-x="623" d="M344 1415q0 65 33.5 104.5t89.5 39.5q115 0 115 -113q0 -70 -34.5 -106.5t-88.5 -36.5q-115 0 -115 112z" />
<glyph unicode="&#x2da;" horiz-adv-x="682" d="M258 1444q0 104 69 163.5t177 59.5t177 -59.5t69 -163.5q0 -105 -69.5 -164t-176.5 -59t-176.5 59t-69.5 164zM369 1444q0 -123 135 -123t135 123t-135 123t-135 -123z" />
<glyph unicode="&#x2db;" horiz-adv-x="1024" d="M340 -283q0 102 79.5 176t225.5 107h117q-109 -36 -176.5 -104t-67.5 -150q0 -51 32 -81t85 -30q52 0 133 17l-25 -111q-78 -33 -163 -33q-240 0 -240 209z" />
<glyph unicode="&#x2dc;" horiz-adv-x="1182" d="M344 1262q72 241 268 241q82 0 169 -64q87 -65 124 -65q89 0 123 109h92q-72 -242 -266 -242q-81 0 -169 65q-89 64 -126 64q-88 0 -123 -108h-92z" />
<glyph unicode="&#x2dd;" horiz-adv-x="1182" d="M193 1241l6 27q112 133 219 301h219l-6 -21q-140 -159 -348 -307h-90zM561 1241l6 27q106 121 219 301h220l-7 -21q-4 -13 -119.5 -120.5t-228.5 -186.5h-90z" />
<glyph unicode="&#x2f3;" horiz-adv-x="682" d="M-49 -348q0 54 19 96t52 70t78 42.5t97 14.5q51 0 96 -14.5t78 -42.5t52 -70t19 -96q0 -55 -19 -96.5t-52 -69.5t-78 -42.5t-96 -14.5q-52 0 -97 14.5t-78 42.5t-52 69.5t-19 96.5zM61 -348q0 -33 11 -56.5t29.5 -38t43 -21.5t52.5 -7q27 0 51.5 7t43 21.5t29.5 38 t11 56.5t-11 56.5t-29.5 38t-43 21.5t-51.5 7q-28 0 -52.5 -7t-43 -21.5t-29.5 -38t-11 -56.5z" />
<glyph unicode="&#x300;" horiz-adv-x="0" d="M-739 1548l6 21h205q60 -155 137 -301l-6 -27h-78q-154 150 -264 307z" />
<glyph unicode="&#x301;" horiz-adv-x="0" d="M-546 1241l6 27q117 135 219 301h219l-6 -21q-157 -183 -356 -307h-82z" />
<glyph unicode="&#x303;" horiz-adv-x="0" d="M-863 1262q72 241 268 241q82 0 169 -64q87 -65 124 -65q89 0 123 109h92q-72 -242 -266 -242q-81 0 -169 65q-89 64 -126 64q-88 0 -123 -108h-92z" />
<glyph unicode="&#x309;" horiz-adv-x="0" d="M-651 1552q0 60 61 93.5t164 33.5q99 0 157 -40t58 -113q0 -158 -231 -199l-35 -119h-101l23 185q121 15 159 43.5t38 76.5q0 64 -86 64q-94 0 -170 -82q-37 22 -37 57z" />
<glyph unicode="&#x30f;" horiz-adv-x="0" d="M-1020 1548v21h199q87 -183 174 -301v-27h-101q-160 134 -272 307zM-657 1548v21h198q80 -168 174 -301v-27h-100q-160 134 -272 307z" />
<glyph unicode="&#x323;" horiz-adv-x="0" d="M-876 -261q0 65 33.5 104.5t89.5 39.5q115 0 115 -113q0 -70 -34.5 -106.5t-88.5 -36.5q-115 0 -115 112z" />
<glyph unicode="&#x384;" horiz-adv-x="1182" d="M471 1241l4 27q100 167 143 301h185l-4 -21q-3 -18 -82 -116.5t-178 -190.5h-68z" />
<glyph unicode="&#x385;" horiz-adv-x="1182" d="M283 1382q0 115 98 115q92 0 92 -92q0 -115 -98 -115q-92 0 -92 92zM514 1389l4 26q95 160 144 301h184l-4 -20q-4 -19 -81 -115.5t-179 -191.5h-68zM715 1382q0 115 98 115q92 0 92 -92q0 -115 -98 -115q-92 0 -92 92z" />
<glyph unicode="&#x386;" horiz-adv-x="1444" d="M-115 0l17 86h39q55 0 92 28.5t98 131.5l713 1216h160l194 -1267q10 -64 35 -86.5t86 -22.5h27l-17 -86h-557l16 86h48q147 0 147 104q0 42 -4 70l-33 229h-538l-123 -215q-39 -68 -39 -114q0 -74 114 -74h48l-17 -86h-506zM234 1136l4 27q100 167 143 301h185l-4 -21 q-3 -18 -82 -116.5t-178 -190.5h-68zM469 592h463l-51 358q-31 218 -33 324q-47 -111 -160 -305z" />
<glyph unicode="&#x387;" horiz-adv-x="586" d="M188 713q0 71 36.5 114t98.5 43q127 0 127 -125q0 -73 -36.5 -115t-98.5 -42q-127 0 -127 125z" />
<glyph unicode="&#x388;" horiz-adv-x="1442" d="M56 1136l4 27q100 167 143 301h185l-4 -21q-3 -18 -82 -116.5t-178 -190.5h-68zM123 0l16 86h27q104 0 144.5 36.5t54.5 100.5l213 1006q6 28 6 49q0 48 -28 73t-116 25h-26l18 86h1032l-65 -358h-107l6 63q5 48 5 56q0 137 -146 137h-344l-117 -545h494l-20 -100h-494 l-131 -613h395q173 0 232 168l32 88h107l-90 -358h-1098z" />
<glyph unicode="&#x389;" horiz-adv-x="1786" d="M52 1136l4 27q100 167 143 301h185l-4 -21q-3 -18 -82 -116.5t-178 -190.5h-68zM119 0l16 86h27q99 0 142 37.5t59 109.5l213 1004q8 38 8 57q0 82 -148 82h-26l18 86h596l-18 -86h-27q-98 0 -141 -37t-58 -110l-88 -414h666l90 422q8 38 8 57q0 82 -147 82h-27l19 86 h596l-19 -86h-26q-98 0 -141 -37.5t-58 -109.5l-213 -1004q-8 -38 -8 -57q0 -82 147 -82h27l-19 -86h-596l17 86h26q98 0 142 36.5t59 110.5l101 480h-666l-102 -488q-9 -43 -9 -57q0 -82 148 -82h26l-18 -86h-596z" />
<glyph unicode="&#x38a;" horiz-adv-x="913" d="M52 1136l4 27q100 167 143 301h185l-4 -21q-3 -18 -82 -116.5t-178 -190.5h-68zM119 0l16 86h27q170 0 201 147l213 1004q8 38 8 57q0 82 -148 82h-26l18 86h596l-18 -86h-27q-98 0 -141 -37t-58 -110l-212 -1004q-9 -43 -9 -57q0 -82 148 -82h26l-18 -86h-596z" />
<glyph unicode="&#x38c;" horiz-adv-x="1520" d="M9 1136l4 27q100 167 143 301h185l-4 -21q-3 -18 -82 -116.5t-178 -190.5h-68zM106 545q0 352 230 646t590 294q238 0 384 -148t146 -415q0 -351 -228 -648t-585 -297q-243 0 -390 153.5t-147 414.5zM330 487q0 -192 87 -294.5t238 -102.5q255 0 415.5 282.5t160.5 604.5 q0 191 -84.5 294t-237.5 103q-256 0 -417.5 -283.5t-161.5 -603.5z" />
<glyph unicode="&#x38e;" horiz-adv-x="1530" d="M54 1136l4 27q100 167 143 301h185l-4 -21q-3 -18 -82 -116.5t-178 -190.5h-68zM408 1376l18 86h553l-18 -86h-103q-84 0 -84 -55q0 -40 27 -119l92 -274q49 -146 55 -246q20 38 154 215l195 260q75 100 75 166q0 53 -98 53h-76l19 86h506l-19 -86h-39q-39 0 -77.5 -31.5 t-108.5 -123.5l-477 -625l-80 -371q-8 -37 -8 -57q0 -82 147 -82h47l-18 -86h-637l18 86h47q103 0 143 35.5t54 101.5l80 377l-238 668q-23 65 -45.5 86.5t-77.5 21.5h-26z" />
<glyph unicode="&#x38f;" horiz-adv-x="1542" d="M-32 1136l4 27q100 167 143 301h185l-4 -21q-3 -18 -82 -116.5t-178 -190.5h-68zM-12 0l28 358h107v-67q0 -74 37.5 -100.5t128.5 -26.5h194l35 180q-169 37 -265.5 159.5t-96.5 299.5q0 278 201 480t567 202q255 0 403 -124.5t148 -342.5q0 -261 -150 -441t-448 -233 l-43 -180h194q92 0 141.5 27t81.5 100l29 67h106l-92 -358h-608l92 428q262 31 367.5 220t105.5 378q0 169 -90.5 258.5t-261.5 89.5q-275 0 -396.5 -193t-121.5 -423q0 -136 67.5 -225.5t190.5 -104.5l-78 -428h-573z" />
<glyph unicode="&#x390;" horiz-adv-x="684" d="M152 219q0 77 20 172l150 707h192l-149 -701q-25 -118 -25 -176q0 -112 109 -112q72 0 153 41l35 -76q-133 -94 -279 -94q-206 0 -206 239zM194 1382q0 115 98 115q92 0 92 -92q0 -115 -98 -115q-92 0 -92 92zM425 1389l4 26q95 160 144 301h184l-4 -20 q-4 -19 -81 -115.5t-179 -191.5h-68zM626 1382q0 115 98 115q92 0 92 -92q0 -115 -98 -115q-92 0 -92 92z" />
<glyph unicode="&#x391;" horiz-adv-x="1444" d="M-115 0l17 86h39q55 0 92 28.5t98 131.5l713 1216h160l194 -1267q10 -64 35 -86.5t86 -22.5h27l-17 -86h-557l16 86h48q147 0 147 104q0 42 -4 70l-33 229h-538l-123 -215q-39 -68 -39 -114q0 -74 114 -74h48l-17 -86h-506zM469 592h463l-51 358q-31 218 -33 324 q-47 -111 -160 -305z" />
<glyph unicode="&#x392;" horiz-adv-x="1339" d="M-43 0l16 86h27q170 0 201 147l213 1004q8 38 8 57q0 82 -148 82h-26l18 86h531q479 0 479 -307q0 -303 -334 -381l-2 -8q250 -50 250 -299q0 -225 -151 -346t-439 -121h-643zM379 102h199q391 0 391 379q0 234 -287 234h-172zM530 817h158q365 0 365 311q0 232 -283 232 h-123z" />
<glyph unicode="&#x393;" horiz-adv-x="1149" d="M-41 0l18 86h25q168 0 199 147l211 996q10 47 10 65q0 82 -148 82h-26l18 86h1018l-63 -358h-107q10 88 10 119q0 79 -41 108t-127 29h-309l-241 -1135q-9 -42 -9 -57q0 -82 148 -82h67l-18 -86h-635z" />
<glyph unicode="&#x394;" horiz-adv-x="1245" d="M-74 0l23 109l764 1353h178l176 -1339l-25 -123h-1116zM102 137h750l-94 803q-31 261 -31 334q-49 -117 -162 -316z" />
<glyph unicode="&#x395;" horiz-adv-x="1276" d="M-43 0l16 86h27q104 0 144.5 36.5t54.5 100.5l213 1006q6 28 6 49q0 48 -28 73t-116 25h-26l18 86h1032l-65 -358h-107l6 63q5 48 5 56q0 137 -146 137h-344l-117 -545h494l-20 -100h-494l-131 -613h395q173 0 232 168l32 88h107l-90 -358h-1098z" />
<glyph unicode="&#x396;" horiz-adv-x="1239" d="M-35 0l17 82l1030 1278h-477q-151 0 -205 -168l-29 -88h-106l86 358h1011l-16 -84l-1032 -1276h547q152 0 206 168l29 88h107l-86 -358h-1082z" />
<glyph unicode="&#x397;" horiz-adv-x="1624" d="M-43 0l16 86h27q99 0 142 37.5t59 109.5l213 1004q8 38 8 57q0 82 -148 82h-26l18 86h596l-18 -86h-27q-98 0 -141 -37t-58 -110l-88 -414h666l90 422q8 38 8 57q0 82 -147 82h-27l19 86h596l-19 -86h-26q-98 0 -141 -37.5t-58 -109.5l-213 -1004q-8 -38 -8 -57 q0 -82 147 -82h27l-19 -86h-596l17 86h26q98 0 142 36.5t59 110.5l101 480h-666l-102 -488q-9 -43 -9 -57q0 -82 148 -82h26l-18 -86h-596z" />
<glyph unicode="&#x398;" horiz-adv-x="1520" d="M106 545q0 352 230 646t590 294q238 0 384 -148t146 -415q0 -351 -228 -648t-585 -297q-243 0 -390 153.5t-147 414.5zM330 487q0 -192 87 -294.5t238 -102.5q255 0 415.5 282.5t160.5 604.5q0 191 -84.5 294t-237.5 103q-256 0 -417.5 -283.5t-161.5 -603.5zM446 561 l80 369h86l2 -39q3 -62 44.5 -78t105.5 -16h51q151 0 195 94l18 39h86l-80 -369h-86l-2 39q-4 85 -153 94h-52q-86 0 -124.5 -22t-65.5 -72l-19 -39h-86z" />
<glyph unicode="&#x399;" horiz-adv-x="752" d="M-43 0l16 86h27q170 0 201 147l213 1004q8 38 8 57q0 82 -148 82h-26l18 86h596l-18 -86h-27q-98 0 -141 -37t-58 -110l-212 -1004q-9 -43 -9 -57q0 -82 148 -82h26l-18 -86h-596z" />
<glyph unicode="&#x39a;" horiz-adv-x="1434" d="M-43 0l16 86h27q99 0 142 37.5t59 109.5l213 1004q8 38 8 57q0 82 -148 82h-26l18 86h596l-18 -86h-27q-98 0 -141 -37t-58 -110l-88 -414l-36 -151l528 485q154 141 154 184q0 45 -91 45l17 84h452l-16 -84q-53 0 -118 -35.5t-197 -156.5l-373 -338l248 -598 q68 -164 194 -164h6l-18 -86h-29q-162 0 -241 33.5t-127 156.5l-199 506l-211 -147l-67 -324q-9 -44 -9 -57q0 -82 148 -82h26l-18 -86h-596z" />
<glyph unicode="&#x39b;" horiz-adv-x="1382" d="M-115 0l19 86h39q60 0 94.5 29.5t91.5 130.5l682 1216h150l174 -1267q7 -53 30 -81t92 -28h27l-18 -86h-564l19 86h47q147 0 147 111q0 39 -4 63l-84 672q-20 160 -20 330q-61 -143 -166 -330l-365 -658q-38 -69 -38 -112q0 -76 116 -76h47l-18 -86h-498z" />
<glyph unicode="&#x39c;" horiz-adv-x="1921" d="M-41 0l18 86h27q102 0 141.5 36t53.5 101l215 1014q8 38 8 57q0 82 -148 82h-26l18 86h465l174 -1167l670 1167h457l-19 -86h-26q-98 0 -141 -37.5t-58 -109.5l-213 -1004q-8 -38 -8 -57q0 -82 147 -82h27l-19 -86h-544l18 86h6q87 0 122 32.5t52 96.5l234 1094 l-748 -1309h-110l-199 1309l-229 -1084q-9 -43 -9 -57q0 -82 148 -82h26l-18 -86h-512z" />
<glyph unicode="&#x39d;" horiz-adv-x="1563" d="M-41 0l18 86h27q96 0 138 37.5t59 109.5l213 1004q8 38 8 57q0 82 -148 82h-26l18 86h373l496 -1130l192 905q8 38 8 57q0 82 -147 82h-27l19 86h514l-19 -86h-26q-98 0 -140.5 -37.5t-58.5 -109.5l-260 -1229h-133l-527 1200l-206 -975q-9 -43 -9 -57q0 -82 148 -82h26 l-18 -86h-512z" />
<glyph unicode="&#x39e;" horiz-adv-x="1272" d="M-23 0l72 403h107q-4 -52 -4 -90q0 -125 139 -125h526q155 0 205 154l20 61h107l-94 -403h-1078zM256 1083l90 379h957l-70 -379h-107q7 77 7 97q0 118 -142 118h-403q-151 0 -205 -153l-21 -62h-106zM309 559l82 389h86l2 -39q3 -52 37 -73t113 -21h112q151 0 195 94 l18 39h86l-82 -389h-86l-2 39q-4 85 -155 94h-113q-89 0 -126.5 -22.5t-61.5 -71.5l-19 -39h-86z" />
<glyph unicode="&#x39f;" horiz-adv-x="1520" d="M106 545q0 352 230 646t590 294q238 0 384 -148t146 -415q0 -351 -228 -648t-585 -297q-243 0 -390 153.5t-147 414.5zM330 487q0 -192 87 -294.5t238 -102.5q255 0 415.5 282.5t160.5 604.5q0 191 -84.5 294t-237.5 103q-256 0 -417.5 -283.5t-161.5 -603.5z" />
<glyph unicode="&#x3a0;" horiz-adv-x="1563" d="M-43 0l16 86h27q99 0 142 37.5t59 109.5l213 1004q8 38 8 57q0 82 -148 82h-26l18 86h1407l-18 -86h-27q-97 0 -139.5 -36t-58.5 -111l-213 -1004q-9 -42 -9 -57q0 -82 148 -82h26l-18 -86h-596l18 86h27q97 0 139.5 37t59.5 110l239 1127h-604l-241 -1135q-9 -42 -9 -57 q0 -82 148 -82h26l-18 -86h-596z" />
<glyph unicode="&#x3a1;" horiz-adv-x="1270" d="M-41 0l18 86h27q96 0 139 37t58 110l213 1004q8 38 8 57q0 82 -148 82h-26l18 86h525q222 0 344 -103t122 -292q0 -233 -156.5 -365.5t-469.5 -132.5h-152l-73 -344q-9 -42 -9 -57q0 -82 148 -82h67l-18 -86h-635zM500 666h108q432 0 432 399q0 299 -299 299h-94z" />
<glyph unicode="&#x3a3;" horiz-adv-x="1239" d="M-72 0l13 66l575 661l-248 676l13 59h960l-65 -358h-107l6 61q4 41 4 58q0 135 -145 135h-422l197 -545l-15 -35l-512 -590h582q163 0 233 195l23 61h106l-104 -444h-1094z" />
<glyph unicode="&#x3a4;" horiz-adv-x="1255" d="M156 1104l86 358h1153l-66 -358h-106q10 80 10 125q0 131 -135 131h-199l-242 -1135q-8 -38 -8 -57q0 -82 148 -82h47l-19 -86h-637l19 86h47q103 0 143 35.5t54 101.5l241 1137h-196q-146 0 -205 -168l-29 -88h-106z" />
<glyph unicode="&#x3a5;" horiz-adv-x="1280" d="M158 1376l18 86h553l-18 -86h-103q-84 0 -84 -55q0 -40 27 -119l92 -274q49 -146 55 -246q20 38 154 215l195 260q75 100 75 166q0 53 -98 53h-76l19 86h506l-19 -86h-39q-39 0 -77.5 -31.5t-108.5 -123.5l-477 -625l-80 -371q-8 -37 -8 -57q0 -82 147 -82h47l-18 -86 h-637l18 86h47q103 0 143 35.5t54 101.5l80 377l-238 668q-23 65 -45.5 86.5t-77.5 21.5h-26z" />
<glyph unicode="&#x3a6;" horiz-adv-x="1567" d="M74 690q0 233 156.5 365.5t469.5 132.5h99l10 49q8 39 8 57q0 82 -151 82h-27l18 86h592l-18 -86h-23q-102 0 -144.5 -36.5t-57.5 -110.5l-9 -41h64q223 0 347 -103.5t124 -291.5q0 -232 -160 -365t-471 -133h-94l-14 -70q-9 -45 -9 -57q0 -82 152 -82h22l-18 -86h-590 l19 86h26q170 0 201 147l12 62h-67q-223 0 -345 103.5t-122 291.5zM291 692q0 -299 299 -299h41l147 699h-55q-432 0 -432 -400zM827 391h52q436 0 436 400q0 299 -303 299h-37z" />
<glyph unicode="&#x3a7;" horiz-adv-x="1352" d="M-100 0l18 86h8q67 0 119.5 35t122.5 112l453 494l-220 545q-42 104 -159 104h-27l18 86h555l-18 -86h-47q-96 0 -96 -57q0 -29 37 -123l116 -299l256 295q78 90 78 133q0 51 -98 51h-6l18 86h449l-19 -86h-18q-56 0 -100.5 -30t-131.5 -123l-387 -428l246 -600 q45 -109 141 -109h27l-18 -86h-553l18 86h23q61 0 96 20.5t35 51.5q0 42 -39 141l-133 326l-306 -340q-82 -91 -82 -144q0 -55 121 -55h6l-18 -86h-485z" />
<glyph unicode="&#x3a8;" horiz-adv-x="1696" d="M186 1376l19 86h397l-102 -483q-23 -109 -23 -172q0 -201 268 -201h31l135 631q9 42 9 57q0 82 -148 82h-27l19 86h584l-19 -86h-26q-96 0 -139.5 -36t-59.5 -111l-133 -623h49q165 0 250.5 73.5t134.5 299.5l102 483h371l-18 -86q-96 0 -140 -36.5t-59 -110.5l-53 -254 q-51 -244 -197 -354.5t-391 -110.5h-70l-59 -285q-8 -39 -8 -57q0 -82 147 -82h27l-19 -86h-583l16 86h27q97 0 141 36.5t59 110.5l58 277h-68q-409 0 -409 311q0 64 18 154l55 262q8 38 8 57q0 82 -147 82h-27z" />
<glyph unicode="&#x3a9;" horiz-adv-x="1542" d="M-12 0l28 358h107v-67q0 -74 37.5 -100.5t128.5 -26.5h194l35 180q-169 37 -265.5 159.5t-96.5 299.5q0 278 201 480t567 202q255 0 403 -124.5t148 -342.5q0 -261 -150 -441t-448 -233l-43 -180h194q92 0 141.5 27t81.5 100l29 67h106l-92 -358h-608l92 428 q262 31 367.5 220t105.5 378q0 169 -90.5 258.5t-261.5 89.5q-275 0 -396.5 -193t-121.5 -423q0 -136 67.5 -225.5t190.5 -104.5l-78 -428h-573z" />
<glyph unicode="&#x3aa;" horiz-adv-x="752" d="M-43 0l16 86h27q170 0 201 147l213 1004q8 38 8 57q0 82 -148 82h-26l18 86h596l-18 -86h-27q-98 0 -141 -37t-58 -110l-212 -1004q-9 -43 -9 -57q0 -82 148 -82h26l-18 -86h-596zM302 1735q0 129 110 129q103 0 103 -103q0 -129 -111 -129q-102 0 -102 103zM691 1735 q0 129 110 129q103 0 103 -103q0 -129 -111 -129q-102 0 -102 103z" />
<glyph unicode="&#x3ab;" horiz-adv-x="1280" d="M158 1376l18 86h553l-18 -86h-103q-84 0 -84 -55q0 -40 27 -119l92 -274q49 -146 55 -246q20 38 154 215l195 260q75 100 75 166q0 53 -98 53h-76l19 86h506l-19 -86h-39q-39 0 -77.5 -31.5t-108.5 -123.5l-477 -625l-80 -371q-8 -37 -8 -57q0 -82 147 -82h47l-18 -86 h-637l18 86h47q103 0 143 35.5t54 101.5l80 377l-238 668q-23 65 -45.5 86.5t-77.5 21.5h-26zM582 1735q0 129 110 129q103 0 103 -103q0 -129 -111 -129q-102 0 -102 103zM971 1735q0 129 110 129q103 0 103 -103q0 -129 -111 -129q-102 0 -102 103z" />
<glyph unicode="&#x3ac;" horiz-adv-x="1229" d="M84 358q0 323 161 541.5t386 218.5q217 0 260 -215h12q75 140 152 195h147q-116 -149 -186 -404l-60 -225q-32 -120 -32 -229q0 -117 94 -117q41 0 104 41l37 -66q-117 -108 -233 -108q-168 0 -187 217h-8q-145 -227 -346 -227q-138 0 -219.5 102t-81.5 276zM291 365 q0 -254 168 -254q214 0 340 479l32 129q4 15 -7 96.5t-54 128.5t-119 47q-149 0 -254.5 -189.5t-105.5 -436.5zM653 1241l4 27q100 167 143 301h185l-4 -21q-3 -18 -82 -116.5t-178 -190.5h-68z" />
<glyph unicode="&#x3ad;" horiz-adv-x="1016" d="M61 266q0 217 293 305l2 11q-149 63 -149 221q0 149 121.5 231t333.5 82q159 0 245 -47.5t86 -128.5q0 -139 -176 -139q0 221 -178 221q-116 0 -178 -66.5t-62 -169.5q0 -82 40.5 -121.5t97.5 -39.5q1 0 39 9q88 21 124 21q78 0 78 -55q0 -98 -127 -98q-76 0 -164 30 q-98 -22 -161.5 -89t-63.5 -160q0 -174 227 -174q202 0 365 151q23 -15 23 -51q0 -93 -112.5 -161t-301.5 -68q-402 0 -402 286zM616 1241l4 27q100 167 143 301h185l-4 -21q-3 -18 -82 -116.5t-178 -190.5h-68z" />
<glyph unicode="&#x3ae;" horiz-adv-x="1212" d="M88 0l148 694q32 150 32 342v34q0 15 -2 28h117q31 -40 41 -203h12q162 223 359 223q278 0 278 -264q0 -61 -16 -137l-183 -860q-32 -152 -32 -235q0 -85 8 -114h-197q-8 26 -8 78q0 107 41 295l180 846q13 61 13 94q0 166 -158 166q-233 0 -315 -391l-125 -596h-193z M692 1241l4 27q100 167 143 301h185l-4 -21q-3 -18 -82 -116.5t-178 -190.5h-68z" />
<glyph unicode="&#x3af;" horiz-adv-x="684" d="M152 219q0 77 20 172l150 707h192l-149 -701q-25 -118 -25 -176q0 -112 109 -112q72 0 153 41l35 -76q-133 -94 -279 -94q-206 0 -206 239zM382 1241l4 27q100 167 143 301h185l-4 -21q-3 -18 -82 -116.5t-178 -190.5h-68z" />
<glyph unicode="&#x3b0;" horiz-adv-x="1214" d="M117 1012l18 86h381l-141 -641q-17 -77 -17 -129q0 -217 209 -217q181 0 298.5 198t117.5 457q0 192 -143 213q19 141 131 141q73 0 115 -72t42 -194q0 -344 -168 -609t-438 -265q-172 0 -265 86.5t-93 240.5q0 68 14 127l80 359q18 81 18 122q0 97 -143 97h-16z M480 1382q0 115 98 115q92 0 92 -92q0 -115 -98 -115q-92 0 -92 92zM711 1389l4 26q95 160 144 301h184l-4 -20q-4 -19 -81 -115.5t-179 -191.5h-68zM912 1382q0 115 98 115q92 0 92 -92q0 -115 -98 -115q-92 0 -92 92z" />
<glyph unicode="&#x3b1;" horiz-adv-x="1229" d="M84 358q0 323 161 541.5t386 218.5q217 0 260 -215h12q75 140 152 195h147q-116 -149 -186 -404l-60 -225q-32 -120 -32 -229q0 -117 94 -117q41 0 104 41l37 -66q-117 -108 -233 -108q-168 0 -187 217h-8q-145 -227 -346 -227q-138 0 -219.5 102t-81.5 276zM291 365 q0 -254 168 -254q214 0 340 479l32 129q4 15 -7 96.5t-54 128.5t-119 47q-149 0 -254.5 -189.5t-105.5 -436.5z" />
<glyph unicode="&#x3b2;" horiz-adv-x="1223" d="M-16 -494l352 1659q84 398 483 398q179 0 281 -79.5t102 -221.5q0 -289 -340 -385v-9q236 -96 236 -336q0 -248 -138 -400t-366 -152q-190 0 -297 92l-121 -566h-192zM324 197q118 -111 262 -111q150 0 233.5 119.5t83.5 326.5q0 219 -162 281q-76 -29 -129 -29 q-71 0 -71 58q0 84 125 84q65 0 116 -17q103 35 164.5 127.5t61.5 212.5q0 101 -54 161t-145 60q-113 0 -179 -68.5t-102 -244.5z" />
<glyph unicode="&#x3b3;" horiz-adv-x="1108" d="M49 1010q128 94 232 94q126 0 170.5 -208.5t60.5 -713.5q162 134 271.5 350.5t109.5 350.5q0 91 -76 112q27 123 137 123q113 0 113 -125q0 -189 -177 -481.5t-378 -450.5q-34 -253 -112 -403t-171 -150q-67 0 -67 78q0 175 176 424q-24 565 -62 765t-110 200 q-38 0 -88 -27z" />
<glyph unicode="&#x3b4;" horiz-adv-x="1182" d="M82 367q0 425 522 569q-168 132 -168 293q0 156 113 247t289 91q154 0 245 -55t91 -132q0 -71 -47.5 -113t-125.5 -42q0 248 -186 248q-91 0 -148 -57.5t-57 -145.5q0 -123 201 -273q256 -186 256 -413q0 -266 -165 -435t-406 -169q-191 0 -302.5 104t-111.5 283z M276 371q0 -137 63.5 -211t174.5 -74q157 0 255.5 126.5t98.5 332.5q0 202 -192 336q-190 -54 -295 -189t-105 -321z" />
<glyph unicode="&#x3b5;" horiz-adv-x="1016" d="M61 266q0 217 293 305l2 11q-149 63 -149 221q0 149 121.5 231t333.5 82q159 0 245 -47.5t86 -128.5q0 -139 -176 -139q0 221 -178 221q-116 0 -178 -66.5t-62 -169.5q0 -82 40.5 -121.5t97.5 -39.5q1 0 39 9q88 21 124 21q78 0 78 -55q0 -98 -127 -98q-76 0 -164 30 q-98 -22 -161.5 -89t-63.5 -160q0 -174 227 -174q202 0 365 151q23 -15 23 -51q0 -93 -112.5 -161t-301.5 -68q-402 0 -402 286z" />
<glyph unicode="&#x3b6;" horiz-adv-x="946" d="M96 295q0 200 162 503t485 552q-193 30 -325 166l71 73q144 -141 345 -159q145 92 249 92q84 0 84 -60q0 -131 -329 -131q-237 -213 -390 -492t-153 -489q0 -75 45 -119.5t211 -85.5q117 -29 170 -74t53 -124q0 -120 -89.5 -218t-252.5 -141l-31 99q195 53 195 182 q0 55 -44.5 82t-166.5 55q-289 65 -289 289z" />
<glyph unicode="&#x3b7;" horiz-adv-x="1212" d="M88 0l148 694q32 150 32 342v34q0 15 -2 28h117q31 -40 41 -203h12q162 223 359 223q278 0 278 -264q0 -61 -16 -137l-183 -860q-32 -152 -32 -235q0 -85 8 -114h-197q-8 26 -8 78q0 107 41 295l180 846q13 61 13 94q0 166 -158 166q-233 0 -315 -391l-125 -596h-193z " />
<glyph unicode="&#x3b8;" d="M113 508q0 398 174 727.5t458 329.5q182 0 275.5 -134t93.5 -384q0 -376 -178.5 -721.5t-470.5 -345.5q-168 0 -260 136.5t-92 391.5zM293 387q0 -147 49 -225t129 -78q251 0 395 657h-532q-41 -200 -41 -354zM354 838h531q35 194 35 331q0 291 -183 291 q-239 0 -383 -622z" />
<glyph unicode="&#x3b9;" horiz-adv-x="684" d="M152 219q0 77 20 172l150 707h192l-149 -701q-25 -118 -25 -176q0 -112 109 -112q72 0 153 41l35 -76q-133 -94 -279 -94q-206 0 -206 239z" />
<glyph unicode="&#x3ba;" horiz-adv-x="1186" d="M90 0l170 807q19 90 19 108q0 97 -144 97h-16l18 86h377l-84 -389q-25 -116 -55 -211l184 252q172 234 258.5 300t190.5 66q80 0 126 -37.5t46 -97.5q0 -133 -158 -133q0 127 -86 127q-50 0 -117 -62.5t-194 -240.5l245 -436q57 -102 101.5 -133t101.5 -31h23l-21 -86 h-20q-145 0 -222.5 31.5t-156.5 175.5l-178 321l-133 -117l-84 -397h-191z" />
<glyph unicode="&#x3bb;" horiz-adv-x="1096" d="M-57 0l708 1063q-8 176 -44 277.5t-128 101.5q-91 0 -162 -88q-22 17 -22 76q0 66 46 106.5t132 40.5q133 0 199.5 -91t83.5 -286l55 -717q14 -189 67.5 -293t125.5 -104h10l-15 -86h-47q-135 0 -188 60t-72.5 302.5t-19.5 485.5h-6q-54 -141 -172 -328l-336 -520h-215z " />
<glyph unicode="&#x3bc;" horiz-adv-x="1237" d="M-4 -344q0 91 61 310q87 314 125 495l135 637h193l-135 -641q-23 -109 -23 -189q0 -157 150 -157q106 0 188 90t113 241l139 656h193l-164 -766q-25 -117 -25 -158q0 -65 60 -65q44 0 112 34l35 -69q-136 -94 -238 -94q-145 0 -153 196h-10q-133 -196 -297 -196 q-169 0 -232 120q-33 -170 -33 -247q0 -149 113 -166q-19 -179 -174 -179q-133 0 -133 148z" />
<glyph unicode="&#x3bd;" horiz-adv-x="1133" d="M49 1018q115 86 223 86q109 0 152 -149.5t94 -772.5q164 141 284 354t120 341q0 97 -80 118q21 123 137 123q113 0 113 -133q0 -195 -195.5 -499t-439.5 -486h-109q-54 640 -94 807.5t-104 167.5q-36 0 -74 -21z" />
<glyph unicode="&#x3be;" horiz-adv-x="963" d="M84 307q0 171 134.5 326t367.5 241l2 11q-283 72 -283 225q0 147 297 287q-191 24 -297 119l70 73q125 -98 325 -119q151 91 281 91q76 0 76 -50q0 -133 -363 -133q-200 -124 -200 -260q0 -129 200 -180q108 55 189 55q75 0 75 -53q0 -106 -190 -106q-47 0 -94 10 q-142 -51 -261.5 -194.5t-119.5 -280.5q0 -79 57.5 -129t239.5 -95q131 -30 181 -76.5t50 -121.5q0 -118 -89 -216t-253 -141l-30 99q194 54 194 180q0 60 -50.5 87.5t-162.5 49.5q-346 69 -346 301z" />
<glyph unicode="&#x3bf;" horiz-adv-x="1176" d="M88 403q0 276 168.5 495.5t441.5 219.5q181 0 285 -109t104 -315q0 -273 -167 -493.5t-439 -220.5q-185 0 -289 112t-104 311zM301 362q0 -282 203 -282q169 0 269.5 200.5t100.5 444.5q0 285 -200 285q-167 0 -270 -201t-103 -447z" />
<glyph unicode="&#x3c0;" horiz-adv-x="1282" d="M-23 25l25 84q100 0 158.5 69t109.5 219l179 531h-87q-130 0 -176 -129h-86q34 167 102.5 233t192.5 66h934l-37 -170h-219q-60 -174 -109 -404.5t-49 -320.5q0 -94 84 -94q41 0 107 30l33 -63q-120 -92 -230 -92q-161 0 -161 174q0 107 65.5 344t142.5 426h-391 l-151 -582q-62 -240 -130.5 -298t-174.5 -58q-76 0 -132 35z" />
<glyph unicode="&#x3c1;" horiz-adv-x="1249" d="M-18 -492l233 1092q57 267 188 392.5t351 125.5q190 0 296.5 -110t106.5 -316q0 -320 -153.5 -516t-378.5 -196q-206 0 -336 96q-5 -28 -12 -74q-7 -47 -19 -102l-84 -392h-192zM319 186q130 -100 293 -100q149 0 249 168.5t100 437.5q0 318 -218 318q-129 0 -208 -94 t-127 -316z" />
<glyph unicode="&#x3c2;" horiz-adv-x="969" d="M88 403q0 268 173 491.5t437 223.5q142 0 220.5 -56.5t78.5 -139.5q0 -62 -49.5 -103t-132.5 -41q0 109 -42 175.5t-116 66.5q-142 0 -249 -208t-107 -400q0 -99 50.5 -155t195.5 -97q130 -36 178.5 -85.5t48.5 -125.5q0 -120 -89.5 -218t-252.5 -141l-31 99 q195 53 195 182q0 60 -48.5 91.5t-162.5 57.5q-297 73 -297 383z" />
<glyph unicode="&#x3c3;" horiz-adv-x="1237" d="M88 430q0 325 203.5 496.5t537.5 171.5h500l-35 -170h-327q123 -167 123 -361q0 -267 -150.5 -429.5t-409.5 -162.5q-204 0 -323 122.5t-119 332.5zM281 406q0 -153 73.5 -240.5t198.5 -87.5q166 0 254 147.5t88 421.5q0 171 -45 281h-33q-244 0 -390 -132t-146 -390z " />
<glyph unicode="&#x3c4;" horiz-adv-x="1012" d="M94 754q71 344 336 344h643l-35 -170h-362q-176 -509 -176 -707q0 -112 108 -112q73 0 154 41l35 -76q-128 -94 -279 -94q-207 0 -207 194q0 219 260 754h-182q-167 0 -209 -174h-86z" />
<glyph unicode="&#x3c5;" horiz-adv-x="1214" d="M117 1012l18 86h381l-141 -641q-17 -77 -17 -129q0 -217 209 -217q181 0 298.5 198t117.5 457q0 192 -143 213q19 141 131 141q73 0 115 -72t42 -194q0 -344 -168 -609t-438 -265q-172 0 -265 86.5t-93 240.5q0 68 14 127l80 359q18 81 18 122q0 97 -143 97h-16z" />
<glyph unicode="&#x3c6;" horiz-adv-x="1380" d="M88 444q0 262 171 457.5t486 214.5l95 440h123l-95 -440q201 -18 309.5 -138t108.5 -325q0 -260 -169 -458.5t-492 -217.5l-99 -469h-123l101 472q-197 18 -306.5 141.5t-109.5 322.5zM297 403q0 -284 227 -323l197 926q-205 -26 -314.5 -193t-109.5 -410zM647 80 q209 23 319.5 191.5t110.5 412.5q0 288 -233 322z" />
<glyph unicode="&#x3c7;" horiz-adv-x="1081" d="M-240 -492l658 871l-70 422q-31 184 -115 184q-61 0 -112 -27l-25 66q110 80 217 80q75 0 111 -46t53 -196l43 -350l393 586h226l-580 -803l78 -477q20 -124 48 -157.5t63 -33.5q54 0 112 27l21 -66q-110 -80 -213 -80q-72 0 -107 51t-53 197l-51 404l-453 -652h-244z " />
<glyph unicode="&#x3c8;" horiz-adv-x="1450" d="M117 1012l18 86h375l-141 -672q-11 -52 -11 -96q0 -202 244 -219l309 1445h123l-307 -1439q221 31 347 207.5t126 431.5q0 169 -113 231q27 123 123 123q133 0 133 -229q0 -349 -170 -607t-475 -290l-100 -476h-123l100 474q-197 7 -304 93t-107 232q0 62 14 127l76 363 q22 105 22 118q0 97 -143 97h-16z" />
<glyph unicode="&#x3c9;" horiz-adv-x="1565" d="M88 358q0 226 108 423.5t308 336.5l71 -67q-288 -341 -288 -701q0 -125 42.5 -192.5t110.5 -67.5q175 0 262 250q-10 73 -10 158q0 126 40 197t102 71q73 0 73 -100q0 -138 -110 -338q12 -111 61.5 -174.5t124.5 -63.5q157 0 230 207t73 412q0 184 -59 342l100 67 q150 -189 150 -475q0 -263 -123.5 -463t-362.5 -200q-206 0 -254 210h-8q-112 -210 -328 -210q-141 0 -227 101.5t-86 276.5z" />
<glyph unicode="&#x3ca;" horiz-adv-x="684" d="M152 219q0 77 20 172l150 707h192l-149 -701q-25 -118 -25 -176q0 -112 109 -112q72 0 153 41l35 -76q-133 -94 -279 -94q-206 0 -206 239zM204 1397q0 129 110 129q103 0 103 -103q0 -129 -111 -129q-102 0 -102 103zM593 1397q0 129 110 129q103 0 103 -103 q0 -129 -111 -129q-102 0 -102 103z" />
<glyph unicode="&#x3cb;" horiz-adv-x="1214" d="M117 1012l18 86h381l-141 -641q-17 -77 -17 -129q0 -217 209 -217q181 0 298.5 198t117.5 457q0 192 -143 213q19 141 131 141q73 0 115 -72t42 -194q0 -344 -168 -609t-438 -265q-172 0 -265 86.5t-93 240.5q0 68 14 127l80 359q18 81 18 122q0 97 -143 97h-16z M492 1397q0 129 110 129q103 0 103 -103q0 -129 -111 -129q-102 0 -102 103zM881 1397q0 129 110 129q103 0 103 -103q0 -129 -111 -129q-102 0 -102 103z" />
<glyph unicode="&#x3cc;" horiz-adv-x="1176" d="M88 403q0 276 168.5 495.5t441.5 219.5q181 0 285 -109t104 -315q0 -273 -167 -493.5t-439 -220.5q-185 0 -289 112t-104 311zM301 362q0 -282 203 -282q169 0 269.5 200.5t100.5 444.5q0 285 -200 285q-167 0 -270 -201t-103 -447zM684 1241l4 27q100 167 143 301h185 l-4 -21q-3 -18 -82 -116.5t-178 -190.5h-68z" />
<glyph unicode="&#x3cd;" horiz-adv-x="1214" d="M117 1012l18 86h381l-141 -641q-17 -77 -17 -129q0 -217 209 -217q181 0 298.5 198t117.5 457q0 192 -143 213q19 141 131 141q73 0 115 -72t42 -194q0 -344 -168 -609t-438 -265q-172 0 -265 86.5t-93 240.5q0 68 14 127l80 359q18 81 18 122q0 97 -143 97h-16z M674 1241l4 27q100 167 143 301h185l-4 -21q-3 -18 -82 -116.5t-178 -190.5h-68z" />
<glyph unicode="&#x3ce;" horiz-adv-x="1565" d="M88 358q0 226 108 423.5t308 336.5l71 -67q-288 -341 -288 -701q0 -125 42.5 -192.5t110.5 -67.5q175 0 262 250q-10 73 -10 158q0 126 40 197t102 71q73 0 73 -100q0 -138 -110 -338q12 -111 61.5 -174.5t124.5 -63.5q157 0 230 207t73 412q0 184 -59 342l100 67 q150 -189 150 -475q0 -263 -123.5 -463t-362.5 -200q-206 0 -254 210h-8q-112 -210 -328 -210q-141 0 -227 101.5t-86 276.5zM840 1241l4 27q100 167 143 301h185l-4 -21q-3 -18 -82 -116.5t-178 -190.5h-68z" />
<glyph unicode="&#x3d1;" horiz-adv-x="1237" d="M74 750l18 86h137q52 0 87.5 -9t57.5 -25.5t31 -39.5t9 -51q0 -36 -16 -93t-35.5 -121.5t-35.5 -127.5t-16 -111q0 -38 10.5 -69.5t32.5 -54t56 -35.5t82 -13q172 0 290 198t174 590q-153 3 -257.5 35t-169 83t-93 115t-28.5 130q0 75 25.5 136t72.5 103.5t115 65.5 t153 23q107 0 182 -34t122.5 -98t69 -157t21.5 -211q0 -23 -2 -51.5t-4 -52.5h144l-17 -87h-137q-17 -124 -46.5 -238.5t-72.5 -214t-99.5 -181t-127.5 -139.5t-156.5 -89.5t-185.5 -31.5q-95 0 -161 23.5t-107 62.5t-59.5 90.5t-18.5 107.5q0 33 7.5 74t18.5 83.5t24 84.5 t24 77.5t18.5 62t7.5 38.5q0 31 -18 48.5t-62 17.5h-65zM588 1243q0 -55 19 -105t63 -88t117.5 -61t181.5 -24q2 29 3 56t1 52q0 98 -15.5 170t-42.5 119.5t-63 70.5t-78 23q-45 0 -80 -15.5t-58.5 -43.5t-35.5 -67t-12 -87z" />
<glyph unicode="&#x3d2;" horiz-adv-x="1311" d="M160 1378l18 84h105q70 0 117.5 -13.5t82 -44.5t59.5 -82.5t50 -127.5q22 -68 40 -137t31.5 -134.5t23 -125.5t15.5 -111q34 67 71.5 137.5t76 138t75.5 129t70 111.5q56 84 104 137t92 83t86 41.5t87 11.5q59 0 97 -28t38 -91q0 -33 -10 -59.5t-27 -45.5t-39 -29.5 t-45 -11.5q-6 42 -25 71.5t-61 29.5q-25 0 -51 -10t-56.5 -38t-68.5 -77.5t-88 -128.5q-22 -34 -51 -80.5t-60 -100t-62.5 -112t-59 -116t-48 -112t-30.5 -100.5l-45 -211q-3 -12 -5.5 -30t-2.5 -27q0 -26 11 -42t30.5 -25t46.5 -12t59 -3h47l-18 -86h-637l18 86h47 q34 0 65 4t57 18.5t45.5 41.5t29.5 73l39 180q6 28 8 58.5t2 62.5q1 59 -7 122.5t-21 126t-30 121.5t-34 111.5t-33 94.5t-27 71q-15 39 -33 76t-41.5 66t-53 47t-66.5 18h-8z" />
<glyph unicode="&#x3d6;" horiz-adv-x="1903" d="M92 754q20 93 52.5 158t76 106.5t96 60.5t111.5 19h1264q45 0 78.5 13.5t57 37.5t38 55.5t22.5 67.5h86q-20 -93 -53 -158.5t-76.5 -106.5t-96.5 -60t-112 -19h-80q11 -24 22.5 -55t20.5 -67t15 -76.5t6 -82.5q0 -87 -12.5 -170t-39 -157.5t-67.5 -136.5t-96.5 -107.5 t-127 -70.5t-159.5 -25q-53 0 -94.5 16t-71 44t-47.5 66.5t-24 83.5h-9q-24 -45 -58 -83.5t-76 -66.5t-92 -44t-107 -16q-72 0 -129 21t-96.5 62t-61 101.5t-21.5 140.5q0 81 22 165t59.5 164.5t88 155t107.5 138.5h-135q-45 0 -78.5 -13.5t-56.5 -37.5t-37.5 -55.5 t-22.5 -67.5h-86zM432 299q0 -56 12.5 -95.5t34 -65t51 -37t64.5 -11.5q49 0 88.5 17t70.5 47t55 72t42 93q-3 22 -5.5 50.5t-2.5 62.5q0 70 10.5 119t29 80.5t43 46t52.5 14.5q32 0 52 -20.5t20 -67.5q0 -41 -12 -84.5t-29 -83.5t-35.5 -72t-30.5 -49q0 -44 8.5 -84.5 t28 -71.5t51 -50t76.5 -19q65 0 115 31.5t86 82.5t60 114.5t38.5 127t20.5 120.5t6 96q0 47 -2 85t-5.5 69.5t-8 58.5t-9.5 53h-758q-39 -59 -78 -133.5t-69.5 -157.5t-50 -169.5t-19.5 -168.5z" />
<glyph unicode="&#x400;" horiz-adv-x="1276" d="M-43 0l16 86h27q104 0 144.5 36.5t54.5 100.5l213 1006q6 28 6 49q0 48 -28 73t-116 25h-26l18 86h1032l-65 -358h-107l6 63q5 48 5 56q0 137 -146 137h-344l-117 -545h494l-20 -100h-494l-131 -613h395q173 0 232 168l32 88h107l-90 -358h-1098zM585 1886l6 21h205 q60 -155 137 -301l-6 -27h-78q-154 150 -264 307z" />
<glyph unicode="&#x401;" horiz-adv-x="1276" d="M-43 0l16 86h27q104 0 144.5 36.5t54.5 100.5l213 1006q6 28 6 49q0 48 -28 73t-116 25h-26l18 86h1032l-65 -358h-107l6 63q5 48 5 56q0 137 -146 137h-344l-117 -545h494l-20 -100h-494l-131 -613h395q173 0 232 168l32 88h107l-90 -358h-1098zM541 1735q0 129 110 129 q103 0 103 -103q0 -129 -111 -129q-102 0 -102 103zM930 1735q0 129 110 129q103 0 103 -103q0 -129 -111 -129q-102 0 -102 103z" />
<glyph unicode="&#x402;" horiz-adv-x="1565" d="M147 0l19 86h47q103 0 143 35.5t54 101.5l241 1137h-155q-146 0 -205 -168l-29 -88h-106l86 358h1071l-66 -358h-106q10 80 10 125q0 131 -135 131h-158l-113 -524q180 61 324 61q389 0 389 -326q0 -194 -81 -387.5t-357 -193.5q-106 0 -162 22l27 92q55 -18 114 -18 q105 0 153 67.5t72.5 200.5t24.5 211q0 209 -229 209q-144 0 -297 -51l-107 -498q-8 -37 -8 -57q0 -82 148 -82h26l-18 -86h-617z" />
<glyph unicode="&#x403;" horiz-adv-x="1149" d="M-41 0l18 86h25q168 0 199 147l211 996q10 47 10 65q0 82 -148 82h-26l18 86h1018l-63 -358h-107q10 88 10 119q0 79 -41 108t-127 29h-309l-241 -1135q-9 -42 -9 -57q0 -82 148 -82h67l-18 -86h-635zM711 1579l6 27q117 135 219 301h219l-6 -21q-157 -183 -356 -307h-82 z" />
<glyph unicode="&#x404;" horiz-adv-x="1257" d="M106 528q0 388 242 671.5t602 283.5q179 0 279 -61.5t100 -166.5q0 -73 -55 -116t-146 -43q0 278 -204 278q-186 0 -334.5 -156.5t-220.5 -429.5h571l-20 -100h-574q-16 -98 -16 -192q0 -383 364 -383q237 0 379 186q27 -19 27 -68q0 -98 -114 -174.5t-314 -76.5 q-267 0 -416.5 143t-149.5 405z" />
<glyph unicode="&#x405;" horiz-adv-x="1114" d="M14 272q0 71 44.5 113.5t113.5 42.5q0 -157 83 -252.5t228 -95.5q143 0 227.5 71t84.5 193q0 97 -48.5 164t-209.5 158q-164 95 -227.5 195t-63.5 226q0 177 134 286.5t363 109.5q178 0 284 -62t106 -159q0 -142 -181 -142q0 120 -57 190t-168 70q-122 0 -200 -70 t-78 -188q0 -87 41.5 -150.5t211.5 -162.5q161 -94 232.5 -187t71.5 -212q0 -203 -142 -316.5t-395 -113.5q-209 0 -332 82.5t-123 209.5z" />
<glyph unicode="&#x406;" horiz-adv-x="752" d="M-43 0l16 86h27q170 0 201 147l213 1004q8 38 8 57q0 82 -148 82h-26l18 86h596l-18 -86h-27q-98 0 -141 -37t-58 -110l-212 -1004q-9 -43 -9 -57q0 -82 148 -82h26l-18 -86h-596z" />
<glyph unicode="&#x407;" horiz-adv-x="752" d="M-43 0l16 86h27q170 0 201 147l213 1004q8 38 8 57q0 82 -148 82h-26l18 86h596l-18 -86h-27q-98 0 -141 -37t-58 -110l-212 -1004q-9 -43 -9 -57q0 -82 148 -82h26l-18 -86h-596zM302 1735q0 129 110 129q103 0 103 -103q0 -129 -111 -129q-102 0 -102 103zM691 1735 q0 129 110 129q103 0 103 -103q0 -129 -111 -129q-102 0 -102 103z" />
<glyph unicode="&#x408;" horiz-adv-x="731" d="M-317 -469l28 92q51 -18 133 -18q119 0 185 89t108 288l266 1255q9 42 9 57q0 82 -148 82h-26l18 86h596l-18 -86h-27q-98 0 -141 -37t-58 -110l-266 -1245q-54 -251 -171.5 -363.5t-320.5 -112.5q-91 0 -167 23z" />
<glyph unicode="&#x409;" horiz-adv-x="1821" d="M-96 123q0 62 34 96.5t87 34.5q0 -96 77 -96q185 0 372.5 546t187.5 617q0 55 -150 55h-31l19 86h987l-19 -86h-26q-98 0 -141 -37.5t-58 -109.5l-90 -420h55q504 0 504 -342q0 -225 -151 -346t-439 -121h-540l16 86h27q97 0 141 36.5t59 110.5l240 1127h-274 q-57 -222 -162.5 -548.5t-207 -522.5t-179.5 -249.5t-176 -53.5q-76 0 -119 38.5t-43 98.5zM1004 102h96q391 0 391 349q0 139 -71.5 200.5t-217.5 61.5h-69z" />
<glyph unicode="&#x40a;" horiz-adv-x="1987" d="M-43 0l16 86h27q99 0 142 37.5t59 109.5l213 1004q8 38 8 57q0 82 -148 82h-26l18 86h596l-18 -86h-27q-98 0 -141 -37t-58 -110l-88 -414h584l90 422q8 38 8 57q0 82 -147 82h-27l19 86h596l-19 -86h-26q-98 0 -141 -37t-58 -110l-90 -420h55q504 0 504 -342 q0 -225 -151 -346t-439 -121h-540l16 86h27q97 0 141 36.5t59 110.5l101 480h-584l-102 -488q-9 -43 -9 -57q0 -82 148 -82h26l-18 -86h-596zM1169 102h97q391 0 391 349q0 139 -70.5 200.5t-218.5 61.5h-70z" />
<glyph unicode="&#x40b;" horiz-adv-x="1702" d="M147 0l19 86h47q103 0 143 35.5t54 101.5l241 1137h-155q-146 0 -205 -168l-29 -88h-106l86 358h1071l-66 -358h-106q10 80 10 125q0 131 -135 131h-158l-113 -524q180 61 324 61q391 0 391 -303q0 -95 -28 -221l-31 -148q-8 -38 -8 -57q0 -82 147 -82h27l-19 -86h-596 l17 86h26q170 0 201 147l27 129q26 124 26 218q0 194 -229 194q-144 0 -297 -51l-107 -498q-8 -37 -8 -57q0 -82 148 -82h26l-18 -86h-617z" />
<glyph unicode="&#x40c;" horiz-adv-x="1434" d="M-43 0l16 86h27q98 0 141 37.5t60 109.5l213 1004q8 38 8 57q0 82 -148 82h-26l18 86h596l-18 -86h-27q-98 0 -141 -37.5t-58 -109.5l-94 -447q140 0 202.5 50t205.5 309q99 177 191 255.5t231 78.5q166 0 166 -123q0 -134 -129 -144q0 115 -101 115q-141 0 -272 -242 q-149 -267 -223 -307q119 -7 174 -178l118 -346q56 -164 207 -164h6l-18 -86h-29q-177 0 -252 30t-116 163l-111 356q-25 79 -63.5 109t-206.5 30l-98 -463q-9 -43 -9 -57q0 -82 148 -82h26l-18 -86h-596zM869 1579l6 27q117 135 219 301h219l-6 -21q-157 -183 -356 -307 h-82z" />
<glyph unicode="&#x40d;" horiz-adv-x="1645" d="M-43 0l16 86h27q99 0 142 37.5t59 109.5l213 1004q8 38 8 57q0 82 -148 82h-26l18 86h596l-18 -86h-27q-98 0 -141 -37t-58 -110l-163 -783l839 736l13 55q8 34 8 57q0 82 -148 82h-26l18 86h596l-18 -86h-27q-98 0 -141 -37t-58 -110l-213 -1004q-8 -38 -8 -57 q0 -82 148 -82h26l-18 -86h-596l16 86h27q170 0 201 147l163 785l-841 -739l-10 -54q-9 -49 -9 -57q0 -82 148 -82h26l-18 -86h-596zM735 1886l6 21h205q60 -155 137 -301l-6 -27h-78q-154 150 -264 307z" />
<glyph unicode="&#x40e;" horiz-adv-x="1372" d="M86 -10l20 96h113q221 0 359 223l-259 959q-17 63 -40.5 85.5t-81.5 22.5h-27l18 86h568l-17 -86h-55q-139 0 -139 -100q0 -46 16 -113l115 -448q43 -167 57 -277q55 120 148 271l297 479q39 63 39 115q0 73 -115 73h-47l16 86h500l-19 -86h-39q-57 0 -90 -27.5 t-98 -131.5l-524 -842q-165 -266 -251 -325.5t-314 -59.5h-150zM631 1770q0 37 11 69l182 47q-14 -44 -14 -90q0 -108 127 -108q232 0 391 252l76 -48q-194 -313 -498 -313q-275 0 -275 191z" />
<glyph unicode="&#x40f;" horiz-adv-x="1563" d="M-39 0l19 86h24q98 0 140 36.5t57 102.5l217 1012q8 37 8 57q0 82 -147 82h-27l18 86h596l-18 -86h-27q-95 0 -139.5 -36t-60.5 -111l-238 -1127h604l242 1135q8 38 8 57q0 82 -147 82h-27l18 86h596l-18 -86h-27q-96 0 -138 -33.5t-58 -103.5l-217 -1014q-9 -42 -9 -57 q0 -82 148 -82h26l-18 -86h-426q-228 0 -322 -430h-94q25 108 25 192q0 238 -182 238h-406z" />
<glyph unicode="&#x410;" horiz-adv-x="1444" d="M-115 0l17 86h39q55 0 92 28.5t98 131.5l713 1216h160l194 -1267q10 -64 35 -86.5t86 -22.5h27l-17 -86h-557l16 86h48q147 0 147 104q0 42 -4 70l-33 229h-538l-123 -215q-39 -68 -39 -114q0 -74 114 -74h48l-17 -86h-506zM469 592h463l-51 358q-31 218 -33 324 q-47 -111 -160 -305z" />
<glyph unicode="&#x411;" horiz-adv-x="1237" d="M-43 0l16 86h27q170 0 201 147l213 1004q8 38 8 57q0 82 -148 82h-26l18 86h959l-66 -358h-106q10 80 10 125q0 131 -135 131h-281l-119 -551h117q504 0 504 -342q0 -225 -151 -346t-439 -121h-602zM379 102h158q391 0 391 349q0 139 -70.5 200.5t-218.5 61.5h-131z" />
<glyph unicode="&#x412;" horiz-adv-x="1339" d="M-43 0l16 86h27q170 0 201 147l213 1004q8 38 8 57q0 82 -148 82h-26l18 86h531q479 0 479 -307q0 -303 -334 -381l-2 -8q250 -50 250 -299q0 -225 -151 -346t-439 -121h-643zM379 102h199q391 0 391 379q0 234 -287 234h-172zM530 817h158q365 0 365 311q0 232 -283 232 h-123z" />
<glyph unicode="&#x413;" horiz-adv-x="1149" d="M-41 0l18 86h25q168 0 199 147l211 996q10 47 10 65q0 82 -148 82h-26l18 86h1018l-63 -358h-107q10 88 10 119q0 79 -41 108t-127 29h-309l-241 -1135q-9 -42 -9 -57q0 -82 148 -82h67l-18 -86h-635z" />
<glyph unicode="&#x414;" horiz-adv-x="1397" d="M-186 -430l114 532h123q338 458 488.5 792.5t150.5 422.5q0 28 -27.5 43.5t-136.5 15.5h-6l19 86h942l-19 -86h-26q-83 0 -120 -34.5t-52 -102.5l-211 -989q-6 -28 -6 -51q0 -97 143 -97h41l-115 -532h-94q22 102 22 176q0 254 -233 254h-510q-302 0 -393 -430h-94z M193 102h624l266 1258h-260q-113 -509 -630 -1258z" />
<glyph unicode="&#x415;" horiz-adv-x="1276" d="M-43 0l16 86h27q104 0 144.5 36.5t54.5 100.5l213 1006q6 28 6 49q0 48 -28 73t-116 25h-26l18 86h1032l-65 -358h-107l6 63q5 48 5 56q0 137 -146 137h-344l-117 -545h494l-20 -100h-494l-131 -613h395q173 0 232 168l32 88h107l-90 -358h-1098z" />
<glyph unicode="&#x416;" horiz-adv-x="2005" d="M-111 0l19 86h6q162 0 262 164l203 346q101 172 344 180q-81 68 -156 305q-53 169 -87.5 205.5t-78.5 36.5q-92 0 -137 -115q-74 30 -74 119q0 148 183 148q114 0 172.5 -70t113.5 -264q69 -231 127 -295t148 -64l96 455q8 38 8 57q0 82 -147 82h-27l19 86h579l-18 -86 h-27q-97 0 -140 -36.5t-58 -110.5l-95 -447q157 0 230.5 56t193.5 303q87 178 178.5 256t221.5 78q157 0 157 -119q0 -138 -129 -148q0 115 -96 115q-71 0 -122 -51.5t-122 -190.5q-131 -259 -227 -307q97 -34 145 -178l119 -346q56 -164 207 -164h6l-18 -86h-29 q-167 0 -249.5 35.5t-119.5 157.5l-110 356q-28 90 -76.5 114.5t-179.5 24.5l-98 -463q-9 -43 -9 -57q0 -82 148 -82h26l-18 -86h-580l17 86h26q97 0 140.5 36t60.5 111l96 455q-165 0 -231.5 -24.5t-116.5 -114.5l-205 -356q-68 -118 -135 -155.5t-270 -37.5h-66z" />
<glyph unicode="&#x417;" horiz-adv-x="1235" d="M27 244q0 70 44 109.5t111 39.5q0 -119 87.5 -211t232.5 -92q340 0 340 350q0 121 -81 189.5t-231 68.5h-159l22 105h174q171 0 284.5 96.5t113.5 249.5q0 109 -64 170t-180 61q-228 0 -291 -305q-158 0 -158 129q0 121 127.5 200t323.5 79q201 0 328 -87.5t127 -234.5 q0 -166 -115 -276t-305 -133q141 -19 227 -102.5t86 -207.5q0 -223 -154 -344t-438 -121q-216 0 -334 71.5t-118 195.5z" />
<glyph unicode="&#x418;" horiz-adv-x="1645" d="M-43 0l16 86h27q99 0 142 37.5t59 109.5l213 1004q8 38 8 57q0 82 -148 82h-26l18 86h596l-18 -86h-27q-98 0 -141 -37t-58 -110l-163 -783l839 736l13 55q8 34 8 57q0 82 -148 82h-26l18 86h596l-18 -86h-27q-98 0 -141 -37t-58 -110l-213 -1004q-8 -38 -8 -57 q0 -82 148 -82h26l-18 -86h-596l16 86h27q170 0 201 147l163 785l-841 -739l-10 -54q-9 -49 -9 -57q0 -82 148 -82h26l-18 -86h-596z" />
<glyph unicode="&#x419;" horiz-adv-x="1645" d="M-43 0l16 86h27q99 0 142 37.5t59 109.5l213 1004q8 38 8 57q0 82 -148 82h-26l18 86h596l-18 -86h-27q-98 0 -141 -37t-58 -110l-163 -783l839 736l13 55q8 34 8 57q0 82 -148 82h-26l18 86h596l-18 -86h-27q-98 0 -141 -37t-58 -110l-213 -1004q-8 -38 -8 -57 q0 -82 148 -82h26l-18 -86h-596l16 86h27q170 0 201 147l163 785l-841 -739l-10 -54q-9 -49 -9 -57q0 -82 148 -82h26l-18 -86h-596zM733 1770q0 37 11 69l182 47q-14 -44 -14 -90q0 -108 127 -108q232 0 391 252l76 -48q-194 -313 -498 -313q-275 0 -275 191z" />
<glyph unicode="&#x41a;" horiz-adv-x="1434" d="M-43 0l16 86h27q98 0 141 37.5t60 109.5l213 1004q8 38 8 57q0 82 -148 82h-26l18 86h596l-18 -86h-27q-98 0 -141 -37.5t-58 -109.5l-94 -447q140 0 202.5 50t205.5 309q99 177 191 255.5t231 78.5q166 0 166 -123q0 -134 -129 -144q0 115 -101 115q-141 0 -272 -242 q-149 -267 -223 -307q119 -7 174 -178l118 -346q56 -164 207 -164h6l-18 -86h-29q-177 0 -252 30t-116 163l-111 356q-25 79 -63.5 109t-206.5 30l-98 -463q-9 -43 -9 -57q0 -82 148 -82h26l-18 -86h-596z" />
<glyph unicode="&#x41b;" horiz-adv-x="1438" d="M-96 123q0 62 34 96.5t87 34.5q0 -96 77 -96q185 0 372.5 546t187.5 617q0 55 -150 55h-31l19 86h1048l-18 -86h-27q-97 0 -140 -36.5t-58 -110.5l-213 -1004q-9 -42 -9 -57q0 -82 148 -82h26l-18 -86h-596l16 86h27q170 0 201 147l237 1127h-333q-58 -223 -163.5 -550 t-206.5 -521t-180 -248.5t-175 -54.5q-76 0 -119 38.5t-43 98.5z" />
<glyph unicode="&#x41c;" horiz-adv-x="1921" d="M-41 0l18 86h27q102 0 141.5 36t53.5 101l215 1014q8 38 8 57q0 82 -148 82h-26l18 86h465l174 -1167l670 1167h457l-19 -86h-26q-98 0 -141 -37.5t-58 -109.5l-213 -1004q-8 -38 -8 -57q0 -82 147 -82h27l-19 -86h-544l18 86h6q87 0 122 32.5t52 96.5l234 1094 l-748 -1309h-110l-199 1309l-229 -1084q-9 -43 -9 -57q0 -82 148 -82h26l-18 -86h-512z" />
<glyph unicode="&#x41d;" horiz-adv-x="1624" d="M-43 0l16 86h27q99 0 142 37.5t59 109.5l213 1004q8 38 8 57q0 82 -148 82h-26l18 86h596l-18 -86h-27q-98 0 -141 -37t-58 -110l-88 -414h666l90 422q8 38 8 57q0 82 -147 82h-27l19 86h596l-19 -86h-26q-98 0 -141 -37.5t-58 -109.5l-213 -1004q-8 -38 -8 -57 q0 -82 147 -82h27l-19 -86h-596l17 86h26q98 0 142 36.5t59 110.5l101 480h-666l-102 -488q-9 -43 -9 -57q0 -82 148 -82h26l-18 -86h-596z" />
<glyph unicode="&#x41e;" horiz-adv-x="1520" d="M106 545q0 352 230 646t590 294q238 0 384 -148t146 -415q0 -351 -228 -648t-585 -297q-243 0 -390 153.5t-147 414.5zM330 487q0 -192 87 -294.5t238 -102.5q255 0 415.5 282.5t160.5 604.5q0 191 -84.5 294t-237.5 103q-256 0 -417.5 -283.5t-161.5 -603.5z" />
<glyph unicode="&#x41f;" horiz-adv-x="1563" d="M-43 0l16 86h27q99 0 142 37.5t59 109.5l213 1004q8 38 8 57q0 82 -148 82h-26l18 86h1407l-18 -86h-27q-97 0 -139.5 -36t-58.5 -111l-213 -1004q-9 -42 -9 -57q0 -82 148 -82h26l-18 -86h-596l18 86h27q97 0 139.5 37t59.5 110l239 1127h-604l-241 -1135q-9 -42 -9 -57 q0 -82 148 -82h26l-18 -86h-596z" />
<glyph unicode="&#x420;" horiz-adv-x="1270" d="M-41 0l18 86h27q96 0 139 37t58 110l213 1004q8 38 8 57q0 82 -148 82h-26l18 86h525q222 0 344 -103t122 -292q0 -233 -156.5 -365.5t-469.5 -132.5h-152l-73 -344q-9 -42 -9 -57q0 -82 148 -82h67l-18 -86h-635zM500 666h108q432 0 432 399q0 299 -299 299h-94z" />
<glyph unicode="&#x421;" horiz-adv-x="1284" d="M106 528q0 388 242 671.5t602 283.5q179 0 279 -61.5t100 -166.5q0 -73 -55 -116t-146 -43q0 278 -204 278q-253 0 -423.5 -275.5t-170.5 -602.5q0 -383 364 -383q237 0 379 186q27 -19 27 -68q0 -98 -114 -174.5t-314 -76.5q-267 0 -416.5 143t-149.5 405z" />
<glyph unicode="&#x422;" horiz-adv-x="1255" d="M156 1104l86 358h1153l-66 -358h-106q10 80 10 125q0 131 -135 131h-199l-242 -1135q-8 -38 -8 -57q0 -82 148 -82h47l-19 -86h-637l19 86h47q103 0 143 35.5t54 101.5l241 1137h-196q-146 0 -205 -168l-29 -88h-106z" />
<glyph unicode="&#x423;" horiz-adv-x="1372" d="M86 -10l20 96h113q221 0 359 223l-259 959q-17 63 -40.5 85.5t-81.5 22.5h-27l18 86h568l-17 -86h-55q-139 0 -139 -100q0 -46 16 -113l115 -448q43 -167 57 -277q55 120 148 271l297 479q39 63 39 115q0 73 -115 73h-47l16 86h500l-19 -86h-39q-57 0 -90 -27.5 t-98 -131.5l-524 -842q-165 -266 -251 -325.5t-314 -59.5h-150z" />
<glyph unicode="&#x424;" horiz-adv-x="1567" d="M74 690q0 233 156.5 365.5t469.5 132.5h99l10 49q8 39 8 57q0 82 -151 82h-27l18 86h592l-18 -86h-23q-102 0 -144.5 -36.5t-57.5 -110.5l-9 -41h64q223 0 347 -103.5t124 -291.5q0 -232 -160 -365t-471 -133h-94l-14 -70q-9 -45 -9 -57q0 -82 152 -82h22l-18 -86h-590 l19 86h26q170 0 201 147l12 62h-67q-223 0 -345 103.5t-122 291.5zM291 692q0 -299 299 -299h41l147 699h-55q-432 0 -432 -400zM827 391h52q436 0 436 400q0 299 -303 299h-37z" />
<glyph unicode="&#x425;" horiz-adv-x="1352" d="M-100 0l18 86h8q67 0 119.5 35t122.5 112l453 494l-220 545q-42 104 -159 104h-27l18 86h555l-18 -86h-47q-96 0 -96 -57q0 -29 37 -123l116 -299l256 295q78 90 78 133q0 51 -98 51h-6l18 86h449l-19 -86h-18q-56 0 -100.5 -30t-131.5 -123l-387 -428l246 -600 q45 -109 141 -109h27l-18 -86h-553l18 86h23q61 0 96 20.5t35 51.5q0 42 -39 141l-133 326l-306 -340q-82 -91 -82 -144q0 -55 121 -55h6l-18 -86h-485z" />
<glyph unicode="&#x426;" horiz-adv-x="1563" d="M-39 0l19 86h24q98 0 140 36.5t57 102.5l217 1012q8 37 8 57q0 82 -147 82h-27l18 86h596l-18 -86h-27q-95 0 -139.5 -36t-60.5 -111l-238 -1127h604l242 1135q8 38 8 57q0 82 -147 82h-27l18 86h596l-18 -86h-27q-96 0 -138 -33.5t-58 -103.5l-217 -1014q-9 -42 -9 -57 q0 -77 123 -82h72l-111 -516h-94q22 100 22 175q0 255 -245 255h-1016z" />
<glyph unicode="&#x427;" horiz-adv-x="1548" d="M176 1374l19 86h596l-17 -86h-26q-98 0 -142 -37t-59 -110l-31 -142q-37 -169 -37 -231q0 -195 230 -195q123 0 360 78l107 500q8 37 8 57q0 82 -148 82h-26l18 86h596l-18 -86h-27q-98 0 -141 -37t-58 -110l-213 -1004q-8 -38 -8 -57q0 -82 148 -82h26l-18 -86h-596 l16 86h27q170 0 201 147l84 392q-254 -88 -388 -88q-391 0 -391 303q0 60 39 235l35 160q8 37 8 57q0 82 -147 82h-27z" />
<glyph unicode="&#x428;" horiz-adv-x="2210" d="M-41 0l18 86h25q98 0 140 36.5t57 102.5l217 1012q8 37 8 57q0 82 -148 82h-26l18 86h596l-18 -86h-27q-170 0 -201 -147l-237 -1127h522l242 1135q8 38 8 57q0 82 -147 82h-27l18 86h596l-18 -86h-27q-96 0 -138 -33.5t-58 -103.5l-244 -1137h524l242 1135q8 38 8 57 q0 82 -147 82h-27l18 86h596l-18 -86h-27q-96 0 -138 -33.5t-58 -103.5l-217 -1014q-9 -42 -9 -57q0 -82 148 -82h27l-19 -86h-2052z" />
<glyph unicode="&#x429;" horiz-adv-x="2210" d="M-41 0l18 86h25q98 0 140 36.5t57 102.5l217 1012q8 37 8 57q0 82 -148 82h-26l18 86h596l-18 -86h-27q-170 0 -201 -147l-237 -1127h522l242 1135q8 38 8 57q0 82 -147 82h-27l18 86h596l-18 -86h-27q-96 0 -138 -33.5t-58 -103.5l-244 -1137h524l242 1135q8 38 8 57 q0 82 -147 82h-27l18 86h596l-18 -86h-27q-96 0 -138 -33.5t-58 -103.5l-217 -1014q-9 -42 -9 -57q0 -77 123 -82h72l-111 -516h-94q21 99 21 173q0 251 -230 257h-1677z" />
<glyph unicode="&#x42a;" horiz-adv-x="1446" d="M156 1104l86 358h872l-18 -86h-68q-97 0 -139.5 -34t-57.5 -103l-92 -430h117q504 0 504 -342q0 -223 -151 -345t-439 -122h-602l16 86h27q170 0 201 147l239 1127h-155q-146 0 -205 -168l-29 -88h-106zM590 102h158q391 0 391 349q0 262 -289 262h-131z" />
<glyph unicode="&#x42b;" horiz-adv-x="1858" d="M-43 0l16 86h60q45 0 97.5 30.5t70.5 116.5l213 1004q8 38 8 57q0 82 -148 82h-26l18 86h596l-18 -86h-27q-100 0 -142.5 -40t-60.5 -119l-86 -408h56q503 0 503 -342q0 -223 -151 -345t-438 -122h-541zM379 102h96q391 0 391 349q0 138 -70.5 200t-217.5 62h-70zM1063 0 l16 86h27q170 0 201 147l213 1004q8 38 8 57q0 82 -148 82h-26l18 86h596l-18 -86h-27q-98 0 -141 -37t-58 -110l-213 -1004q-8 -38 -8 -57q0 -82 148 -82h26l-18 -86h-596z" />
<glyph unicode="&#x42c;" horiz-adv-x="1255" d="M-43 0l16 86h60q45 0 97.5 30.5t70.5 116.5l213 1004q8 38 8 57q0 82 -148 82h-26l18 86h596l-18 -86h-27q-100 0 -142.5 -40t-60.5 -119l-86 -408h138q503 0 503 -342q0 -223 -151 -345t-438 -122h-623zM379 102h178q391 0 391 349q0 139 -70.5 200.5t-218.5 61.5h-151z " />
<glyph unicode="&#x42d;" horiz-adv-x="1292" d="M27 244q0 70 44 109.5t111 39.5q0 -118 79 -210.5t208 -92.5q365 0 496 598h-570l21 100h565q23 124 23 213q0 183 -73 281t-210 98q-115 0 -195.5 -80.5t-109.5 -216.5q-66 0 -108 36.5t-42 105.5q0 105 131 181.5t336 76.5q236 0 367 -136t131 -389 q0 -403 -215.5 -690.5t-562.5 -287.5q-204 0 -315 70t-111 194z" />
<glyph unicode="&#x42e;" horiz-adv-x="2144" d="M-43 0l16 86h27q99 0 142 37.5t59 109.5l213 1004q8 38 8 57q0 82 -148 82h-26l18 86h596l-18 -86h-27q-98 0 -141 -37t-58 -110l-88 -414h299q84 306 283 488t463 182q227 0 366.5 -148t139.5 -415q0 -351 -217.5 -648t-558.5 -297q-230 0 -371 153t-141 415 q0 93 14 168h-299l-102 -488q-9 -43 -9 -57q0 -82 148 -82h26l-18 -86h-596zM1016 487q0 -190 81 -293.5t222 -103.5q237 0 386.5 282t149.5 605q0 192 -78 294.5t-221 102.5q-238 0 -389 -284t-151 -603z" />
<glyph unicode="&#x42f;" horiz-adv-x="1343" d="M-74 0l13 86h6q64 0 114.5 30.5t124.5 133.5l312 436q-213 105 -213 334q0 231 156 336.5t509 105.5h506l-18 -86h-27q-98 0 -141 -37.5t-58 -109.5l-213 -1004q-8 -38 -8 -57q0 -82 148 -82h26l-18 -86h-596l16 86h27q170 0 201 147l84 398h-203l-301 -447 q-72 -107 -150 -145.5t-268 -38.5h-29zM498 1020q0 -293 327 -293h72l135 637h-131q-403 0 -403 -344z" />
<glyph unicode="&#x430;" horiz-adv-x="1186" d="M88 354q0 282 175.5 523t434.5 241q139 0 240 -74l90 52h66l-140 -656q-30 -141 -30 -227q0 -104 67 -104q58 0 148 53l37 -60q-147 -122 -289 -122q-160 0 -160 170q0 65 21 159h-13q-147 -329 -383 -329q-125 0 -194.5 98.5t-69.5 275.5zM297 346q0 -237 129 -237 q102 0 214 151t148 330l76 362q-47 74 -155 74q-175 0 -293.5 -222.5t-118.5 -457.5z" />
<glyph unicode="&#x431;" horiz-adv-x="1188" d="M102 528q0 412 172.5 660.5t485.5 284.5q363 41 395 96l90 4q-29 -149 -98.5 -201t-401.5 -88q-225 -26 -320.5 -106.5t-152.5 -339.5h15q61 103 172.5 164t234.5 61q183 0 295.5 -116t112.5 -316q0 -271 -167.5 -461t-430.5 -190q-189 0 -295.5 144t-106.5 404zM317 375 q0 -289 213 -289q144 0 251.5 167.5t107.5 414.5q0 286 -211 286q-144 0 -252.5 -163t-108.5 -416z" />
<glyph unicode="&#x432;" horiz-adv-x="1057" d="M88 362q0 295 171.5 525.5t438.5 230.5q137 0 225.5 -66t88.5 -169q0 -232 -373 -308q301 -70 301 -272q0 -140 -123 -231.5t-319 -91.5q-194 0 -302 100t-108 282zM301 338q0 -246 205 -246q109 0 170 57t61 158q0 110 -89 172t-132 62l-197 -9q-18 -88 -18 -194z M338 627h20q208 0 325.5 61.5t117.5 175.5q0 75 -41.5 115.5t-106.5 40.5q-92 0 -184 -118t-131 -275z" />
<glyph unicode="&#x433;" horiz-adv-x="1020" d="M74 254q0 88 42 149t114 102.5t251 108.5q148 56 195 107.5t47 124.5q0 141 -164 141q-189 0 -283 -125q-16 12 -16 51q0 203 330 203q159 0 252.5 -65.5t93.5 -171.5q0 -192 -249 -282q-259 -94 -329.5 -151.5t-70.5 -173.5q0 -166 200 -166q193 0 306 148 q22 -20 22 -66q0 -98 -92 -153t-272 -55t-278.5 73.5t-98.5 200.5z" />
<glyph unicode="&#x434;" horiz-adv-x="1206" d="M88 403q0 265 166 456.5t418 191.5q165 0 239 -99q0 242 -73 382.5t-211 140.5q-111 0 -211 -33l-27 88q114 47 266 47q221 0 341 -172t120 -496q0 -433 -163 -681t-447 -248q-200 0 -309 110.5t-109 312.5zM299 379q0 -299 238 -299q157 0 257.5 194t114.5 504 q-73 166 -247 166q-153 0 -258 -156.5t-105 -408.5z" />
<glyph unicode="&#x435;" horiz-adv-x="1010" d="M88 403q0 268 173 491.5t437 223.5q130 0 201.5 -62t71.5 -173q0 -166 -172.5 -289t-421.5 -123h-35q-18 0 -37 2q-4 -28 -4 -86q0 -278 225 -278q175 0 295 147q21 -13 21 -51q0 -82 -96.5 -153.5t-258.5 -71.5q-179 0 -289 113t-110 310zM324 567h20q181 0 298.5 88 t117.5 228q0 137 -119 137q-99 0 -185 -124.5t-132 -328.5z" />
<glyph unicode="&#x436;" horiz-adv-x="2068" d="M2 164q0 63 45 103t119 40q0 -233 129 -233q124 0 225 203.5t101 429.5q0 278 -175 278q-144 0 -243 -147q-17 19 -17 51q0 83 82 154t219 71q153 0 238.5 -101t85.5 -282q0 -67 -10 -131h151l105 498h178l-107 -498h160q65 235 206 376.5t318 141.5q117 0 185.5 -51.5 t68.5 -136.5q0 -63 -44 -103.5t-119 -40.5q0 234 -129 234q-124 0 -225 -203.5t-101 -429.5q0 -278 174 -278q146 0 244 147q16 -18 16 -51q0 -84 -82.5 -154.5t-218.5 -70.5q-152 0 -238 100.5t-86 281.5q0 62 13 142h-162l-109 -504h-172l105 504h-150q-62 -241 -204 -385 t-322 -144q-118 0 -186 52t-68 137z" />
<glyph unicode="&#x437;" horiz-adv-x="975" d="M4 199q0 58 41.5 96.5t126.5 38.5q0 -118 64 -187t167 -69q107 0 176.5 72t69.5 186q0 81 -56 132.5t-147 51.5h-190l23 111h192q119 0 186.5 58t67.5 163q0 77 -45.5 123.5t-130.5 46.5q-195 0 -244 -221q-141 0 -141 90q0 97 103.5 161t297.5 64q168 0 264.5 -69.5 t96.5 -182.5q0 -202 -281 -284l-2 -11q205 -57 205 -229q0 -171 -124.5 -265.5t-348.5 -94.5q-174 0 -272.5 61.5t-98.5 157.5z" />
<glyph unicode="&#x438;" horiz-adv-x="1227" d="M117 1012l18 86h381l-135 -613q-41 -186 -41 -247q0 -125 100 -125q105 0 226.5 151.5t158.5 323.5l107 510h198l-141 -658q-31 -145 -31 -227q0 -104 68 -104q58 0 131 45l37 -60q-130 -114 -260 -114q-77 0 -124.5 55t-47.5 139q0 53 10 121h-16q-111 -183 -198.5 -248 t-197.5 -65q-219 0 -219 227q0 65 37 225l80 359q18 81 18 122q0 97 -143 97h-16z" />
<glyph unicode="&#x439;" horiz-adv-x="1227" d="M117 1012l18 86h381l-135 -613q-41 -186 -41 -247q0 -125 100 -125q105 0 226.5 151.5t158.5 323.5l107 510h198l-141 -658q-31 -145 -31 -227q0 -104 68 -104q58 0 131 45l37 -60q-130 -114 -260 -114q-77 0 -124.5 55t-47.5 139q0 53 10 121h-16q-111 -183 -198.5 -248 t-197.5 -65q-219 0 -219 227q0 65 37 225l80 359q18 81 18 122q0 97 -143 97h-16zM419 1432q0 37 11 69l182 47q-14 -44 -14 -90q0 -108 127 -108q232 0 391 252l76 -48q-194 -313 -498 -313q-275 0 -275 191z" />
<glyph unicode="&#x43a;" horiz-adv-x="1239" d="M88 0l170 793q18 84 18 122q0 97 -143 97h-16l18 86h381l-106 -496q85 0 140.5 50.5t197.5 224.5q122 144 186 188.5t153 44.5q152 0 152 -123q0 -113 -111 -131q0 115 -90 115q-57 0 -114 -46.5t-172 -186.5q-91 -110 -146 -142q64 -2 122 -54t89 -126l72 -166 q71 -164 209 -164h6l-19 -86h-71q-150 0 -210 40.5t-106 152.5l-67 172q-36 92 -84.5 117.5t-157.5 25.5l-104 -508h-197z" />
<glyph unicode="&#x43b;" horiz-adv-x="1315" d="M4 123q0 57 33 94t82 37q0 -38 22 -67t58 -29q72 0 135.5 115.5t192.5 468.5q94 260 169.5 314t202.5 54q134 0 315 -33l-141 -663q-26 -122 -26 -207q0 -98 73 -98q51 0 125 45l37 -60q-130 -114 -260 -114q-83 0 -131.5 54.5t-48.5 139.5q0 80 22 182l135 641 q-49 21 -104 21q-111 0 -162 -74.5t-174 -413.5q-101 -286 -191 -415t-235 -129q-61 0 -95 40t-34 97z" />
<glyph unicode="&#x43c;" horiz-adv-x="1843" d="M4 123q0 57 33 94t82 37q0 -38 22 -67t58 -29q57 0 122.5 93t188.5 450q70 203 106 255q-45 56 -161 56h-27l16 86h371l121 -830l580 830h364l-16 -86h-6q-94 0 -129 -35.5t-50 -102.5l-98 -460q-27 -127 -27 -207q0 -98 74 -98q51 0 125 45l37 -60q-130 -114 -260 -114 q-83 0 -131.5 54.5t-48.5 139.5q0 80 22 182l103 492h-9l-585 -848h-95l-124 817q-17 -43 -41 -111q-106 -303 -169.5 -446t-140.5 -208.5t-178 -65.5q-61 0 -95 40t-34 97z" />
<glyph unicode="&#x43d;" horiz-adv-x="1288" d="M90 0l172 823q12 57 12 92q0 97 -143 97h-16l18 86h379l-104 -488h473l102 488h201l-148 -684q-26 -120 -26 -207q0 -98 73 -98q51 0 125 45l37 -60q-130 -114 -260 -114q-83 0 -131.5 54.5t-48.5 139.5q0 80 22 182l33 160h-471l-108 -516h-191z" />
<glyph unicode="&#x43e;" horiz-adv-x="1176" d="M88 403q0 276 168.5 495.5t441.5 219.5q181 0 285 -109t104 -315q0 -273 -167 -493.5t-439 -220.5q-185 0 -289 112t-104 311zM301 362q0 -282 203 -282q169 0 269.5 200.5t100.5 444.5q0 285 -200 285q-167 0 -270 -201t-103 -447z" />
<glyph unicode="&#x43f;" horiz-adv-x="1227" d="M90 0l172 823q12 57 12 92q0 97 -143 97h-16l18 86h379l-55 -258h20q166 276 373 276q219 0 219 -227q0 -65 -37 -225l-53 -242q-27 -123 -27 -215q0 -98 72 -98q59 0 131 47l37 -60q-134 -116 -250 -116q-85 0 -135.5 55t-50.5 149t39 277l47 212q30 124 30 191 q0 121 -94 121q-114 0 -233.5 -154t-153.5 -307l-110 -524h-191z" />
<glyph unicode="&#x440;" horiz-adv-x="1182" d="M-14 -492l272 1299q18 86 18 108q0 97 -143 97h-16l18 86h363l-49 -273h10q148 293 375 293q125 0 192.5 -95t67.5 -275q0 -275 -171.5 -521.5t-439.5 -246.5q-117 0 -200 47q-9 -66 -17 -99l-28 -125q-19 -85 -19 -114q0 -95 143 -95h27l-18 -86h-385zM315 145 q66 -73 162 -73q171 0 289.5 223.5t118.5 454.5q0 239 -129 239q-106 0 -214 -147.5t-143 -306.5z" />
<glyph unicode="&#x441;" horiz-adv-x="997" d="M88 403q0 268 173 491.5t437 223.5q141 0 220 -56t79 -140q0 -62 -49.5 -103t-132.5 -41q0 109 -42 175.5t-116 66.5q-143 0 -249.5 -214t-106.5 -419q0 -278 225 -278q179 0 295 147q21 -13 21 -51q0 -82 -96.5 -153.5t-258.5 -71.5q-179 0 -289 113t-110 310z" />
<glyph unicode="&#x442;" horiz-adv-x="1835" d="M90 0l172 823q12 57 12 92q0 97 -143 97h-16l18 86h379l-55 -258h20q166 276 373 276q219 0 219 -227q0 -25 -4 -49h20q167 276 373 276q219 0 219 -227q0 -65 -37 -225l-53 -242q-26 -119 -26 -215q0 -98 71 -98q59 0 131 47l37 -60q-130 -116 -250 -116q-84 0 -135 55 t-51 149t39 277l35 160q43 197 43 243q0 121 -95 121q-105 0 -217 -134.5t-157 -281.5l-33 -147q-13 -56 -36 -219t-23 -203h-195q0 46 26 212.5t44 248.5l47 212q30 124 30 191q0 121 -94 121q-114 0 -234.5 -155.5t-152.5 -305.5l-110 -524h-191z" />
<glyph unicode="&#x443;" horiz-adv-x="1081" d="M-332 -455l31 103q72 -23 160 -23q293 0 575 373l-270 905q-18 60 -49 84.5t-92 24.5h-21l16 86h299l160 -553q74 -257 86 -371h6q277 421 277 680q0 111 -101 111q0 69 40 110t94 41q139 0 139 -172q0 -247 -276 -694.5t-442.5 -594.5t-438.5 -147q-108 0 -193 37z" />
<glyph unicode="&#x444;" horiz-adv-x="1612" d="M88 387q0 278 155.5 504.5t411.5 226.5q95 0 174 -43l27 119q51 224 150.5 303.5t234.5 79.5q125 0 188.5 -35.5t63.5 -91.5q0 -117 -158 -117q0 150 -104 150q-137 0 -193 -260l-39 -183q98 78 240 78q129 0 207 -107t78 -300q0 -279 -156 -505t-412 -226q-95 0 -174 43 l-20 -95q-40 -191 -145.5 -305.5t-260.5 -114.5q-237 0 -237 152q0 111 151 111q0 -168 111 -168q138 0 192 260l41 194q-97 -77 -239 -77q-130 0 -208.5 107t-78.5 300zM297 365q0 -273 162 -273q89 0 180 84l164 776q-11 32 -53 53t-84 21q-160 0 -264.5 -216.5 t-104.5 -444.5zM809 145q11 -33 53.5 -53t83.5 -20q160 0 264.5 217t104.5 444q0 273 -160 273q-89 0 -180 -84z" />
<glyph unicode="&#x445;" horiz-adv-x="1118" d="M-41 0l23 86h26q56 0 97.5 25.5t115.5 115.5l262 318l-133 319q-39 95 -64.5 121.5t-82.5 26.5h-27l17 86h272l156 -414l272 414h262l-33 -86h-26q-60 0 -100.5 -29t-112.5 -119l-215 -276l141 -355q36 -92 61.5 -119.5t85.5 -27.5h27l-16 -86h-275l-166 451l-307 -451 h-260z" />
<glyph unicode="&#x446;" horiz-adv-x="1227" d="M117 1012l18 86h381l-135 -613q-41 -186 -41 -247q0 -125 100 -125q105 0 226.5 151.5t158.5 323.5l107 510h198l-141 -658q-28 -131 -28 -227q0 -104 67 -104q58 0 131 45l37 -60q-47 -288 -110 -424.5t-228 -136.5q-97 0 -176 31l23 80q34 -11 81 -11q85 0 173.5 103.5 t119.5 273.5q-85 -30 -143 -30q-77 0 -125.5 53t-48.5 141q0 53 10 121h-16q-111 -183 -198.5 -248t-197.5 -65q-219 0 -219 227q0 65 37 225l80 359q18 81 18 122q0 97 -143 97h-16z" />
<glyph unicode="&#x447;" horiz-adv-x="1247" d="M78 1012l18 86h379l-80 -371q-18 -83 -18 -113q0 -102 121 -102q155 0 344 94l104 492h201l-148 -684q-26 -120 -26 -207q0 -98 74 -98q50 0 124 45l37 -60q-131 -114 -260 -114q-83 0 -131.5 54.5t-48.5 139.5q0 75 23 182l30 152q-166 -92 -237 -111.5t-148 -19.5 q-111 0 -180.5 64.5t-69.5 174.5q0 31 11 82l28 125q13 58 13 92q0 97 -144 97h-16z" />
<glyph unicode="&#x448;" horiz-adv-x="1831" d="M117 1012l18 86h379l-131 -613q-43 -201 -43 -252q0 -120 94 -120q105 0 217.5 134t157.5 281l117 570h192l-129 -602q-41 -191 -41 -263q0 -120 94 -120q114 0 234.5 155.5t153.5 304.5l110 525h191l-142 -658q-30 -139 -30 -227q0 -104 67 -104q58 0 131 45l37 -60 q-130 -114 -260 -114q-77 0 -125.5 53t-48.5 141q0 38 6 84h-23q-164 -276 -372 -276q-219 0 -219 227q0 25 4 49h-21q-164 -276 -373 -276q-219 0 -219 227q0 56 26 170l95 444q12 56 12 92q0 97 -143 97h-16z" />
<glyph unicode="&#x449;" horiz-adv-x="1845" d="M117 1012l18 86h379l-131 -613q-43 -201 -43 -252q0 -120 94 -120q105 0 217.5 134t157.5 281l117 570h192l-129 -602q-41 -191 -41 -263q0 -120 94 -120q114 0 234.5 155.5t153.5 304.5l110 525h191l-142 -658q-30 -139 -30 -227q0 -104 67 -104q58 0 131 45l37 -60 q-52 -307 -116 -434t-224 -127q-97 0 -176 31l22 80q37 -11 82 -11q85 0 174.5 104t120.5 273q-86 -30 -143 -30q-77 0 -125.5 53t-48.5 141q0 38 6 84h-23q-164 -276 -372 -276q-219 0 -219 227q0 25 4 49h-21q-164 -276 -373 -276q-219 0 -219 227q0 56 26 170l95 444 q12 56 12 92q0 97 -143 97h-16z" />
<glyph unicode="&#x44a;" horiz-adv-x="1243" d="M78 770l84 328h581l64 -66q-139 -177 -236 -409l55 4q70 6 134 6q395 0 395 -289q0 -169 -119.5 -266.5t-322.5 -97.5q-400 0 -400 333q0 343 361 699q-167 -8 -262 -8q-83 0 -126.5 -34.5t-80.5 -131.5l-27 -68h-100zM506 301q0 -221 215 -221q103 0 167 73.5t64 182.5 q0 190 -223 190q-77 0 -188 -8q-35 -101 -35 -217z" />
<glyph unicode="&#x44b;" horiz-adv-x="1569" d="M94 1012l19 86h379l-101 -475q114 10 187 10q354 0 354 -289q0 -168 -106.5 -266t-288.5 -98q-390 0 -390 292q0 95 25 207l70 344q12 59 12 92q0 97 -143 97h-17zM344 301q0 -221 184 -221q95 0 148 71.5t53 184.5q0 190 -192 190q-72 0 -168 -8q-25 -126 -25 -217z M1067 1012l18 86h367l-139 -658q-31 -147 -31 -227q0 -104 68 -104q59 0 147 53l37 -60q-142 -122 -277 -122q-77 0 -123.5 55.5t-46.5 138.5q0 92 46 322l79 376q7 33 7 54q0 86 -125 86h-27z" />
<glyph unicode="&#x44c;" horiz-adv-x="1081" d="M94 1012l19 86h379l-101 -475q126 10 207 10q395 0 395 -289q0 -169 -119.5 -266.5t-322.5 -97.5q-404 0 -404 292q0 95 25 207l70 344q12 59 12 92q0 97 -143 97h-17zM344 301q0 -221 215 -221q106 0 169 74.5t63 181.5q0 190 -224 190q-82 0 -196 -8q-27 -132 -27 -217 z" />
<glyph unicode="&#x44d;" horiz-adv-x="979" d="M2 199q0 58 44.5 96.5t129.5 38.5q0 -124 45.5 -190t120.5 -66q103 0 188 116t125 306h-473l25 110h467q4 40 4 78q0 301 -217 301q-187 0 -283 -178q-26 29 -26 80q0 92 92 159.5t254 67.5q191 0 292 -110t101 -314q0 -265 -160 -489.5t-399 -224.5q-161 0 -245.5 59.5 t-84.5 159.5z" />
<glyph unicode="&#x44e;" horiz-adv-x="1714" d="M90 0l172 823q12 57 12 92q0 97 -143 97h-16l18 86h379l-104 -488h286q62 236 210 372t349 136q173 0 273 -109.5t100 -314.5q0 -272 -160 -493t-422 -221q-176 0 -276 111t-100 312q0 69 8 113h-287l-108 -516h-191zM881 362q0 -282 188 -282q158 0 251 201t93 444 q0 285 -186 285q-156 0 -251 -200.5t-95 -447.5z" />
<glyph unicode="&#x44f;" horiz-adv-x="1208" d="M4 123q0 57 33 94t82 37q0 -38 22 -67t58 -29q43 0 78.5 39.5t99.5 185.5q46 101 104 127q-128 28 -200 103.5t-72 179.5q0 313 467 313q178 0 407 -51l-137 -641q-26 -122 -26 -207q0 -98 73 -98q51 0 125 45l37 -60q-130 -114 -260 -114q-83 0 -131.5 54.5t-48.5 139.5 q0 80 22 182l29 138h-117q-75 0 -116.5 -49.5t-90.5 -170.5q-63 -159 -132 -223.5t-177 -64.5q-61 0 -95 40t-34 97zM399 782q0 -88 63.5 -144t153.5 -56h170l84 399q-99 31 -192 31q-279 0 -279 -230z" />
<glyph unicode="&#x450;" horiz-adv-x="1010" d="M88 403q0 268 173 491.5t437 223.5q130 0 201.5 -62t71.5 -173q0 -166 -172.5 -289t-421.5 -123h-35q-18 0 -37 2q-4 -28 -4 -86q0 -278 225 -278q175 0 295 147q21 -13 21 -51q0 -82 -96.5 -153.5t-258.5 -71.5q-179 0 -289 113t-110 310zM324 567h20q181 0 298.5 88 t117.5 228q0 137 -119 137q-99 0 -185 -124.5t-132 -328.5zM457 1548l6 21h205q60 -155 137 -301l-6 -27h-78q-154 150 -264 307z" />
<glyph unicode="&#x451;" horiz-adv-x="1010" d="M88 403q0 268 173 491.5t437 223.5q130 0 201.5 -62t71.5 -173q0 -166 -172.5 -289t-421.5 -123h-35q-18 0 -37 2q-4 -28 -4 -86q0 -278 225 -278q175 0 295 147q21 -13 21 -51q0 -82 -96.5 -153.5t-258.5 -71.5q-179 0 -289 113t-110 310zM324 567h20q181 0 298.5 88 t117.5 228q0 137 -119 137q-99 0 -185 -124.5t-132 -328.5zM407 1397q0 129 110 129q103 0 103 -103q0 -129 -111 -129q-102 0 -102 103zM796 1397q0 129 110 129q103 0 103 -103q0 -129 -111 -129q-102 0 -102 103z" />
<glyph unicode="&#x452;" horiz-adv-x="1143" d="M90 0l254 1214h-184l20 97h185q10 46 10 63q0 96 -144 96h-16l18 86h377l-53 -245h352l-20 -97h-352l-7 -34q-50 -242 -90 -379h23q165 276 379 276q219 0 219 -227q0 -58 -25 -173q-7 -30 -12 -56l-135 -637q-52 -244 -155 -360t-292 -116q-57 0 -118 17l18 94 q51 -14 94 -14q103 0 161.5 91.5t98.5 287.5l127 598q41 193 41 243q0 121 -94 121q-114 0 -234.5 -155.5t-152.5 -305.5l-102 -485h-191z" />
<glyph unicode="&#x453;" horiz-adv-x="1020" d="M74 254q0 88 42 149t114 102.5t251 108.5q148 56 195 107.5t47 124.5q0 141 -164 141q-189 0 -283 -125q-16 12 -16 51q0 203 330 203q159 0 252.5 -65.5t93.5 -171.5q0 -192 -249 -282q-259 -94 -329.5 -151.5t-70.5 -173.5q0 -166 200 -166q193 0 306 148 q22 -20 22 -66q0 -98 -92 -153t-272 -55t-278.5 73.5t-98.5 200.5zM598 1241l6 27q117 135 219 301h219l-6 -21q-157 -183 -356 -307h-82z" />
<glyph unicode="&#x454;" horiz-adv-x="1008" d="M88 403q0 268 173 491.5t437 223.5q141 0 220 -56t79 -140q0 -62 -49.5 -103t-132.5 -41q0 109 -42 175.5t-116 66.5q-100 0 -185.5 -110.5t-137.5 -299.5h469l-23 -110h-471q-8 -48 -8 -113q0 -278 225 -278q179 0 295 147q21 -13 21 -51q0 -82 -96.5 -153.5 t-258.5 -71.5q-179 0 -289 113t-110 310z" />
<glyph unicode="&#x455;" horiz-adv-x="950" d="M51 211q0 66 36.5 100.5t92.5 34.5q0 -127 61.5 -197.5t172.5 -70.5q221 0 221 190q0 73 -47 123.5t-160 102.5q-147 70 -197.5 144.5t-50.5 172.5q0 134 109.5 219.5t285.5 85.5q151 0 235.5 -56t84.5 -138q0 -127 -154 -127q0 103 -48.5 165t-135.5 62 q-92 0 -145.5 -49.5t-53.5 -126.5q0 -68 51 -116t158 -95q246 -110 246 -318q0 -151 -116 -244t-308 -93q-155 0 -246.5 62.5t-91.5 168.5z" />
<glyph unicode="&#x456;" horiz-adv-x="623" d="M127 1012l18 86h367l-139 -658q-31 -147 -31 -227q0 -104 68 -104q59 0 147 53l37 -60q-142 -122 -277 -122q-76 0 -123 55t-47 139q0 92 46 322l79 376q7 33 7 54q0 86 -125 86h-27zM344 1415q0 65 33.5 104.5t89.5 39.5q115 0 115 -113q0 -70 -34.5 -106.5t-88.5 -36.5 q-115 0 -115 112z" />
<glyph unicode="&#x457;" horiz-adv-x="623" d="M106 1397q0 129 110 129q103 0 103 -103q0 -129 -111 -129q-102 0 -102 103zM127 1012l18 86h367l-139 -658q-31 -147 -31 -227q0 -104 68 -104q59 0 147 53l37 -60q-142 -122 -277 -122q-76 0 -123 55t-47 139q0 92 46 322l79 376q7 33 7 54q0 86 -125 86h-27zM495 1397 q0 129 110 129q103 0 103 -103q0 -129 -111 -129q-102 0 -102 103z" />
<glyph unicode="&#x458;" horiz-adv-x="596" d="M-287 -475l19 94q51 -14 94 -14q103 0 161.5 91.5t98.5 287.5l188 888q7 33 7 54q0 86 -125 86h-27l18 86h367l-235 -1114q-52 -244 -155.5 -360t-291.5 -116q-58 0 -119 17zM346 1415q0 65 33.5 104.5t89.5 39.5q115 0 115 -113q0 -70 -34.5 -106.5t-88.5 -36.5 q-115 0 -115 112z" />
<glyph unicode="&#x459;" horiz-adv-x="1720" d="M4 123q0 57 33 94t82 37q0 -39 21 -67.5t55 -28.5q66 0 119.5 96t196.5 488q92 254 166.5 311t203.5 57q134 0 305 -31l-94 -456q114 10 186 10q354 0 354 -289q0 -168 -106.5 -266t-288.5 -98q-385 0 -385 358q0 51 16 131l74 354q31 148 31 174q-43 21 -96 21 q-109 0 -158.5 -74.5t-169.5 -413.5q-104 -294 -192 -419t-226 -125q-61 0 -94 40t-33 97zM1044 283q0 -203 185 -203q94 0 147.5 71.5t53.5 184.5q0 190 -193 190q-70 0 -168 -8q-25 -136 -25 -235z" />
<glyph unicode="&#x45a;" horiz-adv-x="1624" d="M90 0l172 823q12 57 12 92q0 97 -143 97h-16l18 86h379l-104 -488h393l100 488h193l-99 -475q114 10 187 10q354 0 354 -289q0 -168 -106.5 -266t-288.5 -98q-383 0 -383 358q0 47 14 131l8 47h-391l-108 -516h-191zM948 283q0 -203 185 -203q95 0 147.5 72t52.5 184 q0 190 -192 190q-70 0 -168 -8q-25 -136 -25 -235z" />
<glyph unicode="&#x45b;" horiz-adv-x="1227" d="M90 0l254 1214h-184l18 97h187q10 46 10 63q0 96 -144 96h-16l18 86h377l-53 -245h350l-18 -97h-352l-7 -34q-51 -248 -90 -381h23q165 276 379 276q219 0 219 -227q0 -56 -25 -170q-7 -29 -12 -55l-45 -201q-27 -121 -27 -215q0 -98 72 -98q59 0 131 47l37 -60 q-134 -116 -250 -116q-85 0 -135.5 55t-50.5 149t39 277l39 171q30 124 30 191q0 121 -94 121q-114 0 -234.5 -155.5t-152.5 -305.5l-102 -483h-191z" />
<glyph unicode="&#x45c;" horiz-adv-x="1239" d="M88 0l170 793q18 84 18 122q0 97 -143 97h-16l18 86h381l-106 -496q85 0 140.5 50.5t197.5 224.5q122 144 186 188.5t153 44.5q152 0 152 -123q0 -113 -111 -131q0 115 -90 115q-57 0 -114 -46.5t-172 -186.5q-91 -110 -146 -142q64 -2 122 -54t89 -126l72 -166 q71 -164 209 -164h6l-19 -86h-71q-150 0 -210 40.5t-106 152.5l-67 172q-36 92 -84.5 117.5t-157.5 25.5l-104 -508h-197zM647 1241l6 27q117 135 219 301h219l-6 -21q-157 -183 -356 -307h-82z" />
<glyph unicode="&#x45d;" horiz-adv-x="1227" d="M117 1012l18 86h381l-135 -613q-41 -186 -41 -247q0 -125 100 -125q105 0 226.5 151.5t158.5 323.5l107 510h198l-141 -658q-31 -145 -31 -227q0 -104 68 -104q58 0 131 45l37 -60q-130 -114 -260 -114q-77 0 -124.5 55t-47.5 139q0 53 10 121h-16q-111 -183 -198.5 -248 t-197.5 -65q-219 0 -219 227q0 65 37 225l80 359q18 81 18 122q0 97 -143 97h-16zM486 1548l6 21h205q60 -155 137 -301l-6 -27h-78q-154 150 -264 307z" />
<glyph unicode="&#x45e;" horiz-adv-x="1081" d="M-332 -455l31 103q72 -23 160 -23q293 0 575 373l-270 905q-18 60 -49 84.5t-92 24.5h-21l16 86h299l160 -553q74 -257 86 -371h6q277 421 277 680q0 111 -101 111q0 69 40 110t94 41q139 0 139 -172q0 -247 -276 -694.5t-442.5 -594.5t-438.5 -147q-108 0 -193 37z M284 1432q0 37 11 69l182 47q-14 -44 -14 -90q0 -108 127 -108q232 0 391 252l76 -48q-194 -313 -498 -313q-275 0 -275 191z" />
<glyph unicode="&#x45f;" horiz-adv-x="1227" d="M117 1012l18 86h381l-135 -613q-41 -186 -41 -247q0 -125 100 -125q105 0 226.5 151.5t158.5 323.5l107 510h198l-141 -658q-31 -145 -31 -227q0 -104 68 -104q58 0 131 45l37 -60q-130 -114 -260 -114q-77 0 -124.5 55t-47.5 139q0 53 10 121h-16q-111 -183 -198.5 -248 t-197.5 -65q-219 0 -219 227q0 65 37 225l80 359q18 81 18 122q0 97 -143 97h-16zM174 -436l23 80q35 -11 82 -11q88 0 173 87.5t117 234.5l111 78q-47 -265 -111.5 -382.5t-218.5 -117.5q-97 0 -176 31z" />
<glyph unicode="&#x460;" horiz-adv-x="2011" d="M115 467q0 396 182.5 706t497.5 310q122 0 190 -46.5t68 -123.5q0 -140 -150 -144q0 93 -39.5 149t-111.5 56q-169 0 -292.5 -299.5t-123.5 -617.5q0 -342 229 -342q228 0 287 278l57 269h205l-55 -275q-10 -50 -10 -100q0 -82 54 -127t148 -45q217 0 349.5 308 t132.5 667q0 284 -166 284q-147 0 -226 -205q-122 0 -122 111q0 85 95 144t240 59q185 0 288.5 -121.5t103.5 -347.5q0 -423 -179.5 -728.5t-504.5 -305.5q-250 0 -340 196q-148 -196 -404 -196q-195 0 -299 125.5t-104 361.5z" />
<glyph unicode="&#x461;" horiz-adv-x="1636" d="M61 1018q110 86 197 86q118 0 163 -147.5t99 -770.5l305 402q-23 249 -75 510h188q61 -374 94 -910q175 160 277 355.5t102 339.5q0 93 -76 112q0 60 36 91.5t91 31.5q119 0 119 -139q0 -436 -586 -979h-127l-28 459l-344 -459h-140q-45 614 -84 794.5t-102 180.5 q-38 0 -76 -21z" />
<glyph unicode="&#x462;" horiz-adv-x="1255" d="M-43 0l16 86h43q155 0 185 147l178 838h-64q-118 0 -153 -29.5t-60 -99.5l-8 -22h-96l61 245h340l15 72q8 38 8 57q0 82 -148 82h-26l18 86h596l-18 -86h-27q-100 0 -142.5 -40t-60.5 -119l-12 -52h379l-43 -245h-94v22q0 91 -32 110t-124 19h-104l-56 -262h138 q503 0 503 -342q0 -223 -151 -345t-438 -122h-623zM379 102h178q391 0 391 349q0 139 -70.5 200.5t-218.5 61.5h-151z" />
<glyph unicode="&#x463;" horiz-adv-x="1081" d="M74 944l20 96h195l51 242q12 57 12 92q0 96 -143 96h-16l18 86h379l-111 -516h301l-20 -96h-301l-68 -321q126 10 207 10q395 0 395 -289q0 -169 -119.5 -266.5t-322.5 -97.5q-404 0 -404 292q0 86 31 238l90 434h-194zM344 301q0 -221 215 -221q106 0 169 75t63 181 q0 190 -224 190q-82 0 -196 -8q-27 -132 -27 -217z" />
<glyph unicode="&#x464;" horiz-adv-x="1866" d="M-43 0l16 86h27q170 0 201 147l213 1004q8 38 8 55q0 41 -29 62.5t-119 21.5h-26l18 86h596l-18 -86h-27q-96 0 -139 -36.5t-60 -110.5l-88 -414h304q82 314 287 491t478 177q162 0 254.5 -56.5t92.5 -150.5q0 -75 -57 -120.5t-150 -45.5q4 34 4 65q0 199 -184 199 q-172 0 -303.5 -149t-194.5 -410h508l-21 -102h-510q-16 -98 -16 -217q0 -183 83.5 -283t246.5 -100q203 0 338 176q24 -19 24 -58q0 -98 -105 -174.5t-288 -76.5q-253 0 -387.5 141.5t-134.5 404.5q0 107 14 187h-305l-102 -488q-9 -43 -9 -57q0 -45 33.5 -63.5 t114.5 -18.5h26l-18 -86h-596z" />
<glyph unicode="&#x465;" horiz-adv-x="1569" d="M90 0l172 823q12 57 12 92q0 97 -143 97h-16l18 86h379l-104 -488h284q63 240 212.5 374t355.5 134q140 0 219.5 -56t79.5 -140q0 -63 -50 -103.5t-133 -40.5q0 108 -41 175t-116 67q-100 0 -186 -110.5t-138 -299.5h469l-23 -110h-471q-8 -48 -8 -113q0 -278 225 -278 q179 0 295 147q21 -13 21 -51q0 -82 -96.5 -153.5t-257.5 -71.5q-177 0 -279 110.5t-102 312.5q0 51 8 113h-287l-108 -516h-191z" />
<glyph unicode="&#x466;" horiz-adv-x="1415" d="M-129 0l18 86h19q90 0 186 160l723 1216h148l223 -1265q20 -111 106 -111h21l-19 -86h-493l18 86q76 0 112 26t36 95q0 23 -4 53l-66 453h-108l-152 -713h-193l154 713h-102l-256 -439q-39 -67 -39 -112q0 -76 104 -76l-18 -86h-418zM557 815h326l-21 121 q-34 194 -47 334q-42 -85 -190 -338z" />
<glyph unicode="&#x467;" horiz-adv-x="1182" d="M-109 0l17 86h8q73 0 174 160l545 852h166l190 -901q23 -111 90 -111h11l-17 -86h-393l16 86q95 0 95 104q0 32 -7 70l-45 256h-102l-113 -516h-172l115 516h-94l-152 -242q-57 -91 -57 -135t55 -53l-16 -86h-314zM434 610h291l-8 41q-41 211 -49 324h-6z" />
<glyph unicode="&#x468;" horiz-adv-x="2122" d="M-43 0l16 86h27q99 0 142 37.5t59 109.5l213 1004q8 38 8 57q0 82 -148 82h-26l18 86h596l-18 -86h-27q-98 0 -141 -37t-58 -110l-88 -414h619l385 647h147l224 -1265q20 -111 106 -111h10l-18 -86h-483l18 86q75 0 111.5 26t36.5 95q0 16 -5 53l-65 453h-109l-151 -713 h-193l154 713h-103l-256 -439q-38 -65 -38 -112q0 -76 104 -76l-18 -86h-410l18 86h11q90 0 186 160l276 467h-579l-102 -488q-9 -43 -9 -57q0 -82 148 -82h26l-18 -86h-596zM1274 815h325l-20 121q-36 221 -47 334q-54 -108 -191 -338z" />
<glyph unicode="&#x469;" horiz-adv-x="1640" d="M90 0l172 823q12 57 12 92q0 97 -143 97h-16l18 86h379l-104 -488h374l312 488h166l190 -901q23 -111 90 -111h10l-16 -86h-393l16 86q94 0 94 104q0 30 -6 70l-45 256h-102l-113 -516h-172l115 516h-94l-152 -242q-57 -91 -57 -135t55 -53l-16 -86h-314l17 86h8 q73 0 174 160l172 270h-332l-108 -516h-191zM893 610h291l-8 41q-43 223 -50 324h-6z" />
<glyph unicode="&#x46a;" horiz-adv-x="1612" d="M-119 0l19 86h6q72 0 121 35.5t98 128.5l182 346q113 215 338 215h53l-290 543l22 108h1139l-23 -108l-532 -543h45q120 0 187.5 -64t76.5 -172l35 -325q10 -90 41.5 -127t103.5 -37h6l-18 -86h-8q-197 0 -258.5 45t-69.5 152l-29 352q-8 96 -46.5 133t-139.5 37 l-102 -486q-7 -32 -7 -52q0 -95 146 -95h10l-18 -86h-539l19 86h10q94 0 132 33.5t54 103.5l105 496q-98 0 -151 -34t-105 -136l-181 -352q-59 -115 -132.5 -156t-274.5 -41h-25zM629 1325l262 -491l473 491h-735z" />
<glyph unicode="&#x46b;" horiz-adv-x="1438" d="M-92 0l16 86h4q48 0 82.5 29.5t98.5 134.5l116 190q60 98 136.5 140.5t211.5 44.5l-241 372l18 101h959l-19 -101l-393 -372q130 -6 192 -52t85 -149l36 -174q15 -75 41.5 -119.5t94.5 -44.5h8l-17 -86h-43q-154 0 -198.5 42t-65.5 151l-39 198q-17 86 -46 115t-126 29 l-65 -312q-9 -43 -9 -65q0 -37 18.5 -54.5t78.5 -17.5h18l-16 -86h-449l17 86h8q80 0 110 38.5t45 108.5l64 302q-91 0 -136 -25.5t-97 -118.5l-113 -198q-61 -106 -120.5 -149.5t-223.5 -43.5h-41zM526 971l219 -346h11l362 346h-592z" />
<glyph unicode="&#x46c;" horiz-adv-x="2320" d="M-43 0l16 86h27q99 0 142 37.5t59 109.5l213 1004q8 38 8 57q0 82 -148 82h-26l18 86h596l-18 -86h-27q-98 0 -141 -37t-58 -110l-88 -414h875l-289 539l23 108h1138l-22 -108l-533 -543h45q239 0 265 -236l34 -325q8 -77 37 -120.5t109 -43.5h6l-18 -86h-9 q-198 0 -258.5 45.5t-68.5 151.5l-29 352q-8 96 -46.5 133t-139.5 37l-103 -486q-6 -28 -6 -50q0 -97 146 -97h10l-19 -86h-538l18 86h10q95 0 133.5 34.5t53.5 102.5l104 496q-93 0 -146 -31.5t-110 -138.5l-180 -352q-58 -113 -130.5 -155t-277.5 -42h-18l18 86h7 q74 0 120 37.5t93 126.5l182 344q43 82 100 119h-608l-102 -488q-9 -43 -9 -57q0 -82 148 -82h26l-18 -86h-596zM1337 1325l262 -491l474 491h-736z" />
<glyph unicode="&#x46d;" horiz-adv-x="1862" d="M90 0l172 823q12 57 12 92q0 97 -143 97h-16l18 86h379l-104 -488h608l-240 387l19 101h979l-19 -101l-418 -387q133 -4 196 -45t85 -141l37 -174q19 -90 45 -127t90 -37h8l-16 -86h-43q-146 0 -193.5 38.5t-70.5 154.5l-39 198q-16 82 -51 105.5t-123 23.5l-64 -297 q-8 -37 -8 -65q0 -35 17.5 -53.5t78.5 -18.5h19l-17 -86h-448l16 86h8q80 0 109.5 36t46.5 111l61 287q-92 0 -138 -23t-93 -106l-113 -198q-61 -106 -120.5 -149.5t-223.5 -43.5h-41l17 86h4q48 0 83 31t97 133l117 190q29 47 69 76h-350l-108 -516h-191zM967 971l221 -361 h10l389 361h-620z" />
<glyph unicode="&#x46e;" horiz-adv-x="1235" d="M-4 -174q0 108 87.5 180.5t389.5 106.5q210 24 289.5 101.5t79.5 225.5q0 121 -81 189.5t-231 68.5h-159l22 105h174q171 0 284.5 96.5t113.5 249.5q0 109 -64 170t-180 61q-228 0 -291 -305q-158 0 -158 129q0 113 114 190t296 87q-53 110 -156 231l4 27h80 q83 -63 187 -195q106 127 166 162t124 35q91 0 91 -72q0 -31 -27 -53q-31 12 -68 12q-102 0 -213 -158q144 -28 226 -110.5t82 -198.5q0 -163 -112.5 -273t-307.5 -136q141 -19 227 -102.5t86 -207.5q0 -198 -134.5 -302.5t-485.5 -139.5q-244 -25 -244 -164 q0 -112 131 -112q90 0 231 55q140 55 232 55q155 0 155 -123q0 -117 -135 -137q-26 92 -119 92q-52 0 -183 -26q-131 -27 -212 -27q-311 0 -311 213z" />
<glyph unicode="&#x46f;" horiz-adv-x="975" d="M-92 -172q0 102 81 166t341 96q319 39 319 246q0 81 -56 132.5t-147 51.5h-190l23 111h192q119 0 186.5 58t67.5 163q0 77 -45.5 123.5t-130.5 46.5q-195 0 -244 -221q-141 0 -141 90q0 85 82.5 147t230.5 74q-52 100 -145 213l4 27h80q86 -66 186 -195 q107 128 167 162.5t124 34.5q90 0 90 -72q0 -33 -27 -53q-29 12 -67 12q-100 0 -199 -137q114 -23 175 -88t61 -152q0 -202 -281 -284l-2 -11q205 -57 205 -229q0 -160 -123.5 -243.5t-407.5 -110.5q-221 -21 -221 -148q0 -100 119 -100q73 0 204 49t212 49q141 0 141 -110 q0 -105 -123 -125q-23 84 -106 84q-47 0 -165 -25q-119 -25 -192 -25q-278 0 -278 193z" />
<glyph unicode="&#x470;" horiz-adv-x="1696" d="M186 1376l19 86h397l-102 -483q-23 -109 -23 -172q0 -201 268 -201h31l135 631q9 42 9 57q0 82 -148 82h-27l19 86h584l-19 -86h-26q-96 0 -139.5 -36t-59.5 -111l-133 -623h49q165 0 250.5 73.5t134.5 299.5l102 483h371l-18 -86q-96 0 -140 -36.5t-59 -110.5l-53 -254 q-51 -244 -197 -354.5t-391 -110.5h-70l-59 -285q-8 -39 -8 -57q0 -82 147 -82h27l-19 -86h-583l16 86h27q97 0 141 36.5t59 110.5l58 277h-68q-409 0 -409 311q0 64 18 154l55 262q8 38 8 57q0 82 -147 82h-27z" />
<glyph unicode="&#x471;" horiz-adv-x="1450" d="M117 1012l18 86h375l-141 -672q-11 -52 -11 -96q0 -202 244 -219l309 1445h123l-307 -1439q221 31 347 207.5t126 431.5q0 169 -113 231q27 123 123 123q133 0 133 -229q0 -349 -170 -607t-475 -290l-100 -476h-123l100 474q-197 7 -304 93t-107 232q0 62 14 127l76 363 q22 105 22 118q0 97 -143 97h-16z" />
<glyph unicode="&#x472;" horiz-adv-x="1520" d="M106 545q0 352 230 646t590 294q238 0 384 -148t146 -415q0 -351 -228 -648t-585 -297q-243 0 -390 153.5t-147 414.5zM330 487q0 -192 87 -294.5t238 -102.5q188 0 332 163.5t211 448.5q-122 -65 -237 -65q-79 0 -219 66q-141 65 -222 65q-77 0 -168 -55 q-22 -120 -22 -226zM379 825q133 66 237 66q77 0 216 -65q139 -66 219 -66q79 0 168 55q12 86 12 162q0 191 -84.5 294t-237.5 103q-176 0 -315 -145t-215 -404z" />
<glyph unicode="&#x473;" horiz-adv-x="1176" d="M88 403q0 276 168.5 495.5t441.5 219.5q181 0 285 -109t104 -315q0 -273 -167 -493.5t-439 -220.5q-185 0 -289 112t-104 311zM301 362q0 -282 203 -282q124 0 215 113.5t133 314.5q-67 -37 -123 -37q-63 0 -162 43t-153 43t-101 -31q-12 -86 -12 -164zM334 629 q74 39 125 39q61 0 160 -43t155 -43q53 0 94 28q6 59 6 115q0 285 -200 285q-234 0 -340 -381z" />
<glyph unicode="&#x474;" horiz-adv-x="1421" d="M168 1376l18 86h557l-16 -86h-41q-154 0 -154 -112q0 -27 5 -62l81 -665q21 -172 21 -336q81 202 149 336l279 561q116 233 202.5 305t194.5 72q135 0 135 -97q0 -76 -88 -102q-17 47 -75 47q-118 0 -242 -248l-535 -1075h-167l-175 1268q-9 64 -34.5 86t-85.5 22h-29z " />
</font>
</defs>
</svg>
