<?xml version="1.0" encoding="UTF-8" standalone="no"?>
<svg width="43px" height="44px" viewBox="0 0 43 44" version="1.1" xmlns="http://www.w3.org/2000/svg" xmlns:xlink="http://www.w3.org/1999/xlink" xmlns:sketch="http://www.bohemiancoding.com/sketch/ns">
    <!-- Generator: Sketch 3.2.2 (9983) - http://www.bohemiancoding.com/sketch -->
    <title>Imported Layers</title>
    <desc>Created with Sketch.</desc>
    <defs></defs>
    <g id="Page-1" stroke="none" stroke-width="1" fill="none" fill-rule="evenodd" sketch:type="MSPage">
        <g id="1440_Hp" sketch:type="MSArtboardGroup" transform="translate(-612.000000, -2773.000000)" fill="#DCE0EA">
            <g id="FOOTER" sketch:type="MSLayerGroup" transform="translate(536.000000, 2690.500000)">
                <g id="Footer" sketch:type="MSShapeGroup">
                    <g id="Group-2" transform="translate(76.000000, 83.000000)">
                        <path d="M21.3333333,0 C9.55066667,0 0,9.53733333 0,21.3333333 C0,33.1173333 9.55066667,42.6666667 21.3333333,42.6666667 C33.116,42.6666667 42.6666667,33.1173333 42.6666667,21.3333333 C42.6666667,9.53733333 33.1146667,0 21.3333333,0 L21.3333333,0 Z M26.2893333,21.3213333 L23.1053333,21.3213333 L23.1053333,32.852 L18.336,32.852 L18.336,21.3213333 L15.9506667,21.3213333 L15.9506667,17.3493333 L18.336,17.3493333 L18.336,14.9613333 C18.336,11.7106667 19.6813333,9.76666667 23.504,9.76666667 L26.6986667,9.76666667 L26.6986667,13.7386667 L24.7226667,13.7386667 C23.232,13.7386667 23.1386667,14.2933333 23.1386667,15.3226667 L23.1106667,17.3133333 L26.7186667,17.3133333 L26.2893333,21.3213333 L26.2893333,21.3213333 Z" id="Imported-Layers"></path>
                    </g>
                </g>
            </g>
        </g>
    </g>
</svg>