<?xml version="1.0" encoding="UTF-8" standalone="no"?>
<svg width="18px" height="13px" viewBox="0 0 18 13" version="1.1" xmlns="http://www.w3.org/2000/svg" xmlns:xlink="http://www.w3.org/1999/xlink" xmlns:sketch="http://www.bohemiancoding.com/sketch/ns">
    <!-- Generator: Sketch 3.3.1 (12002) - http://www.bohemiancoding.com/sketch -->
    <title>link out copy</title>
    <desc>Created with Sketch.</desc>
    <defs></defs>
    <g id="Page-1" stroke="none" stroke-width="1" fill="none" fill-rule="evenodd" sketch:type="MSPage">
        <g id="1920_Github_Akka_Stream" sketch:type="MSArtboardGroup" transform="translate(-554.000000, -1584.000000)" fill="#8E95A6">
            <g id="CONTENT" sketch:type="MSLayerGroup" transform="translate(250.000000, 1230.000000)">
                <g id="1" sketch:type="MSShapeGroup">
                    <g id="profil-5-copy" transform="translate(0.000000, 14.000000)">
                        <g id="link-out-copy" transform="translate(304.000000, 340.000000)">
                            <path d="M9.27276923,12.6322 C10.476,12.6322 11.4549231,11.6046 11.4549231,10.3418 L11.4549231,8.8088 L10.1173846,8.8088 L10.1173846,10.3418 C10.1173846,10.829 9.738,11.2266 9.27276923,11.2266 L3.09046154,11.2266 C2.62523077,11.2266 2.24584615,10.829 2.24584615,10.3418 L2.24584615,2.3226 C2.24584615,1.834 2.62523077,1.4364 3.09046154,1.4364 L9.27276923,1.4364 C9.738,1.4364 10.1173846,1.834 10.1173846,2.3226 L10.1173846,3.8556 L11.4549231,3.8556 L11.4549231,2.3226 C11.4549231,1.0598 10.476,0.0322 9.27276923,0.0322 L3.09046154,0.0322 C1.88723077,0.0322 0.908307692,1.0598 0.908307692,2.3226 L0.908307692,10.3418 C0.908307692,11.6046 1.88723077,12.6322 3.09046154,12.6322" id="Fill-1"></path>
                            <path d="M12.9973846,8.54026797 C12.7356923,8.81466797 12.7356923,9.25846797 12.9973846,9.53286797 C13.1275385,9.67006797 13.2992308,9.73866797 13.4695385,9.73866797 C13.6412308,9.73866797 13.8129231,9.67006797 13.9430769,9.53286797 L17.0916923,6.22746797 L13.9430769,2.92066797 C13.6813846,2.64766797 13.2576923,2.64766797 12.9973846,2.92066797 C12.7356923,3.19506797 12.7356923,3.64026797 12.9973846,3.91466797 L14.5301538,5.52466797 L4.53184615,5.52466797 L4.53184615,6.92886797 L14.5315385,6.92886797 L12.9973846,8.54026797" id="Fill-2"></path>
                        </g>
                    </g>
                </g>
            </g>
        </g>
    </g>
</svg>