<?xml version="1.0" encoding="UTF-8" standalone="no"?>
<svg width="20px" height="25px" viewBox="0 0 20 25" version="1.1" xmlns="http://www.w3.org/2000/svg" xmlns:xlink="http://www.w3.org/1999/xlink" xmlns:sketch="http://www.bohemiancoding.com/sketch/ns">
    <!-- Generator: Sketch 3.3.1 (12002) - http://www.bohemiancoding.com/sketch -->
    <title>Imported Layers Copy 2</title>
    <desc>Created with Sketch.</desc>
    <defs></defs>
    <g id="Page-1" stroke="none" stroke-width="1" fill="none" fill-rule="evenodd" sketch:type="MSPage">
        <g id="1920_Github_Akka_Stream" sketch:type="MSArtboardGroup" transform="translate(-349.000000, -1863.000000)" fill="#FFFFFF">
            <g id="CONTENT" sketch:type="MSLayerGroup" transform="translate(250.000000, 1230.000000)">
                <g id="btn" transform="translate(73.500000, 611.000000)" sketch:type="MSShapeGroup">
                    <path d="M33.6,39.9961053 C35.7106667,39.6635789 37.336,37.8449474 37.336,35.6376842 L37.336,29.2991579 C37.336,27.1247368 38.264,26.1558947 40.3453333,26.1558947 L42.048,26.1558947 L40.72,27.4887368 C40.4533333,27.7555789 40.4533333,28.1893684 40.72,28.4575789 C40.8533333,28.5903158 41.028,28.6573684 41.2026667,28.6573684 C41.3786667,28.6573684 41.5533333,28.5903158 41.6866667,28.4575789 L44.1826667,25.9561053 L44.6666667,25.4716842 L44.184,24.9872632 L41.6866667,22.4844211 C41.42,22.2162105 40.9866667,22.2162105 40.72,22.4844211 C40.4533333,22.7526316 40.4533333,23.1864211 40.72,23.4532632 L42.0493333,24.7861053 L40.3453333,24.7861053 C37.4813333,24.7861053 35.968,26.3461053 35.968,29.2991579 L35.968,35.6376842 C35.968,37.3235789 34.5986667,38.6947368 32.916,38.6947368 C31.2333333,38.6947368 29.8653333,37.3235789 29.8653333,35.6376842 L29.8653333,24.6232632 L31.1933333,25.9561053 C31.328,26.0888421 31.5026667,26.1558947 31.6773333,26.1558947 C31.852,26.1558947 32.0266667,26.0888421 32.1613333,25.9561053 C32.428,25.6878947 32.428,25.2541053 32.1613333,24.9858947 L29.1813333,22 L26.2,24.9858947 C25.9333333,25.2541053 25.9333333,25.6878947 26.2,25.9561053 C26.468,26.2229474 26.9,26.2229474 27.168,25.9561053 L28.4973333,24.6232632 L28.4973333,35.6376842 C28.4973333,37.8449474 30.1213333,39.6635789 32.232,39.9961053 L32.232,46.6534737 L33.6,46.6534737 L33.6,39.9961053 Z" id="Imported-Layers-Copy-2"></path>
                </g>
            </g>
        </g>
    </g>
</svg>