<?xml version="1.0" encoding="UTF-8" standalone="no"?>
<svg width="44px" height="44px" viewBox="0 0 44 44" version="1.1" xmlns="http://www.w3.org/2000/svg" xmlns:xlink="http://www.w3.org/1999/xlink" xmlns:sketch="http://www.bohemiancoding.com/sketch/ns">
    <!-- Generator: Sketch 3.2.2 (9983) - http://www.bohemiancoding.com/sketch -->
    <title>Group</title>
    <desc>Created with Sketch.</desc>
    <defs></defs>
    <g id="Page-1" stroke="none" stroke-width="1" fill="none" fill-rule="evenodd" sketch:type="MSPage">
        <g id="1440_Hp" sketch:type="MSArtboardGroup" transform="translate(-669.000000, -2773.000000)" fill="#DCE0EA">
            <g id="FOOTER" sketch:type="MSLayerGroup" transform="translate(536.000000, 2690.500000)">
                <g id="Footer" sketch:type="MSShapeGroup">
                    <g id="Group-2" transform="translate(76.000000, 83.000000)">
                        <g id="Group" transform="translate(57.000000, 0.000000)">
                            <path d="M22.8773333,21.8733333 C22.6266667,21.392 22.396,20.8293333 22.2373333,20.3453333 C19.0266667,21.4706667 15.7373333,22.096 12.4493333,22.096 C11.9693333,22.096 11.4773333,22.0133333 10.9213333,22.0133333 C11.004,24.5973333 12.06,26.9853333 13.8106667,28.8226667 C15.98,25.56 19.1866667,23.1573333 22.8773333,21.8733333" id="Fill-1"></path>
                            <path d="M15.416,30.376 C17.3426667,31.66 19.508,32.3813333 21.7533333,32.3813333 C22.956,32.3813333 24.08,32.2226667 25.2066667,31.8186667 C24.9626667,29.0693333 24.4013333,26.4466667 23.6226667,23.9573333 C20.2293333,25.0786667 17.424,27.324 15.416,30.376" id="Fill-2"></path>
                            <path d="M29.2933333,13.6906667 C27.288,11.7733333 24.6426667,10.644 21.7533333,10.644 C20.7906667,10.644 19.908,10.8026667 18.948,11.06 C20.632,13.1426667 22.076,15.3106667 23.2786667,17.5546667 C25.444,16.5786667 27.448,15.3013333 29.2933333,13.6906667" id="Fill-3"></path>
                            <path d="M21.272,18.3386667 C20.0693333,16.0906667 18.5453333,13.924 16.78,11.8386667 C13.732,13.4453333 11.5666667,16.4226667 11.004,19.8666667 L12.448,19.8666667 C15.416,19.8626667 18.384,19.384 21.272,18.3386667" id="Fill-4"></path>
                            <path d="M25.684,23.3933333 C26.4893333,25.8093333 26.968,28.2893333 27.288,30.8653333 C29.9346667,29.3373333 31.78,26.6933333 32.4266667,23.644 C31.0653333,23.3386667 29.788,23.172 28.5093333,23.172 C27.608,23.1573333 26.6493333,23.232 25.684,23.3933333" id="Fill-5"></path>
                            <path d="M21.7933333,0.172 C10.012,0.172 0.46,9.724 0.46,21.5053333 C0.46,33.2973333 10.012,42.8386667 21.7933333,42.8386667 C33.5746667,42.8386667 43.1266667,33.2973333 43.1266667,21.5053333 C43.1266667,9.724 33.5746667,0.172 21.7933333,0.172 L21.7933333,0.172 Z M21.7533333,34.548 C14.5333333,34.548 8.76266667,28.6866667 8.76266667,21.4653333 C8.76266667,14.3266667 14.5346667,8.47066667 21.7533333,8.47066667 C28.9733333,8.47066667 34.836,14.332 34.836,21.4653333 C34.828,28.6906667 28.9733333,34.548 21.7533333,34.548 L21.7533333,34.548 Z" id="Fill-6"></path>
                            <path d="M24.2413333,19.548 C24.4853333,20.108 24.72,20.7426667 24.9626667,21.2973333 C26.1653333,21.0466667 27.3733333,20.8853333 28.4906667,20.8853333 C29.852,20.8853333 31.2186667,21.136 32.6626667,21.4546667 C32.6626667,19.288 31.9413333,17.204 30.7386667,15.372 C28.732,17.0546667 26.4866667,18.5 24.2413333,19.548" id="Fill-7"></path>
                        </g>
                    </g>
                </g>
            </g>
        </g>
    </g>
</svg>