<?xml version="1.0" encoding="UTF-8" standalone="no"?>
<svg width="43px" height="44px" viewBox="0 0 43 44" version="1.1" xmlns="http://www.w3.org/2000/svg" xmlns:xlink="http://www.w3.org/1999/xlink" xmlns:sketch="http://www.bohemiancoding.com/sketch/ns">
    <!-- Generator: Sketch 3.2.2 (9983) - http://www.bohemiancoding.com/sketch -->
    <title>Imported Layers</title>
    <desc>Created with Sketch.</desc>
    <defs></defs>
    <g id="Page-1" stroke="none" stroke-width="1" fill="none" fill-rule="evenodd" sketch:type="MSPage">
        <g id="1440_Hp" sketch:type="MSArtboardGroup" transform="translate(-727.000000, -2773.000000)" fill="#DCE0EA">
            <g id="FOOTER" sketch:type="MSLayerGroup" transform="translate(536.000000, 2690.500000)">
                <g id="Footer" sketch:type="MSShapeGroup">
                    <g id="Group-2" transform="translate(76.000000, 83.000000)">
                        <path d="M136.332,0 C124.550667,0 115,9.552 115,21.3333333 C115,33.1293333 124.550667,42.6666667 136.332,42.6666667 C148.12,42.6666667 157.665333,33.1293333 157.665333,21.3333333 C157.665333,9.55466667 148.110667,0 136.332,0 L136.332,0 Z M149.721333,14.852 C149.121333,15.824 148.305333,16.7133333 147.224,17.504 L147.224,17.9666667 C147.306667,22.2173333 145.196,27.716 140.288,30.828 C137.830667,32.4026667 135.093333,33.1866667 132.037333,33.1866667 C129.565333,33.1866667 127.250667,32.6026667 125.065333,31.492 C124.481333,31.1866667 124.06,30.96 123.870667,30.7973333 C123.732,30.6853333 123.674667,30.552 123.674667,30.436 C123.674667,30.1853333 123.870667,29.9906667 124.124,29.9906667 C124.262667,29.9906667 124.457333,30.0186667 124.753333,30.0186667 C125.032,30.0466667 125.225333,30.0466667 125.386667,30.0466667 C127.3,30.0466667 129.025333,29.5746667 130.633333,28.5746667 C128.716,28.1293333 127.161333,26.7133333 126.550667,24.8253333 C126.532,24.7426667 126.522667,24.6866667 126.522667,24.6866667 C126.522667,24.46 126.717333,24.2706667 126.938667,24.2706667 C126.972,24.2706667 127.050667,24.2986667 127.133333,24.2986667 C127.216,24.3266667 127.272,24.3266667 127.3,24.3266667 C125.650667,23.2986667 124.578667,21.4666667 124.578667,19.536 C124.578667,19.2493333 124.829333,19.024 125.106667,19.024 C125.189333,19.024 125.357333,19.0826667 125.578667,19.1626667 C125.829333,19.2746667 125.945333,19.3573333 125.994667,19.3573333 C125.133333,18.3293333 124.709333,17.14 124.709333,15.7733333 C124.709333,14.8013333 124.988,13.6346667 125.458667,12.94 C125.548,12.7973333 125.658667,12.6933333 125.82,12.6933333 C125.958667,12.6933333 126.098667,12.7733333 126.181333,12.8853333 C126.884,13.672 127.389333,14.1906667 127.709333,14.4693333 C129.998667,16.552 132.930667,17.8053333 135.984,18.0586667 C135.944,17.864 135.929333,17.6426667 135.929333,17.364 C135.929333,14.252 138.457333,11.7253333 141.568,11.7253333 C143.096,11.7253333 144.401333,12.2533333 145.498667,13.3093333 C146.376,13.1146667 147.36,12.7253333 148.416,12.1706667 C148.498667,12.1426667 148.554667,12.096 148.645333,12.096 C148.889333,12.096 149.1,12.2906667 149.1,12.5413333 C149.1,12.9893333 148.416,14.1253333 147.996,14.624 C148.133333,14.596 148.634667,14.3733333 149.024,14.2626667 C149.218667,14.18 149.329333,14.1666667 149.357333,14.1666667 C149.608,14.1666667 149.813333,14.3746667 149.813333,14.6146667 C149.796,14.7066667 149.766667,14.796 149.721333,14.852 L149.721333,14.852 Z" id="Imported-Layers"></path>
                    </g>
                </g>
            </g>
        </g>
    </g>
</svg>