<?xml version="1.0" encoding="UTF-8" standalone="no"?>
<svg width="43px" height="44px" viewBox="0 0 43 44" version="1.1" xmlns="http://www.w3.org/2000/svg" xmlns:xlink="http://www.w3.org/1999/xlink" xmlns:sketch="http://www.bohemiancoding.com/sketch/ns">
    <!-- Generator: Sketch 3.2.2 (9983) - http://www.bohemiancoding.com/sketch -->
    <title>Fill 2</title>
    <desc>Created with Sketch.</desc>
    <defs></defs>
    <g id="Page-1" stroke="none" stroke-width="1" fill="none" fill-rule="evenodd" sketch:type="MSPage">
        <g id="1440_Hp" sketch:type="MSArtboardGroup" transform="translate(-785.000000, -2773.000000)" fill="#DCE0EA">
            <g id="FOOTER" sketch:type="MSLayerGroup" transform="translate(536.000000, 2690.500000)">
                <g id="Footer" sketch:type="MSShapeGroup">
                    <g id="Group-2" transform="translate(76.000000, 83.000000)">
                        <path d="M194.5,0 C182.622594,0 173,9.626625 173,21.5 C173,33.3747187 182.622594,43 194.5,43 C206.373375,43 216,33.3747187 216,21.5 C216,9.6293125 206.373375,0 194.5,0 L194.5,0 Z M207.601563,23.6285 L203.274688,25.6938438 L200.259313,31.019125 C199.712406,31.87375 198.701906,31.9839375 197.962844,31.2395 L197.374281,30.6361563 C197.346063,30.6119688 197.321875,30.6079375 197.290969,30.5716563 L195.975438,29.22925 L192.719531,30.7691875 C191.739938,31.1884375 190.591031,30.771875 190.120719,29.7895938 L182.254406,13.356875 C181.778719,12.3772813 182.226188,11.9136875 183.234,12.3208438 L207.503469,22.09125 C208.481719,22.4715313 208.519344,23.160875 207.601563,23.6285 Z M199.075469,22.532 L187.570281,15.6587187 C186.645781,15.1024062 186.53425,15.2394687 187.349906,15.9664375 L196.000969,23.6782187 C196.812594,24.3944375 198.212781,24.6578125 199.118469,24.2667812 C200.030875,23.870375 200.009375,23.091 199.075469,22.532 Z" id="Fill-2"></path>
                    </g>
                </g>
            </g>
        </g>
    </g>
</svg>