<?xml version="1.0" encoding="UTF-8" standalone="no"?>
<svg width="18px" height="16px" viewBox="0 0 18 16" version="1.1" xmlns="http://www.w3.org/2000/svg" xmlns:xlink="http://www.w3.org/1999/xlink" xmlns:sketch="http://www.bohemiancoding.com/sketch/ns">
    <!-- Generator: Sketch 3.3.1 (12002) - http://www.bohemiancoding.com/sketch -->
    <title>Imported Layers 5</title>
    <desc>Created with Sketch.</desc>
    <defs></defs>
    <g id="Page-1" stroke="none" stroke-width="1" fill="none" fill-rule="evenodd" sketch:type="MSPage">
        <g id="1920_Github_Akka_Stream" sketch:type="MSArtboardGroup" transform="translate(-1584.000000, -5892.000000)" fill="#C4CCDE">
            <g id="CONTENT" sketch:type="MSLayerGroup" transform="translate(250.000000, 1230.000000)">
                <g id="6" transform="translate(479.000000, 4369.000000)" sketch:type="MSShapeGroup">
                    <g id="Rectangle-1650-Copy" transform="translate(0.900000, 235.000000)">
                        <g id="All-matters-in-digit-+-The-Programmable--Ne-2" transform="translate(0.000000, 32.000000)">
                            <g id="Rectangle-480-+-btn_case-22-+-Digitalizing-brand-e-5" transform="translate(829.000000, 0.000000)">
                                <g id="Oval-209-+-Imported-Layers-6">
                                    <path d="M39.6784659,34.9922222 L35.0322159,40.1391667 C34.6867898,40.5202778 34.6867898,41.1386111 35.0322159,41.5197222 C35.3758523,41.9008333 35.9342614,41.9008333 36.2778977,41.5197222 L43.0539773,34.0161111 L36.299375,26.5358333 C36.125767,26.3452778 35.9002557,26.25 35.6747443,26.25 C35.449233,26.25 35.2237216,26.3452778 35.0519034,26.5358333 C34.7064773,26.9169444 34.7064773,27.5352778 35.0519034,27.9163889 L39.6784659,33.04 L25.15625,33.04 L25.15625,34.9922222 L39.6784659,34.9922222 Z" id="Imported-Layers-5"></path>
                                </g>
                            </g>
                        </g>
                    </g>
                </g>
            </g>
        </g>
    </g>
</svg>