<?xml version="1.0" encoding="UTF-8" standalone="no"?>
<svg width="124px" height="60px" viewBox="0 0 124 60" version="1.1" xmlns="http://www.w3.org/2000/svg" xmlns:xlink="http://www.w3.org/1999/xlink" xmlns:sketch="http://www.bohemiancoding.com/sketch/ns">
    <!-- Generator: Sketch 3.2.2 (9983) - http://www.bohemiancoding.com/sketch -->
    <title>Imported Layers 2</title>
    <desc>Created with Sketch.</desc>
    <defs></defs>
    <g id="Page-1" stroke="none" stroke-width="1" fill="none" fill-rule="evenodd" sketch:type="MSPage">
        <g id="1920_Hp" sketch:type="MSArtboardGroup" transform="translate(-897.000000, -2931.000000)" fill="#5F6A7F">
            <g id="FOOTER" sketch:type="MSLayerGroup" transform="translate(775.683386, 2931.500000)">
                <g id="Footer" sketch:type="MSShapeGroup">
                    <g id="Imported-Layers-2" transform="translate(122.000000, 0.000000)">
                        <path d="M83.1393136,47.9733593 L1.21471186,47.9733593 C0.638974576,47.9733593 0.172338983,47.4988862 0.172338983,46.913479 C0.172338983,46.3280719 0.638974576,45.8535988 1.21471186,45.8535988 L85.2240593,45.8535988 L85.2240593,54.674982 L98.1324576,45.8535988 L121.377373,45.8535988 C121.95311,45.8535988 122.419746,46.3280719 122.419746,46.913479 C122.419746,47.4988862 121.95311,47.9733593 121.377373,47.9733593 L98.7676102,47.9733593 L83.1393136,58.6537725 L83.1393136,47.9733593 Z" id="Fill-1"></path>
                        <path d="M19.9857627,26.8177964 L19.9857627,15.4262036 C19.9857627,14.2366647 19.909322,13.5039341 19.7567881,13.2297784 C19.6042542,12.9566826 19.2481102,12.8192515 18.6859237,12.8192515 C18.4982966,12.8192515 18.200178,12.8909701 17.790178,13.0340539 C17.3808729,13.1767844 17.023339,13.3431856 16.7193136,13.5336108 L16.7193136,26.8177964 L10.9952966,26.8177964 L10.9952966,15.390521 C10.9952966,14.1532874 10.9358814,13.3968862 10.8187881,13.1237904 C10.7013475,12.8496347 10.3504153,12.7122036 9.76564407,12.7122036 C9.48524576,12.7122036 9.14438983,12.7835689 8.74724576,12.927006 C8.34801695,13.0690299 8.03217797,13.2361377 7.79868644,13.4265629 L7.79868644,26.8177964 L1.86341525,26.8177964 L1.86341525,15.0824491 C1.86341525,12.5786587 1.67578814,10.5154251 1.30192373,8.8931018 L6.92066102,7.9271976 L6.95610169,8.06992814 C7.14372881,8.7372994 7.24831356,9.2841976 7.27194068,9.71274251 C7.92724576,9.14076048 8.63571186,8.70126347 9.39664407,8.39142515 C10.1568814,8.08229341 10.9126017,7.9271976 11.6620678,7.9271976 C12.5755339,7.9271976 13.3534915,8.10031138 13.9973305,8.44512575 C14.6411695,8.79029341 15.2203814,9.2841976 15.7363559,9.92683832 C17.187339,8.59350898 18.9201102,7.9271976 20.9329322,7.9271976 C21.6368814,7.9271976 22.2730763,8.00492216 22.8477712,8.15895808 C23.4207288,8.31476048 23.9360085,8.58820958 24.3925678,8.98071856 C24.8501695,9.37322754 25.2063136,9.9335509 25.4641271,10.6588623 C25.7212458,11.3855868 25.8498051,12.2963772 25.8498051,13.3905269 L25.8498051,26.8177964 L19.9857627,26.8177964" id="Fill-2"></path>
                        <path d="M38.5632797,5.07046707 C38.0712797,4.78465269 37.4865085,4.64192216 36.8075763,4.64192216 C36.4326695,4.64192216 36.1046695,4.76133533 35.8239237,4.99839521 C35.5424831,5.23722156 35.4028051,5.55871856 35.4028051,5.96323952 L35.4028051,8.39142515 L39.2300508,8.39142515 L37.9350763,12.4624251 L35.4028051,12.4624251 L35.4028051,26.8177964 L29.2920678,26.8177964 L29.2920678,12.4624251 L27.7465763,12.4624251 L27.7465763,8.39142515 L29.2920678,8.39142515 C29.2448136,8.12998802 29.2152797,7.81944311 29.2034661,7.46332335 C29.1923475,7.10579042 29.1864407,6.67724551 29.1864407,6.17698204 C29.1864407,4.91501796 29.397,3.87986826 29.8181186,3.07117964 C30.2399322,2.26107784 30.7725847,1.65482635 31.4167712,1.2495988 C32.0606102,0.845431138 32.7273814,0.571275449 33.4181271,0.427838323 C34.1088729,0.285814371 34.805178,0.213389222 35.5077373,0.213389222 C36.4910424,0.213389222 37.322161,0.285814371 38.0017881,0.427838323 C38.679678,0.571275449 39.3481864,0.821053892 40.003839,1.17858683 L38.5632797,5.07046707" id="Fill-3"></path>
                        <path d="M56.9403136,9.03936527 L56.9403136,11.8194311 C56.0647203,12.4426407 55.5369322,12.4030719 55.4201864,12.355024 C55.6074661,12.4977545 55.801,12.7895749 55.9997458,13.2297784 C56.1977966,13.6706886 56.2975169,14.1289102 56.2975169,14.6051497 C56.2975169,15.4615329 56.1050254,16.2419581 55.7179576,16.9435988 C55.3326271,17.6459461 54.7885085,18.2476048 54.0856017,18.747515 C53.3837373,19.2470719 52.5877119,19.6279222 51.6975254,19.8900659 C50.8076864,20.1522096 49.8594746,20.2825749 48.8532373,20.2825749 L46.8862797,20.2825749 C46.8626525,20.3069521 46.8275593,20.3419281 46.7806525,20.3896228 C46.5930254,20.6040719 46.4999068,20.7828383 46.4999068,20.9259222 C46.4999068,21.0926766 46.645839,21.2294012 46.9387458,21.3364491 C47.2313051,21.4431437 47.6235847,21.496491 48.1152373,21.496491 L50.749661,21.496491 C52.8795763,21.496491 54.5188814,21.9677844 55.665839,22.9075449 C56.8134915,23.848012 57.3867966,25.1513114 57.3867966,26.8177964 C57.3867966,29.007509 56.5615847,30.7633772 54.9104661,32.0843413 C53.2607373,33.4056587 50.8076864,34.0666707 47.5527034,34.0666707 C46.1013729,34.0666707 44.8498305,33.9355988 43.7959915,33.6741617 C42.7421525,33.4116647 41.8815,33.0551916 41.2140339,32.6022695 C40.5472627,32.1497006 40.0556102,31.6314192 39.7397712,31.0491916 C39.4228898,30.4651976 39.2654915,29.8525868 39.2654915,29.2102994 C39.2654915,28.8527665 39.2877288,28.4538982 39.3353305,28.0136946 C39.3818898,27.5727844 39.4413051,27.1746228 39.5107966,26.8177964 L44.989161,26.8177964 C44.9658814,27.0552096 44.9544153,27.4244012 44.9544153,27.9246647 C44.9544153,28.9714731 45.9735085,29.4957605 48.0099576,29.4957605 C49.0405169,29.4957605 49.8365424,29.3046287 50.3980339,28.924485 C50.9598729,28.5429281 51.2413136,28.0666886 51.2413136,27.4954132 C51.2413136,26.8531257 51.0245,26.4309401 50.5915678,26.228503 C50.1579407,26.0264192 49.2747034,25.925024 47.9401186,25.925024 L44.7438559,25.925024 C43.2456186,25.925024 42.0795508,25.6151856 41.2494746,24.9962156 C40.4180085,24.3772455 40.0027966,23.4968383 40.0027966,22.3535808 C40.0027966,21.6632455 40.1956356,20.9969341 40.5823559,20.3535868 C40.9680339,19.7112994 41.524661,19.2357665 42.2508475,18.9259281 C40.5173814,17.9971198 39.6515169,16.4383892 39.6515169,14.2476168 C39.6515169,12.2963772 40.4002881,10.7546048 41.8992203,9.62300599 C43.3974576,8.49282036 45.4109746,7.9271976 47.9401186,7.9271976 C48.7125169,7.9271976 49.3619153,7.96923952 49.8893559,8.05191018 C50.4161017,8.13528743 50.971339,8.26105988 51.5575,8.42746108 C52.3302458,8.61788623 52.9382966,8.71292216 53.3837373,8.71292216 C53.9924831,8.71292216 54.8760678,8.57690419 55.4010763,8.38930539 C55.9799407,8.18227545 56.9340593,7.847 56.9340593,7.847 L56.9403136,9.03936527 L56.9403136,9.03936527 Z M47.8994661,11.5074731 C46.0648898,11.5074731 45.1469068,12.4239162 45.1469068,14.2592754 C45.1469068,16.0313952 46.0496017,16.9167485 47.8532542,16.9167485 C48.7701949,16.9167485 49.4741441,16.6994731 49.9637119,16.2638623 C50.4525847,15.8286048 50.6975424,15.1605269 50.6975424,14.2592754 C50.6975424,12.4239162 49.7642712,11.5074731 47.8994661,11.5074731 L47.8994661,11.5074731 Z" id="Fill-4"></path>
                        <path d="M66.6691271,23.2463533 C66.6691271,23.9377485 66.7389661,24.4076287 66.879339,24.6574072 C67.0207542,24.9071856 67.277178,25.0322515 67.6517373,25.0322515 C67.6986441,25.0322515 67.7577119,25.0209461 67.8275508,24.9962156 C67.8980847,24.9736048 67.9564576,24.9601796 68.0040593,24.9601796 L68.5652034,26.7821138 C68.2142712,26.9481617 67.9265763,27.0552096 67.7045508,27.1029042 C67.4814831,27.1505988 67.1830169,27.1746228 66.8088051,27.1746228 C65.9665678,27.1746228 65.2751271,26.9248443 64.7369153,26.4245808 C64.1750763,25.925024 63.8943305,25.0795928 63.8943305,23.8893473 L63.8943305,5.03443114 C63.8943305,4.05863473 63.8411695,3.26160479 63.7365847,2.64228144 C63.6309576,2.02331138 63.5433983,1.60642515 63.4728644,1.39232934 L66.2118729,0.85708982 C66.2824068,1.09520958 66.375178,1.57038922 66.4933136,2.28545509 C66.6100593,2.99946108 66.6691271,3.92756287 66.6691271,5.07046707 L66.6691271,23.2463533" id="Fill-5"></path>
                        <path d="M78.3298051,26.7280599 C77.5577542,27.0965449 76.6793814,27.2816707 75.6960763,27.2816707 C74.6662119,27.2816707 73.787839,27.1385868 73.0623475,26.8545389 C72.336161,26.5701377 71.7506949,26.1843413 71.3069915,25.6978563 C70.8608559,25.2113713 70.5453644,24.6718922 70.3580847,24.0776527 C70.1708051,23.4851796 70.0769915,22.8683293 70.0769915,22.2271018 C70.0769915,20.2094431 70.8907373,18.6429401 72.5182288,17.5279461 C74.1443305,16.4129521 76.4215678,15.8554551 79.3485508,15.8554551 L80.5775085,15.8554551 L80.5775085,14.6051497 C80.5775085,13.7957545 80.5431102,13.1948024 80.4722288,12.8012335 C80.4023898,12.4087246 80.249161,12.0815749 80.0163644,11.8194311 C79.4538305,11.1764371 78.6699661,10.8563533 77.6630339,10.8563533 C76.7262881,10.8563533 75.7078898,11.0693892 74.607839,11.4979341 C73.5070932,11.9271856 72.664161,12.4150838 72.0790424,12.9626886 L70.7090169,10.9623413 C73.0738136,9.36792814 75.5209576,8.57019162 78.0497542,8.57019162 C80.5309492,8.57019162 82.1466271,9.49829341 82.8957458,11.3552036 C83.0593983,11.7360539 83.164678,12.2119401 83.2119322,12.7835689 C83.258839,13.3548443 83.2821186,14.1889701 83.2821186,15.2834731 L83.1413983,21.1396647 C83.1413983,22.6637725 83.2296525,23.6879701 83.4047712,24.2108443 C83.5812797,24.7347784 83.9613983,25.1633234 84.5461695,25.496479 L83.1413983,27.2477545 C82.4992966,27.1043174 82.0229322,26.9778383 81.6139746,26.5143174 C81.2039746,26.0497365 80.9176695,25.5088443 80.753322,24.8884611 C79.9110847,25.7462575 79.1028983,26.3588683 78.3298051,26.7280599 L78.3298051,26.7280599 Z M80.5076695,17.7833772 L80.4371356,17.7833772 C79.8527119,17.7356826 79.4190847,17.7116587 79.138339,17.7116587 C77.0073814,17.7116587 75.4737034,18.068485 74.5373051,18.7831976 C73.6005593,19.4975569 73.1328814,20.5567305 73.1328814,21.9607186 C73.1328814,24.1274671 74.1387712,25.2106647 76.1529831,25.2106647 C77.0424746,25.2106647 77.8732458,24.9548802 78.646339,24.4429581 C79.4190847,23.9306826 80.0035085,23.2587186 80.4023898,22.426006 L80.5076695,17.7833772 L80.5076695,17.7833772 Z" id="Fill-6"></path>
                        <path d="M89.4199576,25.925024 C89.3608898,26.1871677 89.1955,26.9153054 89.0311525,27.2477545 L86.4172288,26.5694311 C86.554822,26.1437126 86.6687881,25.8416467 86.7504407,25.174982 C86.8324407,24.5083174 86.8730932,23.5802156 86.8730932,22.3899701 L86.8730932,4.8917006 C86.8730932,3.91590419 86.8147203,3.11887425 86.698322,2.4991976 C86.5808814,1.88093413 86.4870678,1.46369461 86.4172288,1.2495988 L89.1562373,0.713652695 C89.2267712,0.951419162 89.3195424,1.42836527 89.4369831,2.14272455 C89.5544237,2.85602395 89.6127966,3.78483234 89.6127966,4.92738323 L89.6127966,9.0697485 C89.6127966,9.4505988 89.6068898,9.8261497 89.5950763,10.194988 C89.5829153,10.5641796 89.5658898,10.8436347 89.5429576,11.0337066 C90.408822,10.1773234 91.2281271,9.56435928 92.0008729,9.19446108 C92.7732712,8.82597605 93.6283644,8.64120359 94.5647627,8.64120359 C96.6481186,8.64120359 98.2992373,9.4505988 99.5160339,11.0693892 C100.73422,12.6888862 101.342966,14.8906108 101.342966,17.6756228 C101.342966,20.5323533 100.704339,22.8418323 99.4291695,24.6037066 C98.1526102,26.3659341 96.4723051,27.2456347 94.3889492,27.2456347 C93.4994576,27.2456347 92.5981525,27.0195269 91.6846864,26.568018 C90.7719153,26.1161557 90.0697034,25.5565389 89.5777034,24.8884611 C89.5307966,25.3177126 89.4783305,25.6628802 89.4199576,25.925024 L89.4199576,25.925024 Z M89.5777034,22.6397485 C90.0457288,23.2587186 90.6777542,23.7699341 91.4744746,24.1751617 C92.2698051,24.5800359 93.0772966,24.7824731 93.8976441,24.7824731 C94.5063898,24.7824731 95.1095763,24.6340898 95.706161,24.3359102 C96.3027458,24.0384371 96.7540932,23.6639461 97.0588136,23.211024 C97.4097458,22.6637725 97.7019576,21.9200898 97.9361441,20.9789162 C98.1696356,20.0384491 98.2877712,18.8785868 98.2877712,17.4975629 C98.2877712,16.3073174 98.2109831,15.3428263 98.0591441,14.6051497 C97.9062627,13.8674731 97.6435847,13.2361377 97.2690254,12.7122036 C96.940678,12.2363174 96.4792542,11.8607665 95.8819746,11.5869641 C95.2853898,11.313515 94.6464153,11.1764371 93.9674831,11.1764371 C93.1248983,11.1764371 92.3042034,11.3908862 91.5095678,11.8194311 C90.7128475,12.247976 90.0697034,12.8075928 89.5777034,13.4982814 L89.5777034,22.6397485 L89.5777034,22.6397485 Z" id="Fill-7"></path>
                        <path d="M101.806475,25.7116347 L103.143492,23.4968383 C104.947144,24.6153653 106.795619,25.174982 108.69239,25.174982 C109.769508,25.174982 110.629814,24.8955269 111.274695,24.3359102 C111.917492,23.777 112.239585,23.0322575 112.239585,22.1038024 C112.239585,21.2954671 112.011653,20.6581257 111.554746,20.1935449 C111.098186,19.7293174 110.366788,19.3898024 109.359508,19.1757066 L107.182686,18.711479 C105.754636,18.4023473 104.659449,17.8187066 103.898517,16.9616168 C103.137932,16.1045269 102.757119,15.0577186 102.757119,13.8190719 C102.757119,12.2002814 103.337373,10.8860299 104.496492,9.87349102 C105.654915,8.86201198 107.147246,8.35538922 108.974178,8.35538922 C109.886949,8.35538922 110.817093,8.48681437 111.766,8.74895808 C112.714212,9.01039521 113.562356,9.35556287 114.311475,9.78375449 L113.293771,11.8554671 C112.403932,11.4269222 111.630839,11.1054251 110.975534,10.8913293 C110.320576,10.6768802 109.629136,10.5698323 108.903644,10.5698323 C107.895669,10.5698323 107.094432,10.8369222 106.497847,11.372515 C105.900568,11.9084611 105.602797,12.6178743 105.602797,13.4982814 C105.602797,14.1889701 105.795288,14.7425808 106.181661,15.1584072 C106.568381,15.5752934 107.21778,15.8787725 108.130551,16.068491 L110.448788,16.5687545 C113.562356,17.2354192 115.119661,18.8895389 115.119661,21.5321737 C115.119661,23.2696707 114.510915,24.6747186 113.293771,25.7462575 C112.075932,26.8177964 110.484229,27.3533892 108.517271,27.3533892 C108.517271,27.3533892 104.65111,27.3491497 101.806475,25.7116347" id="Fill-8"></path>
                        <path d="M122.668873,24.2860958 C122.668873,26.0175868 121.362432,27.4070898 119.689771,27.4070898 C118.006686,27.4070898 116.680093,26.0175868 116.680093,24.2860958 C116.680093,22.5754491 118.006686,21.1866527 119.699153,21.1866527 C121.362432,21.1866527 122.668873,22.5754491 122.668873,24.2860958 L122.668873,24.2860958 Z M117.174525,24.3157725 C117.174525,25.8165629 118.263805,26.9944431 119.689771,26.9944431 C121.084814,27.0145808 122.174093,25.8165629 122.174093,24.2860958 C122.174093,22.7867186 121.084814,21.5992994 119.679347,21.5992994 C118.263805,21.5992994 117.174525,22.7867186 117.174525,24.3157725 L117.174525,24.3157725 Z M120.896839,23.1385988 C120.768627,23.069 120.401712,22.9082515 119.936814,22.9082515 C119.005627,22.9082515 118.5515,23.5113234 118.5515,24.3157725 C118.5515,25.1011437 119.035508,25.736012 119.94689,25.736012 C120.343339,25.736012 120.719983,25.6254311 120.947915,25.4745749 L121.064661,25.8568383 C120.719983,26.0885988 120.263771,26.1684431 119.847864,26.1684431 C118.699517,26.1684431 118.035178,25.3632874 118.035178,24.3468623 C118.035178,23.2000719 118.926059,22.4747605 119.92639,22.4747605 C120.442364,22.4747605 120.877381,22.6259701 121.017059,22.7460898 L120.896839,23.1385988 L120.896839,23.1385988 Z" id="Fill-9"></path>
                        <path d="M68.0040593,24.9601796 L70.2705254,23.6229641 L71.3924661,25.4660958 L68.5652034,26.7821138 L68.0040593,24.9601796" id="Fill-10"></path>
                    </g>
                </g>
            </g>
        </g>
    </g>
</svg>